<svg id="Layer_1" data-name="Layer 1" xmlns="http://www.w3.org/2000/svg" viewBox="0 0 291 264"><defs><style>.cls-1{fill:#b56666;}</style></defs><path class="cls-1" d="M135.8,71.33c-1.19,1.07-2.46,1.74-2.09,1.25-2.24,2.42-2.57,2.14-2.42,3-1.35,1.65-3.37,2.75-1.76,1l-4.28,4.34,2.81-2.31c-.34,1.1-4.48,3.7-4.88,5l4.9-4.39-.11.37A30.25,30.25,0,0,1,132,75.92c-.06.18.13.23-.73,1,6-5.12.91-2.21,5.79-6.6A15.17,15.17,0,0,1,135.8,71.33Z"/><path class="cls-1" d="M141.91,68.2l1.66-2.31c1.25-.89,2.49-1.8,3.75-2.66-.12-.24,2.42-2.43.48-1.24a18,18,0,0,1-1.56,1.3c0-.38,1.21-1.36,2.2-2.21s1.82-1.51,1.1-1.34c-2.84,2.29-3.36,2.54-4.85,4.28-2.67,2-4.64,3.46-6,4.3-.71.7-.6,1.05-1.53,1.91l.65-.56.65.57a18.67,18.67,0,0,1,2.41-2.13l-3.52,4.21c1.83-.52,5.61-4.23,7.48-5.26C142.36,68.12,146.25,65.47,141.91,68.2Z"/><path class="cls-1" d="M137.18,70.23l-.1.09Z"/><path class="cls-1" d="M86.11,197.77c-.84-.8-1.22-.9-1.42-.94l4.69,4.59,4.76,4.52c-.14-.45-2.69-3.26-.77-1.61a14.63,14.63,0,0,0-3.84-3.3l.93.41c-2.49-1.77-3.34-3.85-1.76-2.65l-.19-.18c-2.38-1.54-4.76-3.1-7.12-4.69C83.49,196.17,83.46,195.2,86.11,197.77Z"/><path class="cls-1" d="M134.55,73.23c-.5-1.69-.69-1.86-.7-1.65C134.1,72.16,134.34,72.72,134.55,73.23Z"/><path class="cls-1" d="M79.73,192.8l-2.21-1.5A16.06,16.06,0,0,0,79.73,192.8Z"/><path class="cls-1" d="M98.23,199.72s.06,0,0-.09l-1-.61,0,0Z"/><path class="cls-1" d="M37.81,150.3l-.59-.68C37.43,149.88,37.62,150.1,37.81,150.3Z"/><path class="cls-1" d="M126.54,220c-1.59-1-3.2-2-4.77-3.07.73.29-1.44-1.37-.33-.84-.36-.24-2-1.44-1.64-1l.9.72c-2.75-1.36-1.54,0-5.7-2.74a14.21,14.21,0,0,0,4.88,3.63l1.22.87c1.41.74,2.88,1.41,4.32,2.12Z"/><path class="cls-1" d="M68.51,49l0,.07S68.52,49,68.51,49Z"/><path class="cls-1" d="M68.34,49.32l.13-.3C68.24,49.24,67.23,49.79,68.34,49.32Z"/><path class="cls-1" d="M80.73,193.17a2.13,2.13,0,0,1-1-.37l1.66,1.12Z"/><path class="cls-1" d="M85,195.25l3.56,3.36,1.55,1C88.62,198.4,87,196.93,85,195.25Z"/><path class="cls-1" d="M42.68,156.62c-6.92-7.76,2.3,1.39-.69-2.34-2-2.11-2.92-2.65-4.18-4,2.79,3.11,2.38,3.06,1.94,3.08s-.88.07,2,3.14c-1.31-.4-4.56-4.05-6.22-6.48-1.51-3,2.18,2,3.18,2.05-2.25-2.54-1.95-2-3.16-2.92-1.61-2.18-3.44-4.35-5-6.47a17.85,17.85,0,0,1-3.07-5.91,62.94,62.94,0,0,0-3.4-5.38c-.42-.09.08,1.42.76,3.13a33.5,33.5,0,0,1,1.75,4.38c-.1-.32-.29-.94-.11-.82.5,1.11,1.09,2.14,1.65,3.21-1.5-3.08.85.06,1.87,1.5.72,1.09,2.2,3.16,1.84,3-.42-.48-.83-1-1.24-1.51,1.23,2.24,3.63,4.19,4.93,6.43,0,.21-.71-.51-.89-.57,2.19,2,3.94,4.12,6.95,7l-2.13-1.33a39.92,39.92,0,0,1,5.23,5.06c1.94,2.14,3.89,4.51,5.44,6.53-.28-.5-.9-1.31-.39-1,2.13,2.07,3.29,4.07,2.08,3.31,2.4,1.73,7.13,8.5,10.43,10.87,5,3.63,10.16,7.19,15.28,10.7-.55-.43-1.11-.9-1.66-1.42-.7-1.63-1.37-2.22,1.08-.55-2.22-1.82-1.84-.67-4.83-3.75,1.39,1,2.21.8-.56-2.22-7.52-7-13.44-10.78-20.59-17.21.13-.6-5-6-7.42-8.85a29,29,0,0,1,5.25,4.62l-4.72-5.29Z"/><path class="cls-1" d="M60,173.09c-.14-.21-.3-.42-.47-.64A4.25,4.25,0,0,0,60,173.09Z"/><path class="cls-1" d="M49.35,162.56s0,0,.06,0l-.62-.63Z"/><path class="cls-1" d="M79.83,190.69c.53.33.87.62,1.4,1-.3-.24-.66-.54-1-.84S79.68,190.45,79.83,190.69Z"/><path class="cls-1" d="M80.66,192.75l-.37-.09.44.51C80.86,193.14,80.87,193,80.66,192.75Z"/><path class="cls-1" d="M26.85,119.79l-.27-1A3,3,0,0,0,26.85,119.79Z"/><path class="cls-1" d="M35.84,147.11c1.14,1.46,1.36,1.41,1.68,1.54s.76.41,2.4,2.39l-.93-1.2c2.56,2.69,6.72,7.53,9.62,10.63-.54-.16,1.47,2.14.8,2.08a35.78,35.78,0,0,0,5.42,4.92c1.11,1.43,3.25,3.17,4.67,5-.45-.9,2.9,1.77-1.14-2.1.34.31.19.06.52.36-2.15-2.9-3.6-3.53-5.69-5.8-1-1.55,2.36,1.93,1.26.57-2.79-2.67-7.93-9.15-8.51-8.3a11.28,11.28,0,0,1-2.47-3.26c-1.9-1.33-4.56-4.62-6.73-7.61s-3.85-5.66-4.42-5.28a41.05,41.05,0,0,0,4.28,5.51Z"/><path class="cls-1" d="M75.65,186.48l-.47-.5Z"/><path class="cls-1" d="M105.36,220.29l-1.73-.29c-6.59-5.45-8.7-7.73-14.14-12.81-.33-.49.38.08.74.37C86.34,204.05,80.92,198.42,78,196c-1.18-1.17-4-4.49-2.66-3.5a20.06,20.06,0,0,1-1.94-1.81c.06-.41,1.51,1.42,1.74,1.27-.5-.54-.65-.79-.84-.84,1.06.69-.12-1.68,3.9,2.45,1,2.12-2.87-2.78-2.54-1.26,1.33,1.37,1.41,1,1.6,1,1.7,1.74,1.5,1.84,1.28,1.89.84.47,2.73,2.92,3.94,3.54,3.43,3.28-.63.27,1.59,2.43l1.87.65c1.18,1.25,2.39,2.47,3.6,3.69,5.63,4.92.2-1.75,6.77,3.69-1.11-.45.85,2.46,3.73,5.22a83.46,83.46,0,0,1-7.5-6.39c2.7,3.45-4.38-4-3.27-1.95a29.74,29.74,0,0,1,3.12,2.53c1.14,1,2.28,2.1,3.24,3.12l-.72-.56c2.11,2.09,4.38,2.92,7.22,5.88,1.54,1.33,1.1,1.25.7,1.17C104.19,219.28,105.48,220.14,105.36,220.29Zm-3.48-2.76-2-1.87A12.22,12.22,0,0,0,101.88,217.53Z"/><path class="cls-1" d="M172.32,48l-.74.27A6,6,0,0,0,172.32,48Z"/><path class="cls-1" d="M173,182.69l1-1.19C173.6,182,173.29,182.34,173,182.69Z"/><path class="cls-1" d="M192.69,153.82l1.26-1.89A15.08,15.08,0,0,0,192.69,153.82Z"/><path class="cls-1" d="M189,41.86H189l.32-.13Z"/><path class="cls-1" d="M232.87,98.41a9.23,9.23,0,0,0,.71-1A3.26,3.26,0,0,0,232.87,98.41Z"/><path class="cls-1" d="M192.46,154.16l.1-.09.13-.25Z"/><path class="cls-1" d="M161.45,193.08l-.55.83A7.15,7.15,0,0,0,161.45,193.08Z"/><path class="cls-1" d="M164.7,192.89c-.21.29-.4.57-.54.8Z"/><path class="cls-1" d="M134,227.52l-.5-.2A1.09,1.09,0,0,0,134,227.52Z"/><path class="cls-1" d="M160.79,196.85c0,.12-.09.23-.11.32C160.84,196.93,160.89,196.79,160.79,196.85Z"/><path class="cls-1" d="M159.73,52.1l.1-.07v-.11Z"/><path class="cls-1" d="M156.18,55.86l-1.46,1.06A17.11,17.11,0,0,0,156.18,55.86Z"/><path class="cls-1" d="M243.77,71.31c.24-.49.57-1.67.62-1.08C244.37,69.21,244,69.21,243.77,71.31Z"/><path class="cls-1" d="M166.05,42.41a9.8,9.8,0,0,1-.93.8C165.77,42.74,166.35,42.33,166.05,42.41Z"/><path class="cls-1" d="M165.12,43.21c-.32.24-.67.49-.94.72Z"/><path class="cls-1" d="M246.78,86.64a2.07,2.07,0,0,0-.33.58C246.59,87.18,246.69,87,246.78,86.64Z"/><path class="cls-1" d="M153.44,57.65c-.17.32-6.27,5.29-.86,1.51.16.65-3.26,2.69-4.56,3.9,1.11-.65-.26.71.18.65a21.08,21.08,0,0,1,2.55-2.17c.71-.15-.94,1.28-2.36,2.23,1.87-1-1.81,2,.7.42,4.92-4,8.46-6.65,11.73-9.78-3,2-6.18,4.47-8.75,6l.7-1.17c3-1.53,4.53-3,7.34-4.7-1.07.61-2.13,1.23-3.18,1.89s-2.11,1.28-3.14,2c-3.12,1.63-1.27.21.93-1.45A5.08,5.08,0,0,1,153.44,57.65Z"/><path class="cls-1" d="M155,50.83l-.12.06c-.08.08-.19.17-.24.23Z"/><path class="cls-1" d="M134.44,241.2l-.88-.35C134.3,241.25,134.52,241.32,134.44,241.2Z"/><path class="cls-1" d="M160.25,50.64h0S160.29,50.61,160.25,50.64Z"/><path class="cls-1" d="M148.72,227.69a.18.18,0,0,1,0,.09C148.73,227.73,148.71,227.72,148.72,227.69Z"/><path class="cls-1" d="M142.3,217a.24.24,0,0,0-.12,0C142,217.29,142.11,217.17,142.3,217Z"/><path class="cls-1" d="M148.69,227.65s0,0,0,0S148.72,227.63,148.69,227.65Z"/><path class="cls-1" d="M196.5,165.17a5,5,0,0,0-.55.38C195.9,165.7,196,165.62,196.5,165.17Z"/><path class="cls-1" d="M186.13,176.75l-.23.18Z"/><path class="cls-1" d="M240.65,74.12c-.18.7-.31,1.22-.42,1.67A11,11,0,0,0,240.65,74.12Z"/><path class="cls-1" d="M148.7,227.78a4.64,4.64,0,0,1-.33.73A4.24,4.24,0,0,0,148.7,227.78Z"/><path class="cls-1" d="M209.11,144.92l-.25.42.2-.21Z"/><path class="cls-1" d="M214.34,138.72a3,3,0,0,0-.19.55c1.58-2.43,4.88-6.62,4.78-7.46-.56.8-3.82,4.73-3.58,3.82-1.09,1.7-3.21,3.84-3.78,4.77,2.23-2.46.62,0-.6,1.9-1.37,1.51-.13-.59-1.29.73l-2.82,3.75,2.57-3.18-.32,1.32.21-.36C213.33,138.9,210.36,144.62,214.34,138.72Z"/><path class="cls-1" d="M214.15,139.27c-.23.37-.43.7-.56,1A3.06,3.06,0,0,0,214.15,139.27Z"/><path class="cls-1" d="M231,116.31c.16-.32.33-.66.54-1.11Z"/><path class="cls-1" d="M92.51,202.09c0,.2,2.67,3.24,2.91,2.88l-2.53-2.6Z"/><path class="cls-1" d="M239.68,45.09l1,.87.23.13A6.6,6.6,0,0,0,239.68,45.09Z"/><path class="cls-1" d="M215.91,134.5a4.71,4.71,0,0,0-.56,1.13A5.34,5.34,0,0,0,215.91,134.5Z"/><path class="cls-1" d="M240.13,44.14a6,6,0,0,1-1-1.33,17.71,17.71,0,0,0-2.9-1.51A15.24,15.24,0,0,1,240.13,44.14Z"/><path class="cls-1" d="M236.18,41.25l.09,0Z"/><path class="cls-1" d="M90.89,200.3c-.27-.22-.55-.44-.83-.68l.48.31-1.9-2c-.26-.22-.53-.45-.86-.76a1.08,1.08,0,0,0,.36.21l-.6-.66c-1.91-1.22-6-4.92-7.31-5.87a58.31,58.31,0,0,1-4.58-4.33c1,1.08,2.48,2.45,2.24,1.85-1.93-2.36-2.44-3.92-6.5-7.3l2.13,2.23-5.45-4.37c-1.37-2,2.71,2.19,3.63,2.64-4-3.58-6.18-7.71-8.47-9,.12-.59.32-1.58-2.11-4.13,1.31,2.24-1.7-1.31-.72.62-1-.7-2.53-3-2.94-2.92l.37.11c-3.5-5-5.72-5.6-7.75-7.23-5-5.2-7-7.88-10.81-12.5a6.82,6.82,0,0,0-1.6-4.1,18.38,18.38,0,0,1-2.58-2.76,12.28,12.28,0,0,0-2.3-2.51c2,3.84,2.27,2.76,3.8,4.81.78,2.07-.38.51,1.08,3.07-.63-1-2.27-3.12-3.77-5.4a25.27,25.27,0,0,1-3.14-6c.15.27.32.53.49.79A23.64,23.64,0,0,1,30,129.54,39.72,39.72,0,0,0,27.87,123c-.37-1-.72-2.09-1-3.16.08.15.15.16.22.23a22.16,22.16,0,0,1-.34-4.7,45.86,45.86,0,0,0-.39-5.09c0,.45.11.17.15.63.24-3.35-.16-6.75,0-9.32.66-1.48.41.43.66,1.41.7-5.82,1.43-12.15,2.08-15.87.47-1.19,1-2.36,1.54-3.52-.64,2.19-1,5-.5,4.41a20.63,20.63,0,0,1,1.32-4.44,24.61,24.61,0,0,1-.16,3.25c1.24-2.76,1.15-3.15,1-3.33s-.37-.15.88-1.92c.75-1.74.85-2.91.61-3.26.63-1,1.32-1.93,2-2.87-.24-.56,1.83-4.32,3.43-6.64,0-.42-1.7,1.59-2.1,2.61-.22-.38,1.27-3,2.48-4.57.31,0,.92-.64,1.67-1.57s1.77-2,2.68-3.08a18.65,18.65,0,0,1,2.47-2.49c.63-.52,1-.64.75,0a64.16,64.16,0,0,1,5.08-4.8,71.67,71.67,0,0,1,6-4.36c1-.64,2-1.36,3-1.89L64.21,47c.9-.55,1.82-.91,2.62-1.32L69,44.56c1.88-.44,5.55-1.6,3.5-.45.83-.26,1.58-.58,2.33-.79s1.46-.43,2.14-.65L79,42c.65-.19,1.3-.33,2-.5a30.38,30.38,0,0,1,8.74-1.1c.29.08-.5,0-1.33.11s-1.7.21-1.56.36a26.1,26.1,0,0,1,6.73,0c2.37.37,5,.7,8.5,1.43a3.18,3.18,0,0,0-1.73,0,4.69,4.69,0,0,1,1.64.11c.48.06,1,.13,1.56.22l1.49.37c1,.4-1.34-.32-.82,0a49.88,49.88,0,0,1,16.55,8.81,42.8,42.8,0,0,1,6.51,6.47,36.88,36.88,0,0,1,5.16,8.38A13,13,0,0,0,130.16,63c-.59-.66-1-.86-1.11-.81.65,1.09,1.26,2.2,1.82,3.33a28.79,28.79,0,0,1,3,6.07c0,.32.17,1.48-.31.37.37,1.86.7,3.49,1,5.07s.53,3.1.72,4.7A22.16,22.16,0,0,1,133.59,93a30,30,0,0,0,.89-11.32c-.19.92-.34,1.82-.6,2.7a28.89,28.89,0,0,0-.51-4.76c-.15,2.79.31,5.29-.19,5.58-.08-.61.11-2-.18-2.08-.19,1.32-.21,2-.25,2.67a11.34,11.34,0,0,1-.17,2.21,45.33,45.33,0,0,0-.42-10.4,34.16,34.16,0,0,0-3.27-10c-.42-.75.53.57.69.68a27.39,27.39,0,0,0-3-5.74c-1.31-1.26.5,1.28,1.1,2.53-.43,0-.7-.62-1.58-1.89.13-.27-1-2.09-2.4-3.95s-3.15-3.74-3.7-4.64a11.41,11.41,0,0,0-2.76-2.06c-.39-.15-.34.07-.29.29s.12.42-.21.26-1-.72-2.65-1.89c-.55-.59-1.12-1.18-1.73-1.74a38.67,38.67,0,0,0-7.25-2.66,36.66,36.66,0,0,0-4-1l-2-.41a13.51,13.51,0,0,0-2-.37,8.06,8.06,0,0,1,1.1.13c.76-.07-.4-.5-.94-.64a24,24,0,0,0-5.6-.41c-.86,0-1.66,0-2.41,0a16.1,16.1,0,0,1-2-.11A79,79,0,0,0,79,45.9l-2.24.73a20.09,20.09,0,0,0-2.18.77c-1.4.6-2.76,1.07-3.93,1.64-.39,0-.21-.25.31-.58s1.43-.66,2.43-1.07c2-.89,4.53-1.49,5.53-2L76.61,46a18.49,18.49,0,0,0-2.31.67l1-.35.85-.25c.53-.17,1-.33,1.4-.5.84-.33,1.51-.71,2.35-1.09a26.37,26.37,0,0,0-4.72,1.39c-1.27.6-2.48,1.23-4.33,2,.21-.3-.33-.22-2,.51l-.29.66c-.05,0-.25,0-.79.21a32.63,32.63,0,0,0-3.13,1.69c-1,.61-2.07,1.12-3,1.83,1.37-.63,1.68-.22,3.28-1.07-.7.06.62-.74,2.26-1.52-1.32.91,1.74-.45,1.81-.19A46.53,46.53,0,0,0,59.82,55l-.91,0c-1.44,1-2.87,2-4.16,3s-2.35,2.08-3.29,2.79l.4-.66a25.43,25.43,0,0,0-2.28,2.11c-.72.74-1.49,1.42-2.13,2.19-1.29,1.54-2.69,2.91-3.9,4.32A52.78,52.78,0,0,0,38.8,79.23c-.11.84-1.46,3.16-2.7,5.92a25.72,25.72,0,0,0-2.44,8,31,31,0,0,1,.55-4.28c-.94,2.63-.75,4.94-1.54,5.65,1.71-6-.56.2,0-2.58a33.11,33.11,0,0,0-1.21,7.39c.8-4.66.51,1.78,1.11-3-.23,3.72-.64,8.68-.81,13-.25-.05-.4.49-.46,2.12l.44,1.28c0,2-.64-3.9-.58.2.45,2.08.72,5.21,1.34,8s1.53,5.14,2.41,5.76c.34,1.53-.33.21-.88-1s-1-2.19-.56.17A18.19,18.19,0,0,1,32,121.73a9.56,9.56,0,0,0-.95-3c.69,2.7-.34,1.1,0,2.87.35,1,.75,2,1.16,2.91l-.17-.67A89.65,89.65,0,0,0,36,132.47a63.46,63.46,0,0,0,5.8,9c4,4.25,7.29,6.62,12,11.94-1.69-1.32,3.75,4.61.23,1.73,2,2.66,4.49,4.82,4.72,4.69-1.9-2.21-.62-.81-2.19-2.71a31.45,31.45,0,0,1,4.83,5.12c-.47-.55-.33-.3-.51-.35,2.19,2.7,1.36,1,3.15,2.77.21.89,3.68,4.15,5.06,6l2.74,2c-1.55-1,2.06,2.43,2.13,3.07a42.4,42.4,0,0,1,6,5.3c-1.2-.92,2.07,2.59,1.8,2.93,4,4.73,8,6.49,11.75,11-.2-.06-1.23-.69-.09.59,1,.86,2.72,2.51,3.79,3.47l0,0,.06,0c.53.47.89.74,1,.68a70.2,70.2,0,0,1,7.09,4.93c.07-.6-3-3.21-4.46-4.29l-1.44-.7c-.55-1.54-3.25-2.91-3.88-3.86,2.69,1.39,8.59,7.28,12.7,10.16a24.39,24.39,0,0,0-1.88-2.21c-.77-.85-1.67-1.78-2.64-2.75-2-1.92-4.2-4.07-6.32-6l1.64,2-2.2-2.07,1.76,2.39c-2-2-3.89-3.66-5.71-5.51,2.17,2.12,2.55,3.43,1.39,2.15-2.08-2.72-2.74-2.25-4.56-4.1,1,1.06,2.33,2.37,1.27,1.72-3.22-4-4.46-4.73-7.27-8.51-.18,1-4.12-4.12-5.07-4.18l1.45,1.61-3.53-3c-2.44-3.53,3.08,2.26-1-2.74-4-4.41-4.54-3.7-7.78-7.11a38.9,38.9,0,0,1,6.82,6l-1.4-1.83a85.17,85.17,0,0,1,6.36,6.44c-3.37-2.75,1.25,1.59,2.32,3.28.58-.07-1.39-2,1.15.08-2.14-2.18-2.48-2.48-5-5.42a27.16,27.16,0,0,0,5.92,5.19A23.32,23.32,0,0,1,89.21,186c-2.52-2.25.34,1.3.47,1.75,1.15,1.1,3.52,3.26,4.54,4.1l-.38-1.31c3.22,2.77,3.31,4.8,7.33,7.67.74.14-3-3.06-2.33-2.51a44,44,0,0,1,5.53,5.49c.69.86,1.37,1.69,2.12,2.6s1.59,1.86,2.62,2.93c.38.07.61-.29,2.4.81-.76-.12.25,1.05-1.69-.27a31.09,31.09,0,0,0,4.79,3.75c-3-2.85,1.66.64,2.38.94,1.58,1.43-.75-.1-1.82-.86,1.22,1.19,2.41,3,3.55,3.08-.1.18-1.22-.33-2.6-1.18a52,52,0,0,1-4.29-3l1.59,1.44a15.88,15.88,0,0,1-3-2.46c1.36,1.62,1,1.75.4,1.67-.17-.23.19,0,0-.2-1.24-1.2-2.29-2-2.15-1.56-1.53-.61,1.55,1.87,2.27,2.82l2.08,1.62c2.65,1.49,5.38,2.85,8.06,4.25a46.47,46.47,0,0,1,6.3,5.51l.92.06c2.64,2,5.06,3.94,3,3.2,0-.2-.37-.43-.94-.87a1.25,1.25,0,0,1-.47-.15l-.18,0c3.53,2.39,3.21,2,3.47,2.15a3.46,3.46,0,0,0-1-.11c-.22,0-.23.13-.17.33s.43.91,0,1.17c1,.53,1.86,1.05,2.7,1.49-.8-.7-.78-.83-.56-.77a2,2,0,0,1,.46.17c.13-.2.25-.42.34-.56.11.24.49-.23.89-.81l.59-.89.28-.39c.16-.21.39-.49.55-.68l0,.18a73.08,73.08,0,0,0,5.05-6.27c-.2,0,1.2-3,1.79-4.53-2.85,3.23-1.39,1.12-1.85,1.2a6.09,6.09,0,0,0,.82-1.06c.28-.57-.67.53-.87.52-2.7,3.71-5.6,7.42-6.24,9.3,1.12-.9,1.27-2.05,2.42-3.14a22.77,22.77,0,0,1-2.19,3.28l-.69.88-.52.62a1.43,1.43,0,0,1-.37-.19,3.45,3.45,0,0,1-.29.5l-.42-.15c.19,0,.2-.19.27-.32s.14-.43.36-.75c-.11-.17-.19,0-.32.22a.79.79,0,0,1-.58-.27,1.54,1.54,0,0,1-.36.41c.09-.12-.11-.37-.19-.55s0-.3.3-.32a1.22,1.22,0,0,0,.7-.06,2.84,2.84,0,0,1-.16-.56c.09.07.12-.13.16-.2a3.29,3.29,0,0,1,.07.36c.44-1.15-.38,2.2,4-4.26,1.12-2.45,2.82-4.67,6.15-8.54-2.2,3,.12.59-.45,1.91a23.55,23.55,0,0,0,4-5.77c.88-.53,1.53-.88-.62,1.71.3.78,2.68-3.53,3.45-3.29,7-8.69,3.72-8.47,12.62-18l-.07.57c4.89-6.67,8.17-10.16,12.79-16.27l4.38-4.21c-.75,1.13-2.58,4.31-1.23,3.23-2.45,1.79-4.19,4.38-6.5,6.58,0,.38.88-.53,1.33-.89-1.2,1.48-2.08,2-3.55,4.05.2,0,2.08-2,.85-.34l-2.52,2.37c-2.7,3.71-.53,2.47-4.08,6.53a16.55,16.55,0,0,1,2.33-4.72c-1.62,1.86,1.85-2.71.25-1.13-1.73,3.16-3.2,4.18-5.85,8.09a9.4,9.4,0,0,1,1-1.6l-4.49,5.15c1.35-1.08-3.23,4.66-2.4,4.51,4.75-5.53,3.14-4.07,8.6-10.34a29,29,0,0,0-3.34,6,1.65,1.65,0,0,0-.31.31c-.38,1.33.55.42,1.28,1,1.85-3.38,3.87-5,6.37-8.73.12-1-2.14,1.61-3.43,3.42l2.2-3.28-.3.75,6.41-7.67a12.33,12.33,0,0,0-1.78,3.09c.83-1,1.74-1.89,2.71-2.86-.57-.09-.73-.45.07-1.42,4.13-4.93,6.72-7.44,8.65-8.93l.44-.6c-1.07.52,2.15-4.13,3-6,.35.41,2.33-2.38,3.7-3.66.15-1.14-1.33-.64-3.13.8-2.3,3.73-1.1,2.25-1.77,4.34l-4,5.76.6-1.52c-2.35,2.58-4,5.58-4.28,5,.82-1.69,2.93-3.9,3.75-5.58l-1.63,1.64c2.07-3.55,1.77-1.24,4.52-5.34-1.55,1.07.26-.37,1.3-2.24-1.35,1.08-5.32,6.84-5.1,5.12,1.3-2.24,6.23-6,7.65-9.24l0,.2a33.23,33.23,0,0,0,4.84-7.16c1.56-1.47,3.06-4,4.46-5.82l.17.21,1.93-2.59c-.58,1.5-2.37,2.95-4.05,5.16l.6,0c-2.46,2.13-3.11,4.35-4.35,6.56,2-3.09,6.51-7.9,6.28-9.16l1.78-1.44.52-.94c1.31-1.08.74.62-1.19,3.21-.45.36-.67.54-.65.35a26.7,26.7,0,0,1-3.69,5.38l1-1.67c-2.86,3.5-5.31,6.84-5.91,8.35,4.28-5,8.35-10,12.13-14.77.25-2.1,1.08-4.16.83-5.52A124.28,124.28,0,0,1,210.38,131l0,.38a30.87,30.87,0,0,0,2.65-3.77c1.29-1.32-.28,1.32.58.38,1-1.64,2-3.3,3-4.94.17.55-2.57,4.57-3.93,6.45.22-.37.68-1.14.46-.94-.87,1-1.87,2.69-2.84,4.15s-1.88,2.72-2.51,3c-.7,1.12,1.21-2.44-1.49,1.1-2,2.22-2.15,3.36-2.18,3.74.18.2,3.16-3.51,2.4-2,1.41-1.87,1.67-2.83,3.67-5.06-1.36,1.87-2.81,4.71-3.9,5.43-2.41,3.93-1,4.17.35,2.5-.61.17,4.71-7,.65-2.47,1.24-2.45,4.2-6.38,6-9.42v.19q1.25-1.8,2.42-3.62c-.23.58-.89,1.73-.7,1.91l2.85-5.35c-.76,1.53-.4,1.15.29.24s1.65-2.38,2.17-3c0-.76,1.06-2.87-.38-1.13-1.63,1.94-.62,1.35-1.86,3.28l1.26-3.06.2-.2.64-1.91c2.36-3.71,0,2.28,2.56-2.78l-1,.25c3.55-5.44,8.27-12.37,9.89-16.65-.2,1.3.14,2.09,1.26.69-.5.87-1.18,2.2-1.89,3.63l-2.19,4.21c-.18.21.06-.68.54-1.94.24-.64.55-1.36.89-2.1s.67-1.5,1-2.17c-1.62.83-3,7.19-4.19,7-4.31,6.59-2,5.67-6.14,11,.39.37-.85,1.74-.65,2.3,1.86-1.19,4.87-7.62,7.27-11.26a6.8,6.8,0,0,0-.55,1.37,29.59,29.59,0,0,0,3.07-5.84l-.18.22c1.35-3.59,1.45-1.9,2.67-3.79.31-.82,1.83-3.55,1.26-3.26.72-1.15,1.4-2.32,2.11-3.49l-.62-.06c.45-1,.82-1.64,1.12-2.23a8.8,8.8,0,0,0,.74-2.22l-.45-.29c-.38.86-.73,1.73-1.13,2.58l-1.22,2.53c1-2.68-.11-.91,1-3.83-.76,3.45,1.18-2.18,1.75-2.33l.56-2.24-.08.6c.88-1.6.52-2.09,1.27-4.05-.54,1.12-1,2-1.45,3.05a22,22,0,0,0-1.31,3.65c.26-1.13.81-2.75,1.18-4.27s.76-2.87.93-3.4a29.15,29.15,0,0,1,1-3c.34-.93.72-1.84,1.06-2.9-.49,2.08,0,1.83.27,2.08s.21.37.08,1.11a19.3,19.3,0,0,1-1.25,4,2.83,2.83,0,0,1,.35-1.08c-1,.88-1.58,5-2.11,6.8.54-.32-.1,1.57,1.34-1.49-.33.47-.23-.26,0-1.49a23.14,23.14,0,0,1,1.44-4.4l.61.79c.54-1.47.94-3,1.42-4.46l-.09.43c1-1.56,1.28-4.82,2.09-7.83.06-1.14.41-3.83.37-5.75s-.27-3-.65-1.3c.49-2.65-.43-4.9-1.34-7.31.13.52.2,1.08.29,1.61s.14,1.1.15,1.66a19.65,19.65,0,0,0-1.16-3,8.07,8.07,0,0,0-1.58-2c.07-.34-.07-1,.42-.6a16.92,16.92,0,0,0-5.5-6.08,18.8,18.8,0,0,0-6.76-3c-1.84-.75-2.92-1.28-4.21-1.89-.32-.14-.66-.3-1-.44s-.78-.25-1.24-.38a18,18,0,0,0-3.48-.64c-1.24-.06.82.87-2.95.11-.26-.11,3.78-.16-.52-.61a18.86,18.86,0,0,1-2.49,0c-.89,0-1.82-.13-2.78-.22a22.06,22.06,0,0,0-6,.22c-2.15-.12-5.85.47-5.14-.13,3.41-.36,8.21-.73,8.94-.9-.46.31,2.42.28-.08.53a29.11,29.11,0,0,0,4.15.1c.38,0,.75-.06,1.3-.05a18.79,18.79,0,0,1,2.42.29c.34-.14-2.28-.86-3.29-.67,0-.16.58-.26,1.38-.27s1.8.07,2.68.11c1.77.12,3,.27,1.06-.5a19,19,0,0,0-5.67.05,17.45,17.45,0,0,1-5.13,0,18.51,18.51,0,0,1,3.15-.3,13.45,13.45,0,0,0,3.52-.35l-3.56-.44-2.61.52.16-.1a13.83,13.83,0,0,0-6,.53c-.67.23-1.31.48-2.13.73a23.78,23.78,0,0,1-3.18.91c3.28,0-.53,1.29,1.9,1.21-3.62.64-6.28,1.23-6.47.57,3.34-1.06,3.43-1.2,3.42-1.42s-.1-.46,3.08-1.29c-1.11-.08,1.41-1.25-2.51-.71-4.26,1.38,1.41.3-2.88,1.41-.26,0-.54,0-.42-.14-1.88.84-2.35.41-4.61,1.46l.52-.3c-3,.46-3.05,1.38-5.66,1.81,1.16.14-1.53.95-2.9,1.86a26.56,26.56,0,0,1,3.61-.76c.66-.12,1.4-.27,2.27-.5s1.89-.45,3.12-.82c.49-.57.07-.68,2.08-1.39-1.09.29-2.17.57-3.24.92.68-.26,1.18-.54,1.81-.77l3.19-.58c-3.91,1.27-2,1.23-3.54,2.07-3.6.88-2.9.95-5.15,1.58,0-.31-1.78,0-4.07.66s-5.1,1.67-7.14,2.45l1.84-.85c1.36-.82.81-.72-.1-.41a20.87,20.87,0,0,1-2.26.8c-.66.41-1.31.87-2,1.31.37-.24.85-.64-.07-.26-2.76,1.54-2.3,2-5,3.63-.38-.18,1.71-1.9-.09-1.1-.72.11-3,.5-6.43,3a15.77,15.77,0,0,1-2.1,1.68,3.89,3.89,0,0,0,.37-.31c-.84.43-1.7.83-2.54,1.28,1.68-1.83,4.18-2.49,5.93-4.24l-.11-.56a40.54,40.54,0,0,0,4.6-3.3,27.19,27.19,0,0,0-2.8,1.63c-.77.5-1.56,1-2.89,2-.56,0,1.23-1.48,1.5-1.67l-.26.51a23.43,23.43,0,0,0,4.21-2.56c.64-.45,1.31-.93,2.07-1.43A29.77,29.77,0,0,1,169,45.64c.65-.32.28-.08.18.09,3.27-2.2,7-3.12,10.34-5l-1.05.71a95.57,95.57,0,0,1,11.78-5v-.21c-.29,0,0-.1.56-.24s1.25-.23,1.77-.3h0c1.23-.4,2.45-.76,3.62-1s2.26-.59,3.27-.77A11,11,0,0,0,197,34c-.38.19-1.76.39-2.94.67s-2.15.58-1.78.78a16.33,16.33,0,0,0-3.78.8c-1.31.36-2.51.79-3.31.92,2.89-.47-1.8,1.06-2.18,1.53-1,0-4,1.4-3.84.86-.29.05.07,0,.64-.16a6.48,6.48,0,0,0,1.88-.69c1.37-.69,0-.33-1.24,0s-2.43.7-.71-.17c-1.12.49-2.31,1-3.57,1.54l-3.8,1.73c-1.27.63-2.54,1.26-3.74,1.91s-2.35,1.34-3.39,2c.84-.39,1.7-.74,2.55-1.11-2,.9-6.5,3.57-6.93,3.6,1.37-.9,3.06-1.81,4.85-2.9-.17-.53-4.42,2.43-4.76,2.31-1.61,1.27-3.18,2.6-4.73,3.93l2.27-1.4c-1.26,1.14-6.12,3.84-9.49,6.2,1.5-2,5.05-3.61,8.57-6.15,2.53-1.92-2,.45.42-1.29a12.72,12.72,0,0,0-3.11,2l-1.06.55c1.86-2,7.05-5.13,10.36-7.51a2.94,2.94,0,0,0-.57.57c1.41-.66,2.85-1.29,4.23-2s2.79-1.38,4.13-2.1a10.77,10.77,0,0,0-2.86,1.36,29.35,29.35,0,0,1,3.32-2c-2.68,1-.64-.14-2.33.52a32.84,32.84,0,0,1,5.15-2.3c1.19-.2-.77.67-.42.89a11.9,11.9,0,0,1,2.84-.93,18.78,18.78,0,0,0,3.59-1.24c-4.32,1.35.88-1.1,2.35-1.73l-.75.2a6.33,6.33,0,0,1,3.52-1.09c-1.75.68-3.51,1.09-2.89,1.31,1.18-.35,2.34-.76,3.67-1.21-.39.2-.78.38-1.16.6,1-.3,2-.53,2.95-.8s2-.5,3-.71c.88-.54,2.39-1.35,3.17-1.95a10.83,10.83,0,0,0,2.52-.27l2.44-.48-.65.21c2.75-.16,8.89-.51,9.43-.78.5.06-.14.22-1.14.42l-1.67.31c-.59.13-1.17.28-1.66.41-1,.26-1.57.49-1.07.58s2.09,0,5.53-.08c2.62,0,3.44-.11,4-.39a4,4,0,0,1,2.37-.6s-.18.08.12.18c2.31.31,2.59-.05,4.53.13a13.86,13.86,0,0,0-4.08-.55,8.5,8.5,0,0,1,2.95.17,30.36,30.36,0,0,0,3.75.54c-2.42.08,4.41,1.26,2.56,1.16,1.12.33,2.24.77,3.36,1.09s2.23.65,3.27,1L236.89,36A31.53,31.53,0,0,0,241,38.75a20,20,0,0,1,5.17,4.37c-.59-.69-1.84-1.71-2.74-2.56-1.42-.82-.29.13.61,1s1.59,1.64-.38.13c.84.63.23-.15-.65-.8-1.5-1.16-3.08-1.91-2.82-1.47a34.84,34.84,0,0,1,3.25,3.07l-1.26-.91a26.53,26.53,0,0,1,4.23,5.26c.19.09-.09-.5-.24-.8A27.43,27.43,0,0,1,251,57.17a35.35,35.35,0,0,1,.58,5.75,40,40,0,0,1-.28,5.17c.64.67.31,4.69-.72,8.93-.55,2.09-1.12,4.29-1.64,6.27a49.11,49.11,0,0,0-1.26,5c.06-1.41-.38-2.33-.92-1.64.29-1.08.55-3.37,1.3-5.76.33-.32,1.43-3.24,1.12-1.25.89-3.37.63-3.21.24-2.42s-1.05,2.1-1,1.05c-.49,1.85-.88,3.53-1.23,5.07s-.76,2.91-1.07,4.23-.62,2.55-1,3.73-.66,2.34-1,3.5l-.2,0c-.37,1.17-.79,2.32-1.19,3.48,1.31-2.7,2-2.26.14,1.18l.16-.44c-.59.94-1.27,2.5-2.07,4.18s-1.56,3.54-2.43,5l-.7,2.27c-1.68,3-2.55,2.69-3.54,3.41-.69,1.15-1.26,2.2-1.76,3.18s-1,1.88-1.39,2.75c-.83,1.75-1.5,3.37-2.4,5.06-.63.61-2.05,2.6-3.11,3.91s-1.71,2-.69.14c-2.48,4.13-.27,4.54-6,10.56l1-1.94c-4.57,6.43-11,15.65-13.51,18.22.8-3-7.12,6.8-9,7.07.47-.12-1.29,2.22-1.44,2.65a6.55,6.55,0,0,0-1.81,2.19c2.11-2.2-.32,2.49,2.93-2.35A43.83,43.83,0,0,1,190,176.58l-.35-.41,3.32-3.86c-.63.15,1-1.87,1.58-2.82-6.18,7.19-.18-1.74-6.21,5.85-.32.94,0,.38-1.53,2.42.73-.93.58-1.32-.62.16l-.82,1.69c-2.81,2.08,3.07-4.72.78-2.86,2-3.17,5.92-8.36,4.63-7.84-4,4.6-2.46,5.07-6.71,9.85l-.65.35a15.4,15.4,0,0,0-1.68,3.58c-.2,0-.65.35-1.59,1.44-1.86,3.38-3.33,5.43-4.95,8.61,5.41-7.59,5.4-5.87,11-13.66-.77,1.31-4.89,6.67-4.59,7.46l-.35-.41a72.35,72.35,0,0,1-6.1,8.16l1.27-2c-3,4.28-6,6.23-7.94,10a29.82,29.82,0,0,0,2.17-2.77,83.82,83.82,0,0,1-5.54,7L162,211.7c-.17-.2-2.57,2.76-1.74,1.06-3,3.13-3.71,5.21-5.18,7.24-3.22,3.11,2.22-3.15,1.93-3.94a106.16,106.16,0,0,0-9.73,12.78c.87-.91,1.32-1.32,1.38-1.19a25.37,25.37,0,0,0-2.63,3l-.32,1c-1.62,1.63-1.57,1.26-.55-.42a14.67,14.67,0,0,0-1,1.36l-1.56,2.18A30.1,30.1,0,0,1,139,239c.88-1.25,1.82-2.51,2.78-3.75l2.57-3.22a43.3,43.3,0,0,0,2.78-3.61c-1.16,1.58-2.1,2.7-2.94,3.64-.56.6-1.07,1.16-1.56,1.7L141,235.58c-1.12,1.19-2.26,2.4-3.66,4l-.54.64-.28.33-.15.17,0,.05-.05,0-.1-.06-1.63-1.13c-1.15-.78-2.44-1.64-3.95-2.6-.08-.26,1.94.74-.27-.78-2.58-1.68-3-1.78-3-1.53s.42.85-.5.42a58.26,58.26,0,0,1,8.83,6.58l-1.18-.47c-.19-.3-3-2.25-3.81-3-.28,0-.58.06-.89.08.26-.2-.71-1.2-2.11-2.37-.34-.27-.7-.57-1.08-.89s-.53-.44-.81-.65A19.43,19.43,0,0,0,124,233.2c2,2,1.37,1.54,1.57,2.56a11.3,11.3,0,0,1-3.37-2.44,14.91,14.91,0,0,0-3.64-2.67c.38,0,3.45,2.21,1,.11-2.12-1.67-2.13-1.06-3.66-2,1.93.83,1.76.2,3.88,1.05a60.31,60.31,0,0,0,5.42,3.74l-2.92-2.68c3.31,2.31,2.72,1.24,3.1,1.28a18.83,18.83,0,0,0-4.7-3.26,10.32,10.32,0,0,1-3.36-2c-1.92-1,3.24,2.59.36.85-3.23-2.59-1-.28-4.74-3l.75.3c-.91-1.13-2.24-1.72-3.55-2.72-1.5-1,.4,2.74-5.32-2.07.37.13.53.15.57.1,2.8.46,5.58.91,8.38,1.26A237,237,0,0,1,95.42,205c-.9-2,5,3.65,4.89,3,.91.94,1.85,1.85,2.8,2.76-.44.16-6.17-5.46-4-2.58,5.31,4.48,7.44,6.86,12.95,10.54-.5-1-2.18-2.36-4.08-3.9a39.19,39.19,0,0,1-5.37-5,39.42,39.42,0,0,0,3.68,3l-4.54-4.26L97,204l-.89-.55c2.18,2.17,3.71,3.65,3.89,3.87-3-2.81-5.79-4.84-6.41-4.58l.51.52-1.21-.88Zm39.9-134.88a2,2,0,0,0-.46-.43C130.48,65.08,130.45,64.9,130.79,65.42ZM149,217.17,138.7,229.43l4.5-4.2a20.1,20.1,0,0,1,2.64-2.19c.84-.42-.38,1.46-5.38,7.65l-.64.93c.37-.4.83-.92,1.28-1.44l1.41-1.69c1-1.21,2.06-2.56,3.08-3.89.68-1.19,2.07-3.74,3.27-6,.6-1.13,1.15-2.18,1.55-2.95a6,6,0,0,0,.58-1.27c-.87.53-1.45,1.86-2.63,3.15Zm4-1.71c2.05-2.31,1.39-1.94,1.5-2.47l-2,2.59C152.91,215.3,153.11,215.19,153.07,215.46Zm1.19-2.48a5,5,0,0,1-.54.59Zm-43,4.38.25.19-1.65-1.48A18,18,0,0,0,111.22,217.36Zm4.46,4.45.86.11L115,220.56A2.17,2.17,0,0,0,115.68,221.81Zm16,13.78a19.12,19.12,0,0,1,3.3,1.56,5.42,5.42,0,0,0,.85.41c.2-.31.38-.6.53-.87a3.11,3.11,0,0,0,.48-1.19c.13-.42-.5.26-1.18,1l-3.14-2.21c0,.07-.29,0-.69-.16,1.1.85,1.88,1.57,1.38,1.7a6.5,6.5,0,0,0-2.95-2.08,9.23,9.23,0,0,1-1.39-.54,6.46,6.46,0,0,1-.87-.5,9.73,9.73,0,0,1-.93-.68c-.29-.08-.25,0,0,.29s.28.27.48.44.42.35.74.58A36.53,36.53,0,0,0,131.7,235.59ZM208.42,34.9a8.69,8.69,0,0,0-.92-.37l2.48-.32c4.47.27,7.83,1.61,11.87,1.61a11.43,11.43,0,0,1,3.46,1.81c-.85-.3-1.68-.47-2.35-.69l-1.87-.26-1.54-.15c-.92-.11-1.63-.22-2.22-.34a9.14,9.14,0,0,1-2.37-.64C213.83,35.09,212.92,34.56,208.42,34.9Zm38.82,24a1.35,1.35,0,0,0-.23-.57,33.18,33.18,0,0,1,.75,13.07c-.25,1.94-.59,3.73-1,5.35s-.82,3-1.19,4.31c.71-.85,2.42-5.32,3-7.56,0,.7,0,1.4,0,2.11l-.7,1.13-.5,3.5c.6-.85,1.35-3.59,2-5.42,0-.1.16-1.68.26-3.48a34.55,34.55,0,0,0,0-4.67c-.26,1.63-.61,3.23-1,4.81a27.66,27.66,0,0,0,.68-4.67,32.78,32.78,0,0,0-.05-5.7,6.88,6.88,0,0,0-.3,2.26,6.13,6.13,0,0,0,.16,2.7c-.22.25-.23-.9-.31-1.7s-.18-1.27-.42.32c-.13-1.89-.21-4.31-.54-6.6a27.16,27.16,0,0,0-1.4-5.74l.4-.71a4.64,4.64,0,0,0-1.53-2.27,10.8,10.8,0,0,1-2-2.42c1.49,1.71,1.46,1.52,1.43,1.15s-.16-.83.92.71a3.46,3.46,0,0,1-.17-1A6.46,6.46,0,0,0,244,45.43a10.7,10.7,0,0,1-2.7-2.34,6,6,0,0,0-2.78-2c-1.52-1.28,2.1.69-1.16-1.46a11,11,0,0,0-3.65-1.17c-.56,0-.66.2-.91.43a27.1,27.1,0,0,0,3.89,1.6A9.6,9.6,0,0,1,240,42.28a34.93,34.93,0,0,0-6.21-2.44,25.64,25.64,0,0,0,2.43,1.41A12.14,12.14,0,0,0,233,40.13l-1.47-.3c3.33,1.37,6,3.16,6.27,3.7l-.57,0A18.85,18.85,0,0,0,240.67,46c2.36,2,4.38,4.58,4.31,5.4a11.51,11.51,0,0,0-.83-.88A18.84,18.84,0,0,1,246,54.16c.11.28.21.57.33.87s.19.66.29,1a12.48,12.48,0,0,1,.31,1.27C247.06,57.8,247.16,58.32,247.24,58.93Zm-60.6,111.25c2.38-1.17,4.81-2.61,11.69-11.46l-.49.73c4.1-4,6.18-9.17,11-14.11a36.4,36.4,0,0,0-3.17,6.22l2-3c-.14,1.15,1.84-1.85,3.46-3.93l-.85,2.29a30.26,30.26,0,0,0-3.53,4.3c.5-.74-4.07,3.67-6.05,6.47.61,0,5-5.74,3.57-2.72,1.51-2.43,2.12-2.4,3.83-4.85-1.51,2.45.08,1-1,2.86L210,149c.21,0-4.12,5.83-1.17,3,1-1.69,4.5-5.63,4.13-6h.2c2.33-2.85.41-1.72,3.36-5.15-.18-.2-.84.37-1.77,1.7a26.14,26.14,0,0,1-2.24,3.82c-1.09.75,2.12-2.66.37-1.53-.85.56-4.31,6-3.67,3.94l2.34-2.82c-.36-.4,1.28-2.48.9-2.68,1.21-1.88,2.93-3.23,3.94-5.33.29-1-1.18,0,1.26-2.9,2.4-1.89,7.26-9.15,8.92-12,.43-.86.87-1.71,1.27-2.59-.37.06-3,4.59-2.29,2.84.79-1.26,1.57-2.52,2.3-3.81v.4a36.68,36.68,0,0,0,2-3.82c-.41,1.37-2.24,4-1.44,3.76a30,30,0,0,0,2.48-3.58c-.19.39-.34.72-.24.72,2.38-3.54,1.54-3.86,1.93-4.86,1.52-4-2.73,3.37-2.94,2.61,1-1.81,2-3.6,2.95-5.43s1.9-3.65,2.77-5.51c-.29,1-.67,2-.27,1.79,1.62-2.58.42.15,2.3-3.69-.41,0,.1-1.28.78-2.9s1.49-3.63,1.9-5.08c.42-.59.64-.95.65-.8a10.38,10.38,0,0,1-.87,2.2,5,5,0,0,0,1.32-2.22c.47-1.17,1-2.47,1.25-3.16s.67-2.21.84-3.13c-.63,1.09-.74.48-.09-2.09l0-.18c-.39,1-.83,2.17-1.31,3.36s-1.07,2.39-1.59,3.57-1,2.31-1.43,3.3a17.34,17.34,0,0,0-.9,2.54l.09-.8c-1.17,2.22-2.23,4.73-3.14,7a14.67,14.67,0,0,1-2.81,4.85c-.22-.37-.56.84-1,.51-.46,1.14-1,2.26-1.48,3.4l.18-.78c-1,1.83-2,3.66-3.13,5.44v-.19c-.59,1.39-1.11,2.64-1.58,3.76l-1.32,3c.19.13.36,0-.05.94a13.66,13.66,0,0,1-1.28,2.09h0c-.94,1.23-1.8,1.9-3,3.39,1.1-1.63,2.22-3.23,3.29-4.87-.06-.62-.65-.41-2.52,1.78.66-1,.69-1.54-.18-.38,0,.19-2,3.29-.92,2.32-3.08,4.66-9.26,11.27-13.92,18.37,3.41-5-3.43,3.51.62-1.89-3.41,3.31-2,3.57-5.09,7.26-.43.19,1.66-2,2-3.16-5.17,6.09-7.66,11.16-12.67,17.07l-.58,0Zm-9.14,12.31-2.72,3.64.29-.34-2.51,3.74c1.88-2,3.43-3.1,1.21.05,0-.37-.85.35-.1-.77-1.85,1.83-5.63,6.06-4.13,5.37,2.57-4.3,1.46-.31,3.5-3.67-.94,1.93-2.4,3.41-3.48,5.08,1-1.85-1-.2-3.09,2.09-.76,1.12-3.13,3.88-4.38,5.74.85-.34-.17,1.34,2.2-1.42a30.57,30.57,0,0,1-3.6,4.43c.52-.76,1.48-2,1.28-2.06a35.2,35.2,0,0,0-3.08,2.92l-1.39,1.84a1.76,1.76,0,0,1,.47-.34l-1.3,2.24c2-2.79,1.15-1.1,1.33-.9-.35-.4-1.43,1.67-2.15,2.59l2-1.63c-.56,1.13-3,3.12-2.2,3,3.55-4,4.77-5.71,7.69-9.6l-1.57,1.27c3.2-4.47,2.7-2.17,6.54-7,1.3-2.24,5.79-7.22,5.26-7.81-.3.75,3-2.55,4-4.41.9-2.27,5.25-7.82,3.65-6.36-1.2,1.47-2.5,3.72-3.83,4.61l2.21-3-1.83,1.64C178.68,182.56,178.31,182.41,177.5,182.49ZM126.59,223l-.1-.1.12.1Z"/><path class="cls-1" d="M157.87,53.19c-.8.7-3,2.14-2.33,2.18-.15-.16.81-.82,1.62-1.38S158.64,53,157.87,53.19Z"/><path class="cls-1" d="M155,54.55c-.09.19.11.26-.86.92l2.62-1.88Z"/><path class="cls-1" d="M150.66,54a25.8,25.8,0,0,1-4.12,3.53c-1.42-.24,3.32-2.8,3.78-4.26-4.07,2.73-4.7,4.39-7.82,6.88A45,45,0,0,0,147.37,57C149.21,55.66,150.83,54.38,150.66,54Z"/><path class="cls-1" d="M151.7,51.7l-2.1,1.75.25-.11c.71-.58,1.4-1.18,2.11-1.74Z"/><path class="cls-1" d="M207.52,40.93c.23.34,1.75,0,2.58-.07A10.44,10.44,0,0,0,207.52,40.93Z"/><path class="cls-1" d="M80.43,48.85a46.16,46.16,0,0,1,18-.57l-.94-.2-1-.09L94.6,47.8a30,30,0,0,0-4.07-.14A48.92,48.92,0,0,0,80.43,48.85Z"/><path class="cls-1" d="M243.23,74.34a38.15,38.15,0,0,0,.61-6.29c0-1.83,0-3.66-.14-6.06-.22,3.17-.27,5.35-.33,7.47A18.53,18.53,0,0,1,242,76.37C242.44,75.7,242.84,75,243.23,74.34Z"/><path class="cls-1" d="M241.1,72c.39-.35.36.64.29,1.64s-.21,2,.11,1.73a6.73,6.73,0,0,0,.25-2.51,6.35,6.35,0,0,1,.27-2.2Z"/><path class="cls-1" d="M247.7,47c.44.5.92,1,1.32,1.54a15.07,15.07,0,0,0-.94-1.32Z"/><polygon class="cls-1" points="233.98 94.63 234.09 94.04 232.84 96.38 233.98 94.63"/><path class="cls-1" d="M234.2,93.46l-.11.58Z"/><path class="cls-1" d="M250.17,48.59a24.31,24.31,0,0,0-1.52-2.73c-.38-.35-.75-.72-1.14-1A24,24,0,0,1,250.17,48.59Z"/><path class="cls-1" d="M249.25,72.8q.13-1.14.21-2.28C249.45,71,248.61,74,249.25,72.8Z"/><polygon class="cls-1" points="226.36 108.94 225.24 111.31 225.43 111.11 226.54 108.75 226.36 108.94"/><path class="cls-1" d="M245.83,90.28c1-1.3-1.55,4.27,0,1.41C246.84,89,246.18,90,245.83,90.28Z"/><path class="cls-1" d="M228.22,118.19a7.23,7.23,0,0,0-.53,1C227.89,118.79,228.07,118.47,228.22,118.19Z"/><path class="cls-1" d="M228.22,118.19a22.62,22.62,0,0,0,1.7-2.65A11.22,11.22,0,0,0,228.22,118.19Z"/><path class="cls-1" d="M220.89,129.47l.63-.85c-.43,1-.16.58.24-.32.63-.94.47-1,.46-1.14l.25-.67-.39.85C221.08,128.78,220.49,129.66,220.89,129.47Z"/><path class="cls-1" d="M184.14,163.93c2.6-2.94,3.3-3.68,3.45-3.29,2.43-2.82,1.58-2.77,2.87-4.61C187.87,159.36,187.2,159.92,184.14,163.93Z"/><path class="cls-1" d="M190.46,156l.9-1.16C191,155.34,190.7,155.7,190.46,156Z"/><polygon class="cls-1" points="232.92 118.4 232.08 120.81 232.5 119.99 232.92 118.4"/><path class="cls-1" d="M180.34,168.35a20.78,20.78,0,0,1,1.65-1.84C181.84,166.12,179.87,168.9,180.34,168.35Z"/><path class="cls-1" d="M195.41,161.06a29.2,29.2,0,0,0,2.6-2.95C197.06,159.22,195.79,159.73,195.41,161.06Z"/><path class="cls-1" d="M174.45,178.06c.47-.55,1.37-1.27,1.3-.7C176.27,176.42,176.67,174.9,174.45,178.06Z"/><polygon class="cls-1" points="190.86 166.6 191.31 166.24 192.81 164.01 190.86 166.6"/><path class="cls-1" d="M201.07,162.53c1.56-2.63-3.83,3.08-.85-1.21-4.56,4.94.81,0-2.36,3.79C199.8,163,201.12,162.19,201.07,162.53Z"/><path class="cls-1" d="M197.86,165.11c-.28.32-.57.67-.89,1Z"/><path class="cls-1" d="M169,196.47a10.21,10.21,0,0,0,.52-.88C169.37,195.88,169.2,196.17,169,196.47Z"/><path class="cls-1" d="M188.22,177.65l2.33-3.94c-1.55,2.63-6.35,8.53-5.54,8.57a31.4,31.4,0,0,0,3.92-5.37Z"/><path class="cls-1" d="M146.42,210.68l1-1.69-1.6,1.86C146.37,210.36,146,211.65,146.42,210.68Z"/><path class="cls-1" d="M145.55,211.21l.3-.36A2.9,2.9,0,0,0,145.55,211.21Z"/><path class="cls-1" d="M174.17,189.61a33.08,33.08,0,0,0,2.42-3.14C176.15,186.82,173.77,189.58,174.17,189.61Z"/><polygon class="cls-1" points="138.51 221.99 140.45 219.41 138.28 222.18 138.51 221.99"/><path class="cls-1" d="M133.92,225.58l0-.16a.58.58,0,0,1-.25.11v.16A.57.57,0,0,0,133.92,225.58Z"/><path class="cls-1" d="M150.54,225.73c1.43-1.66,2-3.35,1.59-3l-2.65,3.32c1.08-.52.73-.92,2.38-2.76Z"/><path class="cls-1" d="M56.86,153.89c.89.47,3.87,4,3.8,4.42-.53-.36-2.32-2.13-1.41-.82l3.1,2.13c2.91,3.95-3.32-2-5.17-3.56,3.28,3.74,4.68,4.45,8.25,8.34a17.88,17.88,0,0,1-1.93-2.79c.31-.53,3.44,3.27,5.86,5.8-1.32-1.81-.29-1,1,0a3.6,3.6,0,0,0,.49.4l.44.34-.29-.3c.07,0,.06-.15-.06-.45A69.68,69.68,0,0,1,66.36,162c.56,2-4.54-4.6-6.37-6.17l-1.93-2-.7-.76c-.06-.22.23-.1,1.44.94-1-.85-3.93-4.12-3.88-3.61-2.22-2.43-4.37-4.84-6.39-7.27a4.35,4.35,0,0,1-.39-.72c-.26-.22-.33-.23-.34-.17a62.16,62.16,0,0,1-10.23-16.49,46.22,46.22,0,0,1-2.82-18.48c-.14,1.91-.35,3.57-.34,5.53-.39-1.45-.39-.65-.35.42s.18,2.39-.17,2a13.6,13.6,0,0,1-.29-4.45c-.32-.44-.54,1.25-.9,1.08a12.76,12.76,0,0,0,.85,5.28,29.65,29.65,0,0,1,1.51,4.93c-.39-.09-1.11-1.42-.22,1.56l-.29-.74a19.71,19.71,0,0,1,1.22,4,4.52,4.52,0,0,0,1.43,2.48l-.51.15c.67,1,1.52,2.43,2.47,3.91s1.93,3,2.7,4l-.17-.07c1.16,1.42,1.93,2.32,2.5,3s.89,1.1,1.26,1.56a62.26,62.26,0,0,0,4.34,5.11c-1-.86-2-1.72-3-2.59,1.69,2.42,2.65,2.48,4,4.13-.18-.05-.15.58-1.55-.88,2.53,2.42,5.15,4.82,7.8,7.25C59.05,156.6,57,154.33,56.86,153.89Z"/><path class="cls-1" d="M65.43,164.4c.36.43.79.91,1.32,1.46Z"/><path class="cls-1" d="M34.92,104.56c-.09.91-.14,1.82-.17,2.73C34.81,106.45,34.87,105.57,34.92,104.56Z"/><path class="cls-1" d="M76.7,174.8c-1.08-1.53,1.22.73,1.59.83l-4.54-4.8c-.12.16-.74-.17-.78.06Z"/><path class="cls-1" d="M72.73,169.17a6.43,6.43,0,0,1-1.45-1l2.47,2.65C73.85,170.7,73.67,170.31,72.73,169.17Z"/><polygon class="cls-1" points="65.28 177.08 64.46 176.23 63.13 175.03 65.28 177.08"/><path class="cls-1" d="M53.42,162.9a21.22,21.22,0,0,0,3.36,3.67C54.69,164.3,55.68,165.21,53.42,162.9Z"/><polygon class="cls-1" points="53.56 167.94 51.42 165.87 51.56 166.11 53.56 167.94"/><path class="cls-1" d="M37.81,84.08l.5-1.25C38.06,83.39,37.92,83.77,37.81,84.08Z"/><path class="cls-1" d="M33.18,107c.22-1.61.39-2.14.47-2.08a7.29,7.29,0,0,1,.12,1.55c0,1.61.24,3.73.61,2.74-.07-1.15-.13-2.3-.13-3.46l.18.3c.07-1.4.17-2.81.33-4.22-.45.82-.55,1.48-.89,1.25.39-2.83.63-3.25.79-3.49s.37-.28,1-2.27c.4-2.07.87-4.13,1.47-6.15l0,.52a3.36,3.36,0,0,0,.16-1,63,63,0,0,1,9.3-19c2-3.27-1.78,1.33-.53-1.29-.66.93-1.47,1.89-2.19,3s-1.43,2.16-2,3.16c-1.16,2-1.88,3.69-1.65,4,0-.18-.07-.55-.55.25-.2.89-.4,1.77-.56,2.66.38-.75.81-1.48,1.22-2.2-.32,1.31-1.34,3.89-2.24,6.38s-1.7,4.85-2.07,5.56a28.86,28.86,0,0,0,.63-3.87A7.83,7.83,0,0,1,37,87.64a28.54,28.54,0,0,1,1.41-3.35c-.29.21-1.06,1.26-.57-.21a75.12,75.12,0,0,0-3.46,11.14A47.14,47.14,0,0,0,33.18,107Z"/><path class="cls-1" d="M79.13,48.59l0,.08C79.21,48.61,79.25,48.57,79.13,48.59Z"/><path class="cls-1" d="M76.53,49.15c-1.17.57-2.29,1.26-3.42,1.87l2.81-1c.94-.31,1.91-.51,2.86-.77l.3-.6a13.37,13.37,0,0,1-3.27,1A6.43,6.43,0,0,1,76.53,49.15Z"/><path class="cls-1" d="M69.17,53.09c2.73-1.39,2.38-1.89.71-1.47,2.54-1.36,1.6,0,3.24-1.26-.1-.17-1,0-1.89.44s-1.88.91-2.23,1.11Z"/><path class="cls-1" d="M50.58,65.89l.45-.78a18.05,18.05,0,0,0-1.53,1.5A9.65,9.65,0,0,1,50.58,65.89Z"/><path class="cls-1" d="M51,65.11l1.55-1.45a1.22,1.22,0,0,0-.79.1Z"/><path class="cls-1" d="M56.9,60.13c.76-.49,1.58-1.05,2.57-1.75Z"/><path class="cls-1" d="M55,61.58h.1c.62-.48,1.22-1,1.85-1.46Z"/><path class="cls-1" d="M52.58,63.66a1.45,1.45,0,0,0,1-.21,10.44,10.44,0,0,0,2.33-1.76l-.87-.1C54.23,62.28,53.34,62.89,52.58,63.66Z"/><path class="cls-1" d="M39.45,151.3c-.64-.67-1.3-1.32-1.94-2l.14.27,1.94,2Z"/><path class="cls-1" d="M30.34,137.85l-1.05-1.42A6.57,6.57,0,0,0,30.34,137.85Z"/><path class="cls-1" d="M22.64,127.26c-.63-3.58,1.95,4.6.24-1.85.23-.66,1.45,2.21,2.41,5.13-.43-.09-1.26-2.76-.95-.83,1.09,1.8,1.18,2.58,1.39,1.73a16.67,16.67,0,0,0,1.9,2.93c.51.65,1,1.15,1.66,2.06a40.71,40.71,0,0,1-3.44-7.69c-1.11-3.12-1.9-6.45-2.67-8.93-1.08-2.71-1.71-.89-2.66-.75a18.7,18.7,0,0,0,.61,4.25C21.58,125.3,22.3,127.21,22.64,127.26Z"/><path class="cls-1" d="M23.72,133a16.69,16.69,0,0,0,1.41,2.92C25.31,135.52,24.25,134.27,23.72,133Z"/><path class="cls-1" d="M27.55,96.7c-.1-.3.29-3-.05-2.45-.25,1.34-.43,2.7-.6,4A3.4,3.4,0,0,1,27.55,96.7Z"/><path class="cls-1" d="M26.71,100.07l.19-1.77C26.83,98.74,26.76,99.29,26.71,100.07Z"/><path class="cls-1" d="M27.67,96.53l-.12.17C27.57,96.77,27.6,96.76,27.67,96.53Z"/><path class="cls-1" d="M64.32,55.43c.09.25,1.44-.62,2.12-1.06A18.19,18.19,0,0,0,64.32,55.43Z"/><path class="cls-1" d="M119.11,59.2l.77,1.16A5.28,5.28,0,0,0,119.11,59.2Z"/><path class="cls-1" d="M135.44,76.68a.81.81,0,0,1,.18.32A.62.62,0,0,0,135.44,76.68Z"/><path class="cls-1" d="M135.62,77a13.09,13.09,0,0,1,.34,2.9,24.27,24.27,0,0,0,.14,3l-.1-.17a23.79,23.79,0,0,1,0,2.39,29.18,29.18,0,0,0,.15-4.46A13.39,13.39,0,0,0,135.62,77Z"/></svg>
