<svg id="Layer_1" data-name="Layer 1" xmlns="http://www.w3.org/2000/svg" viewBox="0 0 301 210"><defs><style>.cls-1{fill:#b56666;}</style></defs><path class="cls-1" d="M96.74,124.62c.07-.05-.32-.2-.39-.24C96.38,124.51,96.83,124.68,96.74,124.62Z"/><path class="cls-1" d="M95.83,126.49l0-.18a2.71,2.71,0,0,1-.24.52C95.66,126.72,95.75,126.61,95.83,126.49Z"/><path class="cls-1" d="M93.27,126.72c.2.74,1,0,1.44.14l.1.16a5.79,5.79,0,0,0,.12-.6C94.45,126.6,93.66,127,93.27,126.72Z"/><path class="cls-1" d="M92.41,124.94c0,.28-.31.16.21.16,0,0,0-.06,0-.08A.42.42,0,0,1,92.41,124.94Z"/><path class="cls-1" d="M92.59,125c.21,0-.06-.26,0,0Z"/><path class="cls-1" d="M91.54,124.75a3.07,3.07,0,0,0,.42-.07c0-.17-.25-.34-.09-.4C91.5,124.25,91.48,124.42,91.54,124.75Z"/><path class="cls-1" d="M91,125.06h.22C91.22,125,91.18,124.94,91,125.06Z"/><path class="cls-1" d="M91.67,125a3.46,3.46,0,0,1-.46,0c0,.13-.1.34.2,0C91.29,125.24,91.45,125.1,91.67,125Z"/><path class="cls-1" d="M91.82,125.22c.12.23.29.39-.11.5C92.34,125.86,92.41,125.36,91.82,125.22Z"/><path class="cls-1" d="M93,127.43l.29.25.29-.23C93.46,127.57,93,127.21,93,127.43Z"/><path class="cls-1" d="M89.75,123.2c-.11.1-.12.41-.21.58l.35,0C89.82,123.64,89.64,123.39,89.75,123.2Z"/><path class="cls-1" d="M89.54,123.78l-.53-.06C89.33,124,89.46,123.93,89.54,123.78Z"/><path class="cls-1" d="M90.55,125.72a8.06,8.06,0,0,0,.88-.17,8,8,0,0,1-1,.1Z"/><polygon class="cls-1" points="88.32 122.09 88.76 121.98 88.04 122.09 88.32 122.09"/><path class="cls-1" d="M87.25,121.34c.35-.1,0-.58.35-.58a2.24,2.24,0,0,0-1.12-.16A1.12,1.12,0,0,1,87.25,121.34Z"/><path class="cls-1" d="M85.88,120.58a3.83,3.83,0,0,0,.6,0A1.32,1.32,0,0,0,85.88,120.58Z"/><path class="cls-1" d="M88.41,123.17a.67.67,0,0,0,0-.58l-.11.46Z"/><path class="cls-1" d="M88.26,123.06h0l-.32-.28Z"/><path class="cls-1" d="M88.45,123.2l0,0S88.4,123.23,88.45,123.2Z"/><path class="cls-1" d="M89.75,124.77c-.35.06-1-.08-.72.55C89.35,125.19,89.21,124.85,89.75,124.77Z"/><path class="cls-1" d="M88.31,123.77l.35.38c.06-.09.09-.28.27-.29Z"/><polygon class="cls-1" points="88.03 123.72 88.31 123.77 88.18 123.63 88.03 123.72"/><path class="cls-1" d="M86.47,121.48a1.53,1.53,0,0,1-.81-.29,4.58,4.58,0,0,0,.72.68C86.5,121.79,86.76,121.68,86.47,121.48Z"/><path class="cls-1" d="M87.34,122.29h0S87.3,122.35,87.34,122.29Z"/><path class="cls-1" d="M82.93,119.58v.1l0-.07Z"/><path class="cls-1" d="M86.38,122a.47.47,0,0,0,.51.19,3.3,3.3,0,0,1-.51-.29S86.3,121.94,86.38,122Z"/><path class="cls-1" d="M85,120.25a5.05,5.05,0,0,0,.25.45C85.25,120.51,85.13,120.19,85,120.25Z"/><path class="cls-1" d="M87.3,122.14h0C87.33,122,87.31,122.07,87.3,122.14Z"/><path class="cls-1" d="M87.3,122.14a1.12,1.12,0,0,0-.41,0,1.52,1.52,0,0,0,.4.12A.34.34,0,0,1,87.3,122.14Z"/><path class="cls-1" d="M81,121.71a.69.69,0,0,1,1.19.17c.57,0,.93-1.34.77-2.2-.09.14-.16.28-.79.26.11.28.93,1,.34,1.1-.75-.12-.48-.38-.73-.72,0,.29-.25.36-.55.45s-.64.24-.7.6c.22,0,.45,0,.66,0C81.14,121.47,80.87,121.54,81,121.71Z"/><path class="cls-1" d="M83.93,120.25l.24.07a2.29,2.29,0,0,1-.5-.89c-.45,0-.6.08-.68.18.36.18.7.42,1,.63Z"/><path class="cls-1" d="M85.11,120.89c-.4.26-1,.11-.93.69.59.34.59,0,1,0-1-.53.4,0-.13-.67a2.72,2.72,0,0,1,.57.25,4.3,4.3,0,0,1-.38-.49v0h0c0,.07,0,.11,0,.05h0l-.13.1c-.23-.25,0-.12.13-.1s0,0,.05-.05h0c-.37-.14-.74-.29-1.12-.41A4.74,4.74,0,0,0,85.11,120.89Z"/><path class="cls-1" d="M88.06,125.77a.11.11,0,0,1,0-.1C88,125.68,88,125.69,88.06,125.77Z"/><path class="cls-1" d="M87.87,125.32c.1,0,.25-.11.41.06s-.12.17-.19.29c.18,0,.59,0,.34-.39h-.09c-.24-.36-.33-1.1-.24-1.11A3.13,3.13,0,0,0,87.87,125.32Z"/><path class="cls-1" d="M86.49,123.2l-.83-.36.14.57.11-.2C86.25,123.58,86.34,123.3,86.49,123.2Z"/><polygon class="cls-1" points="82.92 119.34 83.24 118.99 82.45 119.33 82.92 119.34"/><polygon class="cls-1" points="81.73 118.88 81.92 118.53 81.52 118.63 81.73 118.88"/><path class="cls-1" d="M47.79,112.51l-.06-.27A1.1,1.1,0,0,0,47.79,112.51Z"/><path class="cls-1" d="M47.42,114.28l.18.08C47.51,114.26,47.44,114.21,47.42,114.28Z"/><path class="cls-1" d="M53.79,124.7c-.53-.07-1.22-.28-.92,0l.36.28A.82.82,0,0,1,53.79,124.7Z"/><path class="cls-1" d="M46.61,129.46l-.19.28.49-.3A1.51,1.51,0,0,1,46.61,129.46Z"/><path class="cls-1" d="M44.36,131.34l.51-1A8.47,8.47,0,0,0,44.36,131.34Z"/><path class="cls-1" d="M49.22,102.7l-.38-.37C48.76,102.78,49,102.62,49.22,102.7Z"/><path class="cls-1" d="M69.22,117.88a2,2,0,0,0-.89-.11C68.78,117.92,69.17,118.26,69.22,117.88Z"/><path class="cls-1" d="M52.17,114.11c-.05-.17-.12-.25-.21-.27C52,114,52.06,114.12,52.17,114.11Z"/><path class="cls-1" d="M67.35,118a1.59,1.59,0,0,0,.2.07,2.06,2.06,0,0,1,.78-.27A.78.78,0,0,0,67.35,118Z"/><path class="cls-1" d="M55.55,67.35s0,0,.07-.07S55.55,67.3,55.55,67.35Z"/><path class="cls-1" d="M61.39,57.6a2.38,2.38,0,0,1,0,.43A.73.73,0,0,0,61.39,57.6Z"/><path class="cls-1" d="M76.86,117.41c.27,0,0,0,0,0Z"/><path class="cls-1" d="M77.81,119.31a.26.26,0,0,0-.14.19A.33.33,0,0,1,77.81,119.31Z"/><path class="cls-1" d="M65.69,121.23h0C65.77,121.29,65.75,121.28,65.69,121.23Z"/><path class="cls-1" d="M77.22,117.66a1,1,0,0,0-.31-.17A1.72,1.72,0,0,0,77.22,117.66Z"/><path class="cls-1" d="M77.2,117.45l.23.07C77.47,117.46,77.45,117.41,77.2,117.45Z"/><path class="cls-1" d="M76.49,117.38a1.19,1.19,0,0,1,.42.11s-.07-.07,0-.08Z"/><path class="cls-1" d="M53.65,86.55l.05,0C53.56,86.24,53.57,86.35,53.65,86.55Z"/><polygon class="cls-1" points="49.79 133.87 49.83 133.8 49.8 133.81 49.79 133.87"/><path class="cls-1" d="M48.62,135.37c.72-1.39.88-1.44,1.17-1.56,0-.58.09-1.2.18-1.83C49.58,133.05,49.13,134.17,48.62,135.37Z"/><path class="cls-1" d="M48.51,108.22l-.5.51c-.49-.82-.18-1.29-.82-.85,1.32.34-.3,2.29,1,2.63l-.35.33c0-.11,0-.14,0-.25-.78.62.85.74.48,1.67-.17.31-.41.51-.53.25l.19.81c-.07.21-.29.11-.22-.1l-.12,1.16,0,0a5.64,5.64,0,0,1,.53.85c-.25.25-.12-.18-.3-.13l.2.69c-.4.19-.63-.4-.49-.83-1.45.32.23.59-.81,1.7l0-.62c-.84.23-.66.74-1.26,1.32.27-.11,1.45-1.1,1.65-.35a.72.72,0,0,0,0,.84c-.47-.1-.43.29-.49.74l-.62-.16c.08.53.41.55.63.9-.17.53-.68.54-1.12.58-.28.85.91-.44.81.62-.39.67-.24,1.23,0,2.17-.33.46-.37-.17-.59,0l.41.56c0,.1-.18,0-.25,0,.09.51.61.17.62,1,.33.13,0,.49-.38,1.06s-.78,1.36-.45,1.72c-.26.35-.41,0-.7.23a7.14,7.14,0,0,0,.24,1.14,1.32,1.32,0,0,0,.49.61l-.72,1.37c.75-1.21,1.25-.83,1.74-.87l.77-1.05a1.72,1.72,0,0,0,.28.35,3,3,0,0,1-.75.68l.16-.05a3.12,3.12,0,0,1-1.25,1.24l.6-.89a5.39,5.39,0,0,0-1.44,1c.07,0,.12.07.13.19a.82.82,0,0,0-.32.24c-.1.12.06.09.23.08l-1,1.25.36-.31-1,2.51c.69.17,2.05-1.07,2.21-.45-.73.92-1.31,2-2.28,3.52.57-1.07.54-1.23.43-1.35s-.3-.21-.09-.86a2.83,2.83,0,0,1-.75,1.24,1.87,1.87,0,0,0,.48.57,9.06,9.06,0,0,0-1.11,2.34c.67-1.17.92-1.44,1-1.38s-.08.64.19.38A8.38,8.38,0,0,0,44,138a11.8,11.8,0,0,1-1.37,2.07.06.06,0,0,1-.07,0s0-.06,0-.22a5,5,0,0,0-.25.6c0,.12,0,.17,0,.17.33-.36,1-1.42,1.58-2.24s1-1.43.88-1a1.89,1.89,0,0,0-.5.64c.81-1.16,1.36-1.34.79-.42l-.18.18a18.87,18.87,0,0,0,2.23-2.13,9.65,9.65,0,0,0,1.92-2.81c0,.19-.76,2.08-1,2.49A45.25,45.25,0,0,0,51,129a22.5,22.5,0,0,0-.32,2.32,5.18,5.18,0,0,1-.86,2.53c.25-.08.63-.25,1.28-1.18-.21,0-.3-1.15-.06-1.44.25.32.37.35.5.36s.28,0,.77,0c-.3.05-.08-1.65.26-1.88,0,.25.26,1.26.11,1.54a16.3,16.3,0,0,0,.75-2.08c-.16.39.28,1,.7,1.08-.11-.06.15-.26.47-.5a4.52,4.52,0,0,0,.78-.61,2.68,2.68,0,0,0-.59.12c.39-.25.45-.39.51-.62a2.29,2.29,0,0,0,0-.7c0-.49-.05-1,.42-1.3,0,.27.57,1.35,1.1,1.15-.14-.61-.67-2.93,0-3.86l.34.17c.15-.25.31-.49.47-.74a37.23,37.23,0,0,1-.25,4.23c.48,0,.31.25.79-.12.35.14,0,.58-.14.69l1.26-.6c-.42-.54.54-1.13.21-1.58-.32.46-.62.93-.92,1.4a1.93,1.93,0,0,1,.66-2.53c.36.1.45,1.13.59,1.31,0-.27.59-.86.75-.76l-.19.52c.6,0,.35-1.24,1.25-1,.23-.07,1,.46.85.08a7.52,7.52,0,0,1-1.85-3.22,6.6,6.6,0,0,1,1.91.32c.6.38.06,1.55.57,1.88a1,1,0,0,1,.09-.57c.28,0,.14.56.58.28-.19-.66,1-.36,0-.63.4-.38.55-.08,1.11-.31-.34-.34,0-1.62.48-2a.91.91,0,0,0,.29.43c1.07-.28,1.72-.12,2.71-.33.13.14.64.24.49.57.12-.15.2-.41.51-.47.68.48-.66.2-.09.82,0-.4.68-.66,1.08-1-.21-.58-1,0-1.41.36a2.39,2.39,0,0,1,1.53-2.38c.87-.3.44.5.58.37a1.85,1.85,0,0,0,1.48-.71,1,1,0,0,1,1.33-.27c.55.54,0,1.07.12,1.46-.7.18-1.09-.36-1.57-.3l.6.22a1,1,0,0,1-1,.2c.46.43,2.74,0,3.91.64.24-.14.64-.28.49-.51h-.4c-.32-.48.83-.48.35-.76a2.19,2.19,0,0,1,2-.18v.63c0-.18-.42-.46-.68-.33.4-.2,1,1.06,1.51.4l-.43-.57c.62-.14,1.53-.59,2.16-.12-.12-.69-.18,0-.46-.85.18,1-1.83-.56-1.37.53-.31-1-.81-.54-1.37-1.38,0,.21.18.42-.42.21a.85.85,0,0,1-.17.16l0,0,0,0s0,0,0,0a.75.75,0,0,1,.26.35c-.38.41-1.32.26-1.66.47-.34-.13.17-.22,0-.45l-.51.32c0-.45-.91-.82,0-1l-.78-.08a1.74,1.74,0,0,0-1.47-.18c-.37-.08-.9.54-.6.17-.4.12-.79.21-1.18.35l0-.11c-1.2,0-2.27,1-3.73.51a3.13,3.13,0,0,1-1.39.47l-.23-.34c-.45.26-1.58.08-1.66.53-.43-.4-1-.25-1.66,0a12.22,12.22,0,0,1-1.63.84l.18.47a5.22,5.22,0,0,0-1.58,1.14l.24.38c-.38.61-1.58.49-2.41,1.06,0-.18.21-.28.41-.28-1.57-.24-1.73,2-3,2a.57.57,0,0,1-.53.37.09.09,0,0,0,0-.06l-.09.06c-.15,0-.3,0-.44,0a1.31,1.31,0,0,0,.39,0,3,3,0,0,0-.56.63l-.39-.31,0,0c-.35,0-.06.33.29.52a1.48,1.48,0,0,0-.15.48c-.72-.43-.35.59-.87,0,.11.42-.4.7-.4,1.79,0-.12-.07-.15,0-.22-.19,0-.34,0-.5.47l0-.77a13.56,13.56,0,0,1-.47,1.46c-.17-.33-.12-.66.17-1.5a6.15,6.15,0,0,1-.55,1.11c-.12.19-.21.35-.65,1.2l.25-.73c-.13.14-.78,1.4-.64.85s-.09-.38-.37-.17a5,5,0,0,1-.86.66s-.08.06,0,0l.14-.34c.1-.24.22-.49.35-.77-.92,1.54-.69,1.09-.41.55s.61-1.11-.07-.12a15.1,15.1,0,0,1,1-1.52c-.16.11,0-.28.12-.49s.1-.26-.4.25c.39-.52.54-.61.78-.94-.08.09-.31.3-.07,0a4.12,4.12,0,0,1,.46-.5,17,17,0,0,0-2.18,2.11c.57-.86.52-.85-.09-.5.36-.44.73-.87.77-.64.1-.29.7-1.41,0-1,.2-.17.12-.32.05-.34a4.18,4.18,0,0,0,.25-1l-.14.14c-.77-.08-.09-.43-.1-.83l.08,0a1.42,1.42,0,0,0,.32-.53.58.58,0,0,0,0-.29c0-.15,0-.3.4-.89l-.48,0c-1-.33.83-1,.61-1.87l-.33.22c-.26-.49,1.61-.88,1.82-1.27.11-.07.12.17.15.31.82-1-.58-.27-.56-1.11.36-.08.81.37,1-.17.32-.22-.76-1.8,0-2.42-.29.11-.58.22-.69-.19,0-.6,1.28-1.38.57-2.06a.32.32,0,0,1,.23-.07c-.13-.48-.07-1.5-.45-1.86,1.71-.09-.25-2.91,1.24-2.6l.19-1.38.14.06a1.45,1.45,0,0,0-.33-1.6c.14-.19.25,0,.32,0a2.21,2.21,0,0,0,0-2.57l.51,0c-.23-.34,1.11-1.7.78-3a.33.33,0,0,1,.19.17c-.31-1.51,2-3.12.28-4l-.27-1c-.35,1.18-.73-.32-1.12.12,0-.49.76-1.12.75-.52l-.11.07c.89.38.6-1.43,1.22-1.29.37-2.37,1.29-4.59,1.71-6.81l-.77.13.18-.76c.2-.18.61-.18.48.37.46-.22-.18-1-.33-1,.47-1,.76.57.84.24l0-.46-.1.08c-.23-.41-.54-.5-.39-1.15.21-.4.48-.15.54-.31.05,0,.08,0,.06-.25l.22-1-.63.29c-.21-.48.18-.91-.54-.57,1.1-.49,1-3.58,1.33-3.94a2.81,2.81,0,0,1,0-2c-.15.16-.81.17-.63-.46,1.29.45.76-1.08,1.8-1.44-.71.36.13-1.85-.88-1.26.19-.52.5,0,.87-.31-.32-1.36.77-2.76.84-4.36-.17,0-.48.18-.69-.2l1-.7c0-.32-1-.44-.28-.91-.15,0-.39.14-.42-.08,1.32-2.95.24-6.39,2.27-9.3-.4.37-.39.09-.36-.24-.11.2-.43-.07-.67-.06l.84-1.22c-.62-.33.15-1.41-.46-1.63l.06.43c-.67-.66-1.75.54-2.69.33.75.74-1.47,1.45-.41,2.63-.22.2-.28-.23-.52-.14.37.31.42.64.15,1.18l-.09-.08c-.13,1.63-.63,2.26-1.16,4l.49-.06a1.25,1.25,0,0,1-.42.6c.64.56.19-1.08.92-.56-1,.38-.42,2.74-1.56,2.93-.09.59.57-.1.48.5L56,67l.36.21a.77.77,0,0,1-.77.51c0-.1,0-.29,0-.39-.42.46-.09,1.45-.23,1.61l.26-.55c0,1.67-.66,3.6-.31,5.27l.24-.08c.22,1.26-.4.92-.42,2.27l0-.05a1.39,1.39,0,0,1,.15,1c-.21-.37-.61.55-.82.07.23,1.37.24.7.92,1.69l-.4.14a1.19,1.19,0,0,1,.45,1.08c-.23-.6-.63.32-1-.35-1,1.25.47,2.19-.8,2.63.9.8.76-1.11.92-.71.38-.25.67.65.49,1.06s-1.42.54-1.58,1.65c0-.11,0-.13,0-.24-.33.38.21.88-.29,1.31.56.39-.15.66.61.87V85c.1.61.92,1.3.32,2.18a1.58,1.58,0,0,1-.39-.63c-.28.24.06.56-.22.81-.77-.22,0-1.27-.45-2-.38.24.37,1.27-.43.81,1,.63-.32,1.07.37,2L52.46,88a1.15,1.15,0,0,1,.19.64l-.54-.5c.41.69-.65,1.09-.48,1.72.2-1.22.62-.18,1-.63.36,1.61-1.38.65-1.45,2.37,0-.24.43-.8.59-.41a2.16,2.16,0,0,1-.69.85c-.1,1.13.51-.09.71.44-.63.28.14.59.23,1.11l-.47-.08c-.53,1.22.93.51.36,1.59l-.57-.6.06.63-.52-.22a1.5,1.5,0,0,1-.12,1.51.66.66,0,0,1,.75.81c-.35.33-.41-.3-.48.51-.27-.23-.61-.5-.11-.77-.14-.06-.26-.23-.41-.29-.4.35-.26,1-.31,1.31a.64.64,0,0,1,.17-.29L50.87,99c-.21.15-.33,0-.45-.19,0,.24.2.44.18.79-.37-.16-.77-.21-.86-.73L50,100c-.18,0-.57.48-.68.31-.34.57.47,1.64,0,2.39a.47.47,0,0,1,.14.34c-.22.74-.82,1.32-.47,2.33l-.79.37c0,.74,1-.52,1,.7.06.88-.65.2-.9.45.27.48.84,1.34.13,2C48.37,108.65,48.51,108.47,48.51,108.22ZM47.09,117c-.06-.19-.3-.58,0-.65C47.59,116.62,47.3,116.72,47.09,117Zm-2,15.28c-.19.09,0-.3.28-.83A2,2,0,0,1,45.06,132.25ZM74,117.58s0,0,0,0C73.51,117.4,73.66,117.48,74,117.58Zm.87.23a.13.13,0,0,0,.05-.2c-.06.12-.26.11-.48.08C74.44,117.82,74.55,117.9,74.82,117.81ZM57.28,84.61l-.15.13C57.05,84.37,57.15,84.49,57.28,84.61Z"/><path class="cls-1" d="M44.62,131.14a3,3,0,0,1,.36-.41C44.89,130.73,44.77,130.83,44.62,131.14Z"/><path class="cls-1" d="M49.29,102.77v0l-.08,0Z"/><path class="cls-1" d="M63.51,124.09a.69.69,0,0,1-.38-.1C63.18,124.1,63.28,124.16,63.51,124.09Z"/><path class="cls-1" d="M79.64,117.75c-.2,0-.4,0-.6,0a.72.72,0,0,1,.47.29C79.53,117.9,79.46,117.71,79.64,117.75Z"/><path class="cls-1" d="M82.92,122.32c.1,0,.15.07.24.05l.1-.2C83,122,82.69,122.08,82.92,122.32Z"/><path class="cls-1" d="M79.71,119.44c-.08.41.29.35.67.42,0,0,0,0-.07,0C80.61,119.34,80.15,119.36,79.71,119.44Z"/><path class="cls-1" d="M80.46,119.88a1,1,0,0,1,.34.11C80.92,119.79,80.68,119.89,80.46,119.88Z"/><path class="cls-1" d="M76,117.63c.18.12.18-.51.27-.33C76.48,116.79,74.89,117.82,76,117.63Z"/><polygon class="cls-1" points="79.6 120.8 79.62 120.29 79.31 120.62 79.6 120.8"/><path class="cls-1" d="M76.91,119.79a5.38,5.38,0,0,1,.55.24c0-.08.09-.12.18-.14C77.3,119.79,76.92,119.64,76.91,119.79Z"/><path class="cls-1" d="M77.64,119.89a.73.73,0,0,0,.48,0A1.46,1.46,0,0,0,77.64,119.89Z"/><path class="cls-1" d="M78.81,120.73l-.14-.15c-.12,0-.25-.1-.38-.13C78.47,120.53,78.64,120.64,78.81,120.73Z"/><path class="cls-1" d="M70.68,119.6a4.49,4.49,0,0,0-.61.23c0,.17.14.25.36.15S70.79,119.76,70.68,119.6Z"/><path class="cls-1" d="M72.65,120.83c-.17-.1-.19-.21-.29-.37l0,.62Z"/><path class="cls-1" d="M70.92,121.1c0,.17-.79.59-.06.46C70.9,121.39,71.48,121.19,70.92,121.1Z"/><polygon class="cls-1" points="61.95 122.94 62.09 122.87 61.63 121.96 61.95 122.94"/><path class="cls-1" d="M56.41,129.21c.71-.22-.24-.6.46-.73,0-.3-.57.1-.56-.16C56.12,128.78,55.85,128.79,56.41,129.21Z"/><path class="cls-1" d="M56.31,128.32a1,1,0,0,0,.09-.26A1,1,0,0,0,56.31,128.32Z"/><polygon class="cls-1" points="62.17 55.95 62.45 55.5 62.06 55.76 62.17 55.95"/><path class="cls-1" d="M61.55,54.94l.66,0-.55-.36C61.68,54.66,61.7,54.88,61.55,54.94Z"/><path class="cls-1" d="M45.55,118l.14.07c.18,0,.22-.15.29-.36Z"/><polygon class="cls-1" points="47.29 111.8 47.25 111.91 47.87 111.82 47.29 111.8"/><path class="cls-1" d="M47.58,106.37c-.06.21,0,.49,0,.7C47.52,106.58,48.31,106.45,47.58,106.37Z"/><path class="cls-1" d="M267.83,131.16c.32-.29-.1-.45-.11-.55C267.31,131.19,267.92,131.22,267.83,131.16Z"/><polygon class="cls-1" points="263.17 136.67 263.18 136.46 262.55 137.41 263.17 136.67"/><path class="cls-1" d="M257.35,140.08c.43.19,1-.1,1.56-.48a7.48,7.48,0,0,1,1.74-1.09l.25,0,.16-.78A13.73,13.73,0,0,1,257.35,140.08Z"/><path class="cls-1" d="M253.54,139.88c.28.2-.62.46.78-.17l-.16,0A5.58,5.58,0,0,1,253.54,139.88Z"/><path class="cls-1" d="M254.16,139.69c.63-.23-.49-.08,0,0Z"/><path class="cls-1" d="M251.23,140.65a7.67,7.67,0,0,0,.8-.43c-.21-.1-1,0-.71-.17C250.48,140.35,250.68,140.48,251.23,140.65Z"/><path class="cls-1" d="M250.51,141.31l.43-.18C250.85,141.07,250.73,141.07,250.51,141.31Z"/><path class="cls-1" d="M251.85,140.72c-.3.15-.6.27-.91.41.15.08.21.31.43-.17C251.33,141.18,251.48,141,251.85,140.72Z"/><path class="cls-1" d="M252.41,140.69c.52,0,1.19-.05.37.42.83-.25,1.14-.53,1-.63S253.23,140.44,252.41,140.69Z"/><path class="cls-1" d="M257.33,140.91l.74-.12.46-.49C258.3,140.54,257.2,140.73,257.33,140.91Z"/><path class="cls-1" d="M245.88,140.7c-.06.15.27.42.33.61.22-.05.43-.09.64-.15C246.52,141.05,245.91,140.92,245.88,140.7Z"/><path class="cls-1" d="M246.21,141.31l-1,.22C246.1,141.6,246.26,141.48,246.21,141.31Z"/><path class="cls-1" d="M250.47,142.13c.52-.29,1-.56,1.53-.85-.6.31-1.21.61-1.84.91Z"/><polygon class="cls-1" points="242.42 140.19 242.99 139.95 241.99 140.28 242.42 140.19"/><path class="cls-1" d="M240.23,139.53c.46-.11-.28-.66.15-.67a7.75,7.75,0,0,0-1.68-.22A3.79,3.79,0,0,1,240.23,139.53Z"/><path class="cls-1" d="M237.83,138.53a4.59,4.59,0,0,0,.87.11A3,3,0,0,0,237.83,138.53Z"/><path class="cls-1" d="M243.6,141.26a1.23,1.23,0,0,0-.64-.57l.27.5A1.87,1.87,0,0,0,243.6,141.26Z"/><path class="cls-1" d="M243.24,141.2h0l-.77-.2Z"/><path class="cls-1" d="M243.69,141.27h-.09C243.63,141.31,243.65,141.32,243.69,141.27Z"/><path class="cls-1" d="M247.8,142c-.56.27-1.83.55-.61.88C247.62,142.57,246.93,142.39,247.8,142Z"/><path class="cls-1" d="M244.09,141.86l1,.23c0-.12-.18-.29.11-.4C244.86,141.77,244.48,141.8,244.09,141.86Z"/><polygon class="cls-1" points="243.56 141.93 244.09 141.86 243.71 141.78 243.56 141.93"/><path class="cls-1" d="M239.15,139.68a3.11,3.11,0,0,1-1.4-.47,6.37,6.37,0,0,0,1.51.92C239.39,140,239.71,139.92,239.15,139.68Z"/><path class="cls-1" d="M241.08,140.58H241C241,140.63,241.07,140.66,241.08,140.58Z"/><polygon class="cls-1" points="233.53 135.9 233.53 136.01 233.6 135.98 233.53 135.9"/><path class="cls-1" d="M239.32,140.24a1.33,1.33,0,0,0,.93.25,7.47,7.47,0,0,1-1-.36C239.2,140.17,239.18,140.2,239.32,140.24Z"/><path class="cls-1" d="M236.5,137.9a7.7,7.7,0,0,0,.49.61C236.88,138.27,236.63,137.85,236.5,137.9Z"/><path class="cls-1" d="M240.88,140.42H241C240.85,140.29,240.85,140.34,240.88,140.42Z"/><path class="cls-1" d="M240.88,140.42a2.53,2.53,0,0,0-.63.07,5.18,5.18,0,0,0,.73.09A1.4,1.4,0,0,1,240.88,140.42Z"/><path class="cls-1" d="M230.32,136.4c.39-.18,1.43.59,2,1.65,1,.56,1.33-.93,1.25-2-.13.08-.29.25-1.13-.41,0,.45,1.28,2,.37,1.67-.59-.43-.77-.68-.83-.9a3.57,3.57,0,0,0-.17-.72c0,.38-.43.16-.92-.1s-1-.59-1.17-.24a10.69,10.69,0,0,0,1,.9C230.61,136.31,230.16,136.05,230.32,136.4Z"/><path class="cls-1" d="M234.93,137.36l.35.23a3.49,3.49,0,0,1-.73-1.34c-.61-.33-.82-.33-1-.27a16.54,16.54,0,0,0,1.47,1.43Z"/><path class="cls-1" d="M236.8,138.7c-.5.18-1.48-.27-1.22.47,1.09.7.93.25,1.69.45-1.77-1,.58.14-.49-.87l1,.46a4.64,4.64,0,0,1-.76-.7l0,.05h0c0,.09.05.14,0,.06l0,0a.42.42,0,0,1-.16.09c-.43-.4,0-.15.16-.09a.1.1,0,0,0,0,0h0a15.54,15.54,0,0,1-1.73-1A5.76,5.76,0,0,0,236.8,138.7Z"/><path class="cls-1" d="M246,143.79a.12.12,0,0,1-.07-.1C245.82,143.73,245.76,143.77,246,143.79Z"/><path class="cls-1" d="M245.14,143.49a1.2,1.2,0,0,1,.81-.15c.44.15,0,.2,0,.35.32-.1,1.09-.26.13-.52l-.15.06c-.87-.16-1.89-.86-1.73-.89A2.76,2.76,0,0,0,245.14,143.49Z"/><path class="cls-1" d="M240.46,141.68a12.52,12.52,0,0,1-1.7-.45l.68.71,0-.23C240.39,142.15,240.29,141.8,240.46,141.68Z"/><path class="cls-1" d="M233.55,135.62l.48-.16a9.79,9.79,0,0,1-1.1-.26A6.74,6.74,0,0,0,233.55,135.62Z"/><polygon class="cls-1" points="232.15 134.04 232.51 133.86 232.01 133.56 232.15 134.04"/><path class="cls-1" d="M163.51,122.56l-.28-.64A3.88,3.88,0,0,0,163.51,122.56Z"/><path class="cls-1" d="M165.78,126.82l.22,0C165.79,126.68,165.67,126.66,165.78,126.82Z"/><path class="cls-1" d="M224.51,120.36c-.69-.51-1.41-1.25-1.41-.8l.14.48A3.41,3.41,0,0,1,224.51,120.36Z"/><path class="cls-1" d="M191.29,116.55l.16-.19-.35-.67Z"/><path class="cls-1" d="M193,117.41l-.5,1.07A5.81,5.81,0,0,0,193,117.41Z"/><path class="cls-1" d="M150.65,115.31l-.67.39C151,115.78,150.56,115.52,150.65,115.31Z"/><path class="cls-1" d="M233.81,116.22c.26,0,.47-.06.67-.07s.36-.07.51-.08C234.42,115.94,233.79,115.82,233.81,116.22Z"/><path class="cls-1" d="M168.34,122.32c-.18-.2-.29-.27-.38-.23C168.12,122.32,168.27,122.42,168.34,122.32Z"/><path class="cls-1" d="M236.24,116a2.4,2.4,0,0,0-.23-.11c-.32.08-.63.16-1,.23a3.62,3.62,0,0,0,.63.08A1.32,1.32,0,0,0,236.24,116Z"/><path class="cls-1" d="M102.76,123.67l.15-.15S102.82,123.55,102.76,123.67Z"/><path class="cls-1" d="M124.27,115.59c-.21.07-.55.14-.88.21A3.17,3.17,0,0,0,124.27,115.59Z"/><path class="cls-1" d="M229.26,126.43c.07.41.06.06,0,0Z"/><path class="cls-1" d="M227.94,128.88a.26.26,0,0,0-.24-.14A.36.36,0,0,1,227.94,128.88Z"/><path class="cls-1" d="M240.72,115.59l0,0C240.72,115.45,240.72,115.48,240.72,115.59Z"/><path class="cls-1" d="M229.12,127.08a2.91,2.91,0,0,0,.08-.55A5.06,5.06,0,0,0,229.12,127.08Z"/><path class="cls-1" d="M229.32,127c0,.15,0,.26,0,.37S229.45,127.33,229.32,127Z"/><path class="cls-1" d="M229.19,125.85a3.11,3.11,0,0,1,0,.68c0-.09.05-.12.06-.1Z"/><path class="cls-1" d="M133.55,130l-.11.06C133.21,130.62,133.35,130.42,133.55,130Z"/><path class="cls-1" d="M210.56,121.38h.06l-.07,0Z"/><path class="cls-1" d="M208.69,121.11a2.05,2.05,0,0,1,1.86.23l-.2-1.38Z"/><path class="cls-1" d="M162,116a1,1,0,0,1,.15.5,2.6,2.6,0,0,0-.56.33c-.09,0-.14.06-.13.13s.14.19.06.31c.17-.66.47-.63.64-.44a2,2,0,0,0,.24.29c.1,0,.29.36.63.39l-.3.75c0-.24-.06-.27,0-.48a1.31,1.31,0,0,0,.19,1.55,4,4,0,0,1,.5.81,7.09,7.09,0,0,1,.34,1.41c.09.89.11,1.57-.22,1a14.53,14.53,0,0,0,1.06,1.75c.26.52,0,.51-.28,0l.81,1.31,1,1.18H166c.44.2,1.33.65,1.75.85.41.61-.38-.13-.35.11.47.27.95.52,1.42.77.31.67-1,.15-1.76-.68a1.38,1.38,0,0,0,1,1.44,9,9,0,0,1,1,.47c.2.12.42.28.68.47s.54.4.87.68a13.31,13.31,0,0,1-1.46-.62c.48,1.21,1.73,1.58,3.34,2.64a12.7,12.7,0,0,1-1.39-1.33c-.44-.54-.56-1,.29-.75a3.33,3.33,0,0,0,2,.61c-.13.46.8.66,2,.8l-.18.62c1.33,0,1.27-.38,2-.59a2.63,2.63,0,0,1,2.16.91c1.24-.14.77-.27.39-.44s-.7-.37.64-.65a5.21,5.21,0,0,0,1.36-.25,4.88,4.88,0,0,0,1.2-.49,11.09,11.09,0,0,0,2.3-1.7c1.18-.56,0,.46.52.34l.64-1.08c.22-.17.25,0,.26.1.59-.78-.33-.54.63-1.64-.13-.41.6-.7,1.36-1.27a3.65,3.65,0,0,0,1.71-2.34c.37-.29.24.39.51.4a13.39,13.39,0,0,0,.6-2.23,9.38,9.38,0,0,0,.11-2c.31-.48.57-1,.86-1.5-.79,1.07-.89-.61-1.17-1.93-.28.36-.57.66-.7.86,0-.35,0-.63,0-1l0-1.28c.13-.24.33.14.55.6l-.1-.47c.27-.67.62,0,.91.62a6.26,6.26,0,0,0-.46.52c.35.51.63,1.11,1,1.06a2.15,2.15,0,0,1,0-.31c0-.14,0-.28,0-.36.09.11.18.18.25.15s-.06-.18-.19-.45a2.89,2.89,0,0,1,.72,0l-.26-.19c.18-.42.32-.75.44-1l-.55-1.29-.13-.34-.07-.18,0-.09v0a.63.63,0,0,1,.13-.2.81.81,0,0,1,.5-.24,5.49,5.49,0,0,1,2.32.45.47.47,0,0,0-.37.59,3.59,3.59,0,0,1,0,.88,1,1,0,0,0-.94-.59,1.63,1.63,0,0,1-1-.24,1.09,1.09,0,0,1,.54.79,2.74,2.74,0,0,1,1.07-.12c0,.56.31.57.56.92,0-.27.06-.43.19-.49a.61.61,0,0,1,.24,0,1.15,1.15,0,0,1,.16,0l.26.08a16.94,16.94,0,0,0,2.17.74c-.07.34-.47.54-1.72-.12,1.11,1.35,2.31-.25,3.46.94-.32-.13-.47-.25-.66-.15.85.06,2.58,1,2,1.11l-.32-.12c2.07,1,6.54,2.49,7.13,1.78a3.87,3.87,0,0,1-.8,1c1.6-.43,3.19-1,4.75-1.44-.56.58.24,2.67-1.7,2.48a4.94,4.94,0,0,0,2.29.67c-.33-.21-.59-1.28-.08-1.2a10,10,0,0,0,2.27,1.83c-.5-.29.41-1.23,1.24-1-.17.13-.22,1.11-.56,1.14.8-.16,1.6-.33,2.4-.53-.57.07-.33.9.08,1.33-.17-.27,1.84.49,2.45.49l-.86-.46c2.4.71,2.73-1,5.1-.46-.33.17-1,1.26.21,1.64.68-.47,3-2.25,5.14-2.39l.35.39c.56,0,1.12-.09,1.67-.15a25.48,25.48,0,0,1-5.95,2.51c.87.42.19.43,1.57.64.44.39-.83.33-1.24.28,1.06.26,2.13.49,3.2.72-.05-.67,2.57-.32,2.51-.9-1.19.09-2.39.14-3.59.19,0-.69,2.29-1.56,4.53-1.17.55.34-.58,1.13-.56,1.36a5.93,5.93,0,0,1,2.48,0l-1.06.26a3.37,3.37,0,0,0,1.86-.13,4.62,4.62,0,0,1,2.21-.1c.32,0,.85.09,1.34.11s.92,0,.9-.26c-1.47-.25-2-2.64-1.79-3.29a4.4,4.4,0,0,0,1.26-.14,6.9,6.9,0,0,0,1.53-.72c.44-.23.65.18.75.73s0,1.13.51.88c-.1-.15.09-.8.1-1.07.23-.29.33-.17.45-.15s.3-.08.46-.89c-.26-.23-.15-1-.1-1.42,0-.22,0-.36,0-.3a6.55,6.55,0,0,1-.31.89c0-.73,0-1.07,0-1.48a4.06,4.06,0,0,0-.22-1.62c-.14.31-.59.05-1.11-.3a15.17,15.17,0,0,1-1.52-1.19c.18,0,.2-.38.2-.55a8.1,8.1,0,0,0-2.27-2.08,5.4,5.4,0,0,0-3-.62,3.87,3.87,0,0,0-.75-.2c-.27,0-.47-.13-.24-.33a6.92,6.92,0,0,1-1.3.75c-.79,0-.43-.2,0-.38s.95-.41.28-.57c0,.22-.46.47-1,.86a7.6,7.6,0,0,0-1.47,1.23c.31.15.81-.15,1.38-.53a14.56,14.56,0,0,1,1.78-1.06,1,1,0,0,1-.16.68,4.51,4.51,0,0,1-.6.83l-1.8,2.12c-1.06,1.25-.9.11-1,.38a3.42,3.42,0,0,0-1.24,2.64,3.57,3.57,0,0,1-.71,2.28c-.78.82-1-.25-1.47-.15.24-1.5,1.13-2,1.58-2.83a10.56,10.56,0,0,0-.8,1,3.37,3.37,0,0,1,.27-1,2.6,2.6,0,0,1,.59-.85,6.73,6.73,0,0,0-1.86,3.12,19.85,19.85,0,0,0-.6,2.56c-.11.42-.09.84-.16,1.24s-.12.78-.14,1.12c.22.49.47,1.29.66.88l-.15-.83c.37-.77.73,1.5.84.45.2.53.43,1.06.7,1.62a5.3,5.3,0,0,1,.31.9,5.07,5.07,0,0,1,.27,1l-.5.46c.16-.09,0-1-.26-1.4a3.18,3.18,0,0,1,.25,1.48c.05.62.28,1.2.77,1.35l0-1.13c.37.43.8.87,1.23,1.32a5.3,5.3,0,0,1,1.12,1.51c.18-.79-.23-.21-.06-1.33-.18.54-.61-.13-.91-.8s-.58-1.29-.75-.55a2.84,2.84,0,0,0,.09-1.39,2.46,2.46,0,0,1,.1-1.49c-.2.08-.3.47-.41-.52a1.24,1.24,0,0,1-.22-.19v0s-.05,0,0,0a1.18,1.18,0,0,1-.2.57,1.65,1.65,0,0,1-.38-.51,4.33,4.33,0,0,1-.23-.77l-.19-.8a5.85,5.85,0,0,0-.13-.6c.12-.63.22.27.45-.07l-.33-.86c.41-.08,1-1.49,1-.09l.22-1.22a6.84,6.84,0,0,0,.84-2.07c.3-.45.24-1.49.29-.89a11.19,11.19,0,0,1,.86-1.69l.1.06a13,13,0,0,1,2-2,2.63,2.63,0,0,1,2.62-.42l.39-.08c.14,0,.23,0,.36,0a.85.85,0,0,1,.39.09l.22.09.22.17c0,.13-.05.27-.07.4s.26.17.4.28.25.33.37.49a3.2,3.2,0,0,0,.3.47.44.44,0,0,0,.32.23c-.29.55,0,1.19,0,1.77s.09.94-.11,1l.38.35a3.72,3.72,0,0,1-1.72,1.07l.13.43c-1,.53-2.8-.3-4.84-.56.16-.15.66,0,1,.11-2.26-1.29-5.16,0-7.2-1.1a2.07,2.07,0,0,1-1.3-.25h.13l-.21-.05c-.23-.12-.45-.26-.7-.38a3.17,3.17,0,0,0,.58.36,13.51,13.51,0,0,0-1.69-.16l-.16-.52-.14,0c-.56-.31-.53.11-.29.54a4.25,4.25,0,0,0-.87.1c-.32-.87-1.68-.1-2.14-1.08-.51.3-3.13-.48-3.68.23,0-.11-.15-.21.18-.13a4.43,4.43,0,0,0-2-.5l-.12-.68-1.71.35c-.78-.63-1.07-1-.06-1.13-2.33,0-1.8-.27-3.83-.22l.22-.35c-.64-.21-1.85-.06-2.12-.52-.59-.62-2.33-1.29-4.34-2.13-1-.43-2.06-.9-3.07-1.39-.51-.26-1-.53-1.47-.8l-.83-.47c-.34-.21-.68-.42-1-.64.39.85-.16.43-.9-.12s-1.78-1.29-1.74-.75c-.36-.49-1.22-1.12-.4-1a23,23,0,0,1-2.68-1.35c-.78-.44-1.64-1-1.91-.86a16.21,16.21,0,0,0,.62,2.41c-.28,0-.56-1.41-.72-1.3a5,5,0,0,1,.27,1.77c-.15.2-.33-.88-.54-1.73.56,4.48,1.36,5.27,2.2,6a3.48,3.48,0,0,0-.08,2.83c-.32.29-.69.77-.56-.4,0,.16-.13.48-.24.88s-.29.84-.41,1.28a6.49,6.49,0,0,0-.36,1.19c-.08.32-.09.57.05.65-.23.12-.42.82-.45,1a10.3,10.3,0,0,1-.84,1.3l-.36.53c-.14.2-.31.42-.53.71l.33-.25c.25.94-.63,1.08-1.43,1.94l0-.08c-1.18.7-1.41.83-1.6,1.07s-.43.43-1.72.72l.33.38c.11.49-.52.67-1.32.66a8.82,8.82,0,0,0-2.42.13,4.45,4.45,0,0,0,.57.22c-.39.26-1-.12-1.59-.49a8.92,8.92,0,0,0-1.38-1.09c-.15-.13.27-.07.5-.14-.9-.44-1-.32-1-.06s-.07.64-.83.48c-.17-.4.56-.74-.35-1.07a1.34,1.34,0,0,0-.63-.2,6.61,6.61,0,0,1-1.13-.17c-.21,0-.43-.1-.65-.17a6.45,6.45,0,0,1-.59-.29,1.71,1.71,0,0,1-.82-.84c0,.39.14.8-.54.48a2,2,0,0,1-.61-.73,4.82,4.82,0,0,1-.49-1c-.33-.64-.54-1.24-1.14-1.48a.37.37,0,0,1,.12-.26c-.11-.15-.26-.38-.41-.62l-.37-.84a5.39,5.39,0,0,0-.64-1.41c.41-.2.58-.64.62-1.29a5.59,5.59,0,0,0-.07-1.17,5.31,5.31,0,0,0-2-3.44c-.5-.43-.84-.71-.64-1a6.5,6.5,0,0,0-1-.41,7.17,7.17,0,0,0-1-.23,13.6,13.6,0,0,0-1.7-.19l.1-.15a5.14,5.14,0,0,0-3.34.37c-.43-.13-.1-.25-.05-.33a9.17,9.17,0,0,0-5.46.1l-.21-.51c-.66.24-4-1.09-6.77-.72,0-.06.1-.15.32-.2a9.13,9.13,0,0,1-2.48-.13l-1.27-.24c-.44-.09-.72-.17-1.47-.28-2.55-.38-5.06-.61-5,.3-.83.08-1.57.17-2.24.27,1.83.21,1.88.41,1.8.62s-.26.43.5.64a3.84,3.84,0,0,1-.92-.11L134,111c-.08,0,0,0,0,.06s0,.1-.06.11-.57-.13-.75-.59l.11,0c-.67-.58-.82-.39-1.07-.11.77,1.25,1.88,3.05,1.32,2.83a9.6,9.6,0,0,1,1.27,2.77l.15.63c0,.16,0,.28.05.43s.06.55.05.84a11.62,11.62,0,0,1-.45,3.32,13.66,13.66,0,0,1-1.22,3.07A15,15,0,0,1,131.6,127c.29,0,.59,0,.89.06-.32.4-.65.79-1,1.17-.41.19-.78,0,0-.78-.35.08-.57.47-.73.86a1.76,1.76,0,0,0-.2.85c-.92.63-.9.31-.72-.08s.48-.9.25-.68-.4.43-.61.63l.2-.06c-.34.69-.18,1-1.29,1.77-.79.36-.62-.13-.91,0,0-.05-.13,0-.44.25-.56.33-1.14.63-1.74.92l1,.13c-.64.69-1.71.84-.57,1-.84-.12-2.59.59-4.35,1.17a17.49,17.49,0,0,1-3.93,1.05,7.94,7.94,0,0,1-3.92,1c.39.09.69.73-.67.74.21-.68-.41-.79-1.18-.9a2.94,2.94,0,0,1-2.06-.84c.36.38-.49.3-1.23.12s-1.38-.43-1,.28c-.81-.56.16-.48-.27-1.08a3,3,0,0,1-1.86-2.44,10.16,10.16,0,0,1,.45-3.86c-.15-.11-.56.3-.62-.4.44-.42,1-.79,1.44-1.15.14-.56-.67-1,.42-1.62-.2.06-.52.15-.35-.24l.35-.45.4-.42.77-.87c.59-.51,1.07-1.11,1.7-1.59a24.16,24.16,0,0,1,3.88-2.8,18.77,18.77,0,0,1,9.48-2.57c-.94-.13-.38-.31.29-.46-.45,0-.08-.42-.22-.64,1,0,1.91.06,2.87.13.39-.76,2.94-.49,3.16-1.13-.29.07-.58.13-.87.22,1.09-.91-1.87-1.42-1.86-2.38-.62.52-1.55.36-2.61.28a4.06,4.06,0,0,0-3.19.84c-.54-.06.34-.4,0-.55a3.64,3.64,0,0,1-2.41,1l.11-.14-4.31,1.45c-.66.22-1.33.49-2.09.78a25.54,25.54,0,0,0-2.51,1.26l.53.21a5.35,5.35,0,0,1-1.46.63c-.43,1.18,2.14-1.46,1.8-.25a3,3,0,0,0-1.49.53,14.19,14.19,0,0,0-1.8,1.38c-.59.54-1.12,1.12-1.63,1.53a2.25,2.25,0,0,1-1.24.77c-.89,1.19.69,0-.16,1.15l-.45.18.13.52c-.55.77-1.1,1-1.32,1,.11-.21.25-.63.36-.87-1,1-1.41,3.35-1.6,3.78a11.27,11.27,0,0,1,.66-1.35,12.83,12.83,0,0,0-.58,7,7.74,7.74,0,0,0,1.85,3.44,7.17,7.17,0,0,0,3,1.87,3.65,3.65,0,0,1-.18-.34c.75.25,1.27.4,1.67.52s.69.23,1,.35a6.82,6.82,0,0,0,2.86.44l-.11,0a10.74,10.74,0,0,1,2.31-.37c-.77.34,1.53.37.52.76a5.39,5.39,0,0,0,2.1-.76,9.86,9.86,0,0,1,1.16-1l.52.26a4.06,4.06,0,0,1,2-1.14c-1.08.63,1.08.29-.13,1.06a6.85,6.85,0,0,0,3.56-1.09,3.07,3.07,0,0,1,2.41-.64c.46-.77-.23-.6-1-.34s-1.49.62-1.15.37c-.75-.08.83-1.13,1.74-1.46s2.14.5,4.38-1c-.22.14-.2.21-.42.35,1-.32,1.4-1.37,2.61-1.81.12-.91,1.23-1,.81-1.75a19.48,19.48,0,0,1-1.68,1.72c1-1.05,1.24-2.48,2.94-3.88a3.34,3.34,0,0,1-.46,1.3c.63-.32.7-1.06,1.31-1.46.26.29-.15,1-.75,1.65a14.72,14.72,0,0,0-1.72,2.15c.81-.2,1.62-2.4,1.72-1.25,0-.78.44-1.23,1-1.82a5.31,5.31,0,0,0,.75-1,2.64,2.64,0,0,0,.43-1.3l.36.33a9.1,9.1,0,0,1,.41-1.42c0,.38.1.78.11,1.17a5.6,5.6,0,0,1,.93-2.06,4.62,4.62,0,0,0,.85-2.06c-.42,1.51-.64,1.62-.8,1.51s-.29-.43-.67.1c.32-1.83.66-2.26,1.15-2.78a3.12,3.12,0,0,0,.68-1,5.24,5.24,0,0,0,.29-2.34c.1.62-.39,2.23-.54,1.29a22.8,22.8,0,0,1,.52-2.47c-.45-3-.43.51-.87-.71.23-.62.14-.61-.06-.83a4.72,4.72,0,0,1-.7-.71l.53.11c-.08-.88-1.1-.87-1.47-1.67a1.79,1.79,0,0,1-.12-.24l.74.63.5.42-.18-.22-.4-.43.89.64c-.61-.48-.3-.44-.16-.46a4.29,4.29,0,0,1,.79.2c-.45-.37-.73-.93.07-.89.62.34,0,.46.85.46-.17.29-.1.67-.66.19a2.17,2.17,0,0,0,.12.47.82.82,0,0,0,.56.2,3.77,3.77,0,0,1,.39-.06.53.53,0,0,1-.23-.13c0-.22,1.24-.35,2-.52.39.22.06.34-.26.45a16.27,16.27,0,0,1,1.65-.18c-.23.37-.21.78-1.3.88l2.46-.25c.15.18,1.21.57.88.68,1.33.34,3.36-.5,5.12-.06a1.34,1.34,0,0,1,.67-.15c1.67.21,3.11.81,5.14.43l1.07.78c1.57,0-1.45-1,1.15-1.06,1.85-.09.64.65,1.27.89a7.06,7.06,0,0,1,1.57-.41,2.58,2.58,0,0,1,.38,0,.53.53,0,0,1,.25,0,.5.5,0,0,1,.31.42C162.29,116.15,162.21,116,162,116Zm9.35,14.82c-.43-.07-1.35-.23-1.49-.63C170.58,129.93,170.76,130.35,171.36,130.81Zm21-16.15a.69.69,0,0,1-.12.8A1.49,1.49,0,0,1,192.35,114.66Zm36.92,7.18s0,0,0,0C229.66,121.22,229.5,121.42,229.27,121.84Zm-.5,1.35c0,.16.11.16.19.11-.1-.12-.06-.45,0-.81C228.85,122.56,228.74,122.74,228.77,123.19ZM127.37,131l.33-.06C127.19,131.45,127.28,131.24,127.37,131Z"/><path class="cls-1" d="M192.77,117.3a.46.46,0,0,1-.29.12C192.53,117.59,192.62,117.61,192.77,117.3Z"/><path class="cls-1" d="M150.77,115.24h-.05a.23.23,0,0,0-.07.08Z"/><path class="cls-1" d="M243.52,123a1.85,1.85,0,0,1-.74.71s.11,0,.24-.06A1.72,1.72,0,0,0,243.52,123Z"/><path class="cls-1" d="M230.6,130.58a8.13,8.13,0,0,1-.47-.81,2.15,2.15,0,0,1,.17.84C230.4,130.54,230.48,130.32,230.6,130.58Z"/><path class="cls-1" d="M233.69,139.32c.16.06.26.22.42.27l.11-.2C233.69,139,233.2,138.8,233.69,139.32Z"/><path class="cls-1" d="M229.52,132.09c-.32.26.13.77.55,1.36l-.06-.11C230.6,133.23,230.07,132.67,229.52,132.09Z"/><path class="cls-1" d="M230.17,133.59c.13.18.28.36.39.55C230.8,134.08,230.43,133.9,230.17,133.59Z"/><path class="cls-1" d="M228.87,125.05c-.12.31.51.19.34.36.25.16.12-.32-.06-.66S228.77,124.2,228.87,125.05Z"/><path class="cls-1" d="M228.64,133.24l.31-.47-.57-.19C228.46,132.8,228.55,133,228.64,133.24Z"/><path class="cls-1" d="M227,127.45l.11,1.21c.08,0,.15.11.23.28C227.21,128.21,227.14,127.4,227,127.45Z"/><path class="cls-1" d="M227.34,128.94a2.36,2.36,0,0,0,.36.91C227.64,129.65,227.46,129.23,227.34,128.94Z"/><path class="cls-1" d="M227.76,131.79l-.06-.38a5.78,5.78,0,0,1-.28-.83A8.35,8.35,0,0,0,227.76,131.79Z"/><path class="cls-1" d="M231,115.79a8.92,8.92,0,0,1,.95-.89c0-.22-.35-.11-.71.24C231.08,115.42,230.77,115.8,231,115.79Z"/><path class="cls-1" d="M227.36,118.14a1.19,1.19,0,0,1,.66-.34l-.5-.37Z"/><path class="cls-1" d="M229.92,114.75c0-.24,1.44-1.76-.09-.53C229.8,114.45,228.82,115.57,229.92,114.75Z"/><path class="cls-1" d="M240.55,123.82a3.11,3.11,0,0,0,.28-.23l-.66-.78A7.22,7.22,0,0,1,240.55,123.82Z"/><path class="cls-1" d="M222.25,125.2c1.55.56.51-.54,1.89,0,.42-.16-1.13-.48-.7-.61C222.42,124.71,222,124.45,222.25,125.2Z"/><path class="cls-1" d="M223.44,124.64a3.37,3.37,0,0,0,.52,0A2.88,2.88,0,0,0,223.44,124.64Z"/><polygon class="cls-1" points="127.95 115.53 128.96 115.61 128.28 115.35 127.95 115.53"/><path class="cls-1" d="M129.76,114.54l.3.62.54-.65C130.38,114.57,130,114.67,129.76,114.54Z"/><path class="cls-1" d="M174.21,133.14l.13-.13c-.16-.2-.44-.28-1-.48A10.61,10.61,0,0,0,174.21,133.14Z"/><path class="cls-1" d="M162.51,121.07c0,.1,0,.21,0,.31a7.76,7.76,0,0,1,.5-.67Z"/><path class="cls-1" d="M159.05,116.89c.46.06,1.08,0,1.45,0a3,3,0,0,1-1.11-.28C159.13,116.53,159,116.52,159.05,116.89Z"/></svg>
