<svg id="Layer_1" data-name="Layer 1" xmlns="http://www.w3.org/2000/svg" viewBox="0 0 741 157"><defs><style>.cls-1{fill:#b56666;}.cls-2{fill:#ac5353;}</style></defs><path class="cls-1" d="M270.35,72.94c.44-.09.85.19.7.34.87-.45.93,0,1-.77.55-.4,1.21,0,.58.39l1.63-.59-1,0c.22-.62,1.62,0,1.87-.69l-1.8.22.07-.21a2.57,2.57,0,0,1-1.49.17c0-.1,0-.26.31-.31-2.19.15-.5,1.11-2.29,1.47A1,1,0,0,1,270.35,72.94Z"/><path class="cls-1" d="M268.36,71.63l-.69.82-1.3-.09c0,.27-.91.56-.26.73a1.44,1.44,0,0,1,.56-.14c-.09.58-1.68.43-1.25,1,1-.24,1.16-.13,1.75-.64a5.72,5.72,0,0,1,2.07.21c.27-.11.28-.46.62-.56l-.24,0-.11-.85c-.27.2-.56.14-.88.19L270,71.2c-.55-.76-2-.16-2.6-.44C268.23,71.41,266.89,71.16,268.36,71.63Z"/><path class="cls-1" d="M269.86,72.93h0Z"/><path class="cls-1" d="M158,85.57a.48.48,0,0,0-.44.34l3.6-.2c-.12-.22-1.18-.44-.49-.61a1.27,1.27,0,0,0-1.37.34l.24-.36c-.81.48-1.42-.35-.89-.63h-.07l-2.21,1.8C157.2,86.31,157,85.64,158,85.57Z"/><path class="cls-1" d="M83.94,87.55c.46-.09.52-.17.46-.25A2.05,2.05,0,0,0,83.94,87.55Z"/><path class="cls-1" d="M155.83,86.67l-.7.57A2.39,2.39,0,0,0,155.83,86.67Z"/><path class="cls-1" d="M160.41,78.41a.11.11,0,0,0,0-.09l-.3.29h0Z"/><path class="cls-1" d="M139.56,89.42l-.23,0A.86.86,0,0,0,139.56,89.42Z"/><path class="cls-1" d="M170,74.89l-1.57.59c.2-.25-.56-.13-.24-.43-.12,0-.69.17-.53.28l.33,0c-.81.75-.28,1-1.65,1.59a1.4,1.4,0,0,0,1.69-.37,3,3,0,0,1,.41-.12l1.28-1.05Z"/><path class="cls-1" d="M106.14,82.91v0S106.13,82.9,106.14,82.91Z"/><path class="cls-1" d="M106.21,82.63l-.06.23C106.23,82.74,106.56,82.63,106.21,82.63Z"/><path class="cls-1" d="M156.07,86.21a.93.93,0,0,1-.24.46l.52-.42A1.57,1.57,0,0,1,156.07,86.21Z"/><path class="cls-1" d="M157.22,84.62l1.34-.17.48-.38C158.53,84.23,157.93,84.35,157.22,84.62Z"/><path class="cls-1" d="M141.72,89.74c-2.8.24.65-.85-.65-1-.77.13-1,.53-1.51.67,2.21-.43-.24,1.31,2,1-.29.72-1.58.84-2.35.68-.89-.64.73-.53.9-1.21-.9.15-.73.27-1.1.67-1.42-.1-2.88,1-3.77,0-1,.19-.93.52-1.5.9-.09.73,1.53.32,1.94.88-.08-.06-.24-.18-.2-.28l.89.11c-.85-.22.08-.73.53-.81s1-.09.89.12l-.49.18c.65.2,1.38-.59,2.07-.23,0,.16-.21.25-.24.35a9.84,9.84,0,0,1,2.55-.93l-.61.75c.85-.84,2.88-.71,4.29-.35-.16-.11-.44-.19-.28-.33.81-.22,1.46.25,1.09.65.78-.64,3.08.36,4.14-.47l4.83-3.91a2.42,2.42,0,0,1-.58.23c-.49-.61-.73-.53,0-1.16-.77.37-.44.87-1.62,1,.45-.34.53-1.07-.6-1.09-2.79.76-4.58,2.65-7.17,3.7-.12-.49-2.19-.25-3.2-.32a2.69,2.69,0,0,1,1.87-.87c-.49,0-1.33,0-2,0Z"/><path class="cls-1" d="M148.19,87.79a.83.83,0,0,0-.22-.08A.35.35,0,0,0,148.19,87.79Z"/><path class="cls-1" d="M144.11,88.68s0,0,0-.05l-.24.05Z"/><path class="cls-1" d="M155.36,85.14c.16-.15.28-.19.44-.34l-.35.14C155.33,85,155.28,85.08,155.36,85.14Z"/><path class="cls-1" d="M156,86l-.08.21.19,0A.19.19,0,0,0,156,86Z"/><path class="cls-1" d="M130.84,85.78l-.27.12C130.73,85.88,130.8,85.84,130.84,85.78Z"/><path class="cls-1" d="M138.56,89.05c1-.09.09-.74,1.46-.8l-.4,0a17.63,17.63,0,0,1,3.88-.37c-.12.3.73.32.61.78a3.23,3.23,0,0,0,2-.77c.51.13,1.24-.31,1.88-.15-.28-.26.86-1-.66-.56.12,0,0-.1.16-.14-1-.34-1.38.33-2.23.37-.52-.24.82-.47.33-.55-1,.3-3.36-.17-3.24.84a1.12,1.12,0,0,1-1.13-.29c-1.18,1.14-4.57-.27-4.5,1.11a5.63,5.63,0,0,0,1.82-.39Z"/><path class="cls-1" d="M153.73,85.29h0Z"/><path class="cls-1" d="M166.2,88.67l-.36.92a48.23,48.23,0,0,1-5.18.26c-.16-.11.08-.2.2-.25-1.42.18-3.56.1-4.57.56-.46,0-1.66-.21-1.22-.5a1.5,1.5,0,0,1-.72.17c-.09-.32.56-.12.56-.39-.2,0-.28-.07-.32,0,.32-.3-.41-1.09,1.17-1.15.65.73-1.09.15-.69,1,.53,0,.45-.34.49-.44.67,0,.66.2.63.39.25-.27,1.1,0,1.44-.37,1.29-.13,0,.63.8.58l.45-.87,1.41.09c2-.4-.36-1.45,1.94-2-.28.46.69,1.16,1.79,1.28-.65.06-1.82.67-2.67.47,1.21.6-1.62.16-1,.89a3.29,3.29,0,0,1,2.3-.34l-.24.09c.81,0,1.37-.86,2.51-.58.55-.06.46.19.37.39C165.78,88.67,166.19,88.48,166.2,88.67Zm-1.19.24-.75,0A1,1,0,0,0,165,88.91Z"/><path class="cls-1" d="M258.08,72.61l.22,0A.36.36,0,0,0,258.08,72.61Z"/><path class="cls-1" d="M192.64,77h.43A2,2,0,0,0,192.64,77Z"/><path class="cls-1" d="M202,73.61l.61-.24A1.37,1.37,0,0,0,202,73.61Z"/><path class="cls-1" d="M253,73h0l-.09.06Z"/><path class="cls-1" d="M221.39,74.28a1.09,1.09,0,0,0,.36.16C221.73,74.36,221.59,74.31,221.39,74.28Z"/><path class="cls-1" d="M201.93,73.66h0l.07-.06Z"/><path class="cls-1" d="M188.27,74.8l-.27.1A.69.69,0,0,0,188.27,74.8Z"/><path class="cls-1" d="M189,77.16a1.57,1.57,0,0,0-.26.1Z"/><path class="cls-1" d="M174.15,76.37l-.57.16A1.4,1.4,0,0,0,174.15,76.37Z"/><path class="cls-1" d="M187.46,76.7l-.08.12C187.45,76.79,187.49,76.74,187.46,76.7Z"/><path class="cls-1" d="M261.94,74.82h0v.1Z"/><path class="cls-1" d="M263.23,73.48l.5-.12A1.41,1.41,0,0,0,263.23,73.48Z"/><path class="cls-1" d="M229.83,75c.17.11.53.23.38.38C230.48,75.22,230.43,74.8,229.83,75Z"/><path class="cls-1" d="M259.57,80.34a1.77,1.77,0,0,1,.3-.31C259.67,80.17,259.49,80.28,259.57,80.34Z"/><path class="cls-1" d="M259.87,80l.3-.22A1.66,1.66,0,0,0,259.87,80Z"/><path class="cls-1" d="M226.47,82.34a.28.28,0,0,0-.18-.11C226.32,82.35,226.38,82.37,226.47,82.34Z"/><path class="cls-1" d="M264.15,73.46c.07-.21,2.23-.83.37-.78,0-.63,1.16-.39,1.64-.59-.37-.11.14-.41,0-.63a2,2,0,0,1-.92.29c-.21-.27.38-.51.87-.45-.62-.28.7-.56-.15-.74a8.43,8.43,0,0,0-4.18,1.73,7.76,7.76,0,0,1,3-.34l-.3.57c-1-.39-1.53,0-2.47,0l2.11.11c1,.37.37.53-.39.69C263.92,73.35,264.09,73.37,264.15,73.46Z"/><path class="cls-1" d="M263.15,78.34h0l.09-.06Z"/><path class="cls-1" d="M174.87,87.36l-.17.21C174.84,87.47,174.88,87.41,174.87,87.36Z"/><path class="cls-1" d="M261.68,75.82h0Z"/><path class="cls-1" d="M179.33,87.15l0,0A.06.06,0,0,0,179.33,87.15Z"/><path class="cls-1" d="M179.85,75.37s0-.05,0-.07S179.77,75.36,179.85,75.37Z"/><path class="cls-1" d="M179.33,87.1s0,0,0,.05A0,0,0,0,0,179.33,87.1Z"/><path class="cls-1" d="M200.91,83.79a1,1,0,0,0-.18-.17S200.73,83.73,200.91,83.79Z"/><path class="cls-1" d="M196.58,83.25l-.08,0Z"/><path class="cls-1" d="M228.65,72.67a2.16,2.16,0,0,0-.51.07A1.57,1.57,0,0,0,228.65,72.67Z"/><path class="cls-1" d="M179.31,87.2a.93.93,0,0,1-.2.2A.73.73,0,0,0,179.31,87.2Z"/><path class="cls-1" d="M207.26,80.62l-.13.07.08,0Z"/><path class="cls-1" d="M209.52,80.87a1,1,0,0,0-.14.19c.78-.28,2.26-.13,2.39-.72-.27,0-1.69-.21-1.47-.57-.55.19-1.4-.17-1.69,0,.93.25.13.48-.47.72-.57-.14.07-.48-.42-.55l-1.29.15h1.14l-.31.58.11-.06C209.26,80.17,207.59,81.36,209.52,80.87Z"/><path class="cls-1" d="M209.38,81.06a.86.86,0,0,0-.3.16A.35.35,0,0,0,209.38,81.06Z"/><path class="cls-1" d="M217.24,81.45a2.28,2.28,0,0,0,.33-.12Z"/><path class="cls-1" d="M160,84.11c0,.16,1.18.44,1.13,0l-1-.09Z"/><path class="cls-1" d="M238.29,77.42a2.3,2.3,0,0,0-.37,0l-.07.07C237.93,77.57,238.17,77.47,238.29,77.42Z"/><path class="cls-1" d="M210.63,79.55a.62.62,0,0,0-.33.22A.61.61,0,0,0,210.63,79.55Z"/><path class="cls-1" d="M238.44,78.43c.17.11.41.28.46.44.32,0,.53-.26.85-.37A2.5,2.5,0,0,1,238.44,78.43Z"/><path class="cls-1" d="M239.78,78.49h0Z"/><path class="cls-1" d="M159.33,84l-.29.11.15-.13-.77-.09a1.35,1.35,0,0,1-.32.09.22.22,0,0,0,.11-.12l-.25,0a24.85,24.85,0,0,1-2.51,1.15,4.92,4.92,0,0,1-1.72.35c.41,0,1-.13.78-.36-.85-.22-1.3-.92-2.71-.23l.85,0-1.86,1c-.69-.36.93-.52,1.17-.87-1.46.54-2.75-.66-3.39.2-.12-.48-.33-1.29-1.3-1.2.73.53-.56.39,0,1-.32.29-1.09-.13-1.13.24l.08-.21c-1.69-.69-2.18.54-2.87,1-2,.29-2.91,0-4.53.17-.08-.32-.56-1.2-1.21-1.14-.28.46-1.74.72-1.86,1.3,1.17.18.93-.52,1.62-.68.6.57.08.58.88.91-.65-.21-2.87.43-3.59-.1l.24-.09c-1.13-.29-1.4-1.68-3.23-.75l-.87.38a.64.64,0,0,0,.06-.18c-1.46,0-1.08-.65-2.67-.08.12,0,0-.1.17-.14-.93-.28-1.83.39-2.51.55-.44-.46.08-.47.33-.82a7.77,7.77,0,0,0-4.3,1.37l-1-.24c.61-.21,1.34-.74,1.14-1-.56.12-.44.34-1.26.28a4.35,4.35,0,0,1,.82-1c-1.68-.44-.33,1.09-1.53.2a.93.93,0,0,0-.86.84l-1-.44c-.09.47-1.26.54-2,.64-.09.2.64.47.92.28,0,.37-.85.57-1.38.58-.23-1-3.44.26-2.86-.91-2.35.4-5.66.62-7.21,1.08-.52-.25-1.57-.23-1-.71-1.9.06-2.85,1.09-4.75.88-.16-.12.85,0,.78-.36-1.22.43-2.26-.34-4.17,0a.47.47,0,0,0,.45-.34c0,.16-.77.36-1.26.54-.28-.08.37-.13.21-.25-3.71-.36-6.49,1-10.17,1.1,1,0,1.43-.67,1.43-.94l-1,0c-.38.33-1.16.35-1.8.61-.08-.12-.4-.24-.08-.4-2-.6-3.14,1.26-5.64,1l3-1.38-.76-.44,1.31-.62c-.8-.34-1.47.5-1.57,0,.16-.15.56-.11.57-.38-.76-.17-.82.2-1.38.31,1.48-1,4.43-1.1,6-1.39.24-.08-.21.25-.25.35.65,0,1,.25,1.85.06.5-.44-.39-.3-.79-.34,0-.36.24-.35.69-.41.11.48,2.46.1,3.06.68,2.38-.22-.42-1.25,1.92-1.11l.71.54a13.06,13.06,0,0,1,4.62-.84l-.32,0c-.21.25.15.38.31.5,1.17.2,2.19-.51,2.91,0a28.68,28.68,0,0,1,5-1.5c.43.72-2,.69-2.56,1.17l1.37,0a2.28,2.28,0,0,0-1.67.77c1.21.1,1.58-.57,2.72-.79-.08.2.07.32.6.31l.14-.5s.07.08.23.1l2-.36c-.44-.2-.47-.62-1-.61.2.28-.24.35-.77.36.45-.33-.52-.25-.52-.52a17.48,17.48,0,0,0,3-.29l.24.45c1,.07,2.06-.21,2.75-.11l-.21.25c1.21.1,2.39-.23,3.47.17,1.06-.56,2.39-1,3.25-1.61.45-.6,3.18.61,4.36-.26.08.06-.81.47-1.22.71.81.06,1.42-.69,1.7-.09-1.82-.14.11.48-.69.69a5.84,5.84,0,0,0,2.14-.42c-1.37,0,.45-.87-.93-.55a7,7,0,0,1,3.8-.67c0,.27.17.38.65.47l.37-.4c.6,0-1.14.51.07.59,1.21-.71,3.75.21,4.24-1,1,.44-1.78.56-.33,1.09-.81.47-2,0-2.22.63.8-.21.32.5.84.48l.89-.41h-.2c1.5-.64,3.92-.47,5.86-.65,1.62-.67,2.71-1.6,4.69-1.63-.57.38,1.65.27.44,1,.92.27,1.81-.14,1.81-.41-.8,0-.28-.07-1-.17a2.52,2.52,0,0,1,1.93-.19c-.2,0-.12,0-.16.15,1,.17.45-.34,1.13-.5.24.43,1.54,0,2.18.25l.89-.68c-.49.44.89.11,1.05.49a3.72,3.72,0,0,1,2.18-.81c-.41.24.92.27,1,.69,1.74.32,2.79-1.3,4.44-.77,0,.1-.36.39.12.48a9.47,9.47,0,0,1,1.43-.19h0c.2,0,.32-.09.32-.2a6.55,6.55,0,0,1,2.32-1.31c-.12-.49-1.25-.24-1.73-.06l-.4.51c-.45-.72-1.21.18-1.54,0,.77-.9,3.11-.81,4.48-1.41-.89-.63-2.75-.64-4.36-.48l.73.26-.85,0,.85.47c-.81,0-1.49.12-2.22.13.85,0,1.21.6.73.52-1-.43-1,.36-1.69.37.4,0,.92,0,.6.3-1.45-.51-1.82-.11-3.14-.67.2.8-1.62.16-1.78.84l.6,0-1.25.56c-1.2-.61,1-.73-.8-1.11-1.66,0-1.57.85-2.87,1a3.63,3.63,0,0,1,2.47-1l-.65-.2a6.43,6.43,0,0,1,2.5-.31c-1.17.61.57.14,1.13.55.08-.47-.69-.36.2-.78a8,8,0,0,1-2.06,0c2.35.1,2-1.72,4.08-1.43-.93.26.36.66.48.88a15.13,15.13,0,0,0,1.69-.37l-.36-.66c1.17-.35,1.65,1,3,.29.16-.41-1.21-.07-1-.16,1.85-.52,2.58.53,4.27,1a1.42,1.42,0,0,1,.6-1c-.16.42.28.6-.36.93a3,3,0,0,0,1.69-.38c-1.17-.17.44-.6.64-.85.61,0-.16.41-.52.55.49.08,1.09.64,1.33,0,0,.43-1.28,1.19-2.17,1.35l.61,0c-.41.24-.49.18-1.09.15.6.29.56.66.44,1-.08-.06,0-.1,0-.16-.48-.08-.85,0-.72.27-.4.6.68.33,1,.59l.72-.15,2.4-2a3.73,3.73,0,0,1,2.38.37l.19-.5c.94,0,1.82.11,1.26.76,0-.16-.16-.11-.37-.13a.28.28,0,0,1-.12.16l0,.09c1-.21,1.6-.35,1.66-.37-1.65.8,0,.89-.27,1.78l1.69-.38c-1.05-.22,0-.42.32-.56.13.48,1.37-.08,2,0l0,.1a5.46,5.46,0,0,0,2.21-.14c0-.16.8-1,1.2-1.52-1.2-.12-.5-.35-.62-.65.13,0,.35,0,.37-.05s-.24-.17-.28-.33c-1.25.3-2.54.44-3,1.15.41.29.65-.33,1.09-.15a4,4,0,0,1-2.46.5l-.36-.4-1,.28c.42-.24.14-.65,1.24-.79-.17-.38-1.09.14-1.78,0l-.31.56c.11-.31-1.34-.29-.33-.75l1.65-.54-.49-.35,1.41-.18-.32.3c2.25-.5.73,1,3,.27.68-.7,1.45-.81,2.86-.73-1,.2-.08.47-.44.87,1,.21,1.37-.35,1.89-.64.29.33.49.61-.44.61-.07.74,1.21-.2,1.34.55,3.06-.2,2.31-2.56,6-1.84l-.12.31c2.25-.52,3.58-.24,5.67-.61l1.71.67c-.37.14-1.33.77-.84,1.12-.85-.73-1.69-.41-2.59-.77-.07.21.29.33.45.45-.52,0-.81-.31-1.49-.13,0,.16.81.3.25.43l-1-.42c-1.24.31-.55,1.19-2,1.06a2.56,2.56,0,0,1,1.34-1.23c-.68,0,.89-.32.25-.54-.93.7-1.43.23-2.7.7a.89.89,0,0,1,.49-.28l-1.89-.16c.48.35-1.53.5-1.33,1,2,.11,1.41-.19,3.72,0a3.59,3.59,0,0,0-1.8,1.31.18.18,0,0,0-.13,0c-.32.56,0,.69.1,1.64,1-.74,1.73-.22,2.94-.69.2-.53-.75-.62-1.36-.45l1.07-.41-.2.25h2.76c-.52.06-.68.37-.94.62a3.21,3.21,0,0,1,1.1.24c-.11-.5-.08-.85.27-.86a5.45,5.45,0,0,1,3.47.92l.21-.05c-.33-.49,1.2-1,1.71-1.55,0,.53.94.26,1.46.5a1.77,1.77,0,0,0-.83-1.89c-1.16.63-.64.6-1.15,1.42l-1.89.64.4-.51c-1-.15-1.85.54-1.82-.09.48-.45,1.33-.25,1.81-.7l-.65-.19c1.08-.68.61.56,1.93,0-.53-.51.12,0,.68-.44-.49-.35-2.37.3-2-.63.68-.44,2.43.91,3.31,0l0,.11a3,3,0,0,0,2.32-.88c.6.25,1.38-.21,2-.29v.27l.88-.17c-.39.51-1.05,0-1.81.17l.13.49c-.92-.52-1.46.4-2.12.86,1-.48,2.83-.06,3-1l.65.45.29-.2c.48.34.05,1-.83,1.12-.17-.11-.25-.16-.21-.27a2.44,2.44,0,0,1-1.76.61l.51-.3a4.08,4.08,0,0,0-2.77.82,41.94,41.94,0,0,0,5.29-.12,17.62,17.62,0,0,0,1.16-2.85,8.05,8.05,0,0,1,3.66-.2l-.07.21a2.47,2.47,0,0,0,1.29-.15c.52.24-.32.57.05.69l1.6-.45c-.07.47-1.44.56-2.08.64.12,0,.36-.14.28-.2-.77-.14-2.13.74-2.5.09-.36.14.71-.54-.54-.5a.89.89,0,0,0-1.15.64c0,.26,1.33.27.89.62.65-.08.89-.43,1.73-.24-.64.08-1.48.67-1.85.29-1.24.57-1,1.8-.37,1.83-.17-.38,2.29-.64.59-1,.72-.55,2.09-.65,3-1l0,.1,1.21-.2c-.16.14-.52.29-.52.55l1.64-.82c-.92.54.61.29,1.06.47.15-.42.79-.76.14-.94s-.4.24-1,.32l.87-.7.08.06.52-.56c1.25,0-.46,1.24,1.1.62l-.26-.69c1.86,0,4.29.6,5.57.18a1,1,0,0,0,.08,1.44,11.34,11.34,0,0,0-2.51.15c-.16-.12,1-.91,1.84-.82-.51-1.13-2.16.86-2.34-.31-2.27-.26-1.59,1.25-3.54.69,0,.53-.52.3-.59.77.62.81,2.54-.21,3.79,0-.12,0-.35.14-.39.25a3.16,3.16,0,0,0,1.84-.29l-.08-.06c1-.59.7.35,1.34.53.24-.09,1.13,0,1-.38l1.18.42-.1-.58c.64-.08.81.3,1.37-.1V74L222.55,74c.8-.23.19-.52,1.07-.69-1,.64.73.24.86.72l.64-.34-.16.15c.54.23.6-.24,1.21-.21-.73-.24-1.23-.58-2.1-.14a10.57,10.57,0,0,1,2.24-.81c.67-.27,1.18.1,1.83.11-1.22.3.56,1.56-2,1.37,0-.11.24-.1.32,0-.38-.64-1.49.15-2,.45.17.38-.39.51.59.66-.34-.23.74-.92,1.67-.67l-.1.84H228l-.12,0c.54.5,1.41-.2,2.35,0,.63-.34,3.18-.3,2-1.08.86.46,1.53-.26,2.41-.43l-1.14-.26c1.27-.69.92-.28,1.91-1.3.12.22.37.39.17.64,1.77-.08,4.32,0,5.3-.8,1.25-.07,1.52.89,3.24.37.36-.14-.34-.75.83-.6.09.05-1.06.7.22.53.87-.7,2.19.19,3.34-.46.65.18,1.73,0,1.55.53a5.24,5.24,0,0,0-2.61.44c.11-.32-.74-.24,0-.53-1.54-.27-1,.39-2.33.23-.08.21.74.5,1,.3.07.69-2.64.54-1.37,1.27,1.45,0,1.77-1.52,3.08-.89-.47.45-1.28.16-1.87.93l1.06.2.71-.56,0,.11c1.87.48,1.63-.84,3.23-1.32-1-.39.12-1.2-.61-1.44,1.08-.18,1.89-.15,1.95.54-2,.72,0,.73-1.88,1.57.33.22-.37,1,.76,1,1.22-.6-.43-.54.82-.87.08.05.16.11.12.21.56-.4.69.08,1.36-.38l-.15.15c.9.35.91-.55,1.69-.15-.34-.49.47-.46.9-.82-.77-.13-1.24-.83-2.73-.66-.14.41,0,.63-.61.87l1-.12c-.2.08-.35.2-.54.29l-1-.13c1.16-.39.59-.77,1.05-1.23,1.1.08.88-.19,1.57-.11,0,.6,2.17.84,3.45,1.12-.2,0-.45,0-.58,0-.88.45.66.44.71.6l.63-.35c-.12.05-.28.21,0,.27.88-.19.78-.77,1.66-1,.09.32-.62.87-.05,1a1.77,1.77,0,0,0,2,.59,1.35,1.35,0,0,1,.73-.31.53.53,0,0,0-.13.06l.82.29c-.63.61-1.38-.15-2,.47v.53a2.87,2.87,0,0,0-1.52.63,6.07,6.07,0,0,0,1.85-.31c.15.32-.46.62-.54.67l.1-.32c-1.1-.35-1.55.64-2.88.65-.2,0-.08-.05-.05-.15-1,.6-2.14,0-3.13.74l.32-.3c-.69.28-2,.91-3.39,1.53v.21c.16.11-.36.14-.65.08h0c-.67.31-1.32.6-1.86.81a1.47,1.47,0,0,0,.68.21c.2-.26,1.49-.16,1.27-.7.62.29,1.53-.27,2-.1-.82-.28.51-.56.62-.87.29.32,1.17-.13,1.1.35.17.11-.41-.28-.72,0-.79.5,1.54.26.55.75,1.28-.43,3-.43,4.33-1l-.77-.13c.61,0,2-.2,2.14,0-.44.09-1,.13-1.52.27,0,.53,1.37-.11,1.46.21l1.58-1-.72,0c.43-.36,2-.1,3.11-.12-.59.77-1.7.16-2.86.55-.84.34.59.65-.21.89a1,1,0,0,0,1-.12l.34.11c-.68.71-2.32.7-3.35,1.35a.67.67,0,0,0,.19-.24,5.06,5.06,0,0,0-2.51.14.88.88,0,0,0,.85-.08c0,.16-.72.29-1,.49.77.13.17.38.66.45a3.41,3.41,0,0,1-1.49.16c-.34-.22.23-.36.14-.68-.61.25-.95-.5-1.83-.06,1.22,0-.26.74-.66,1h.21c-.35.41-.68.46-1,.13.48-.19,1-.13.8-.5a4,4,0,0,0-1,.23l.31-.3-1.61.21a7.06,7.06,0,0,0-.8,1.4c-.42-.28-.94,0-1.3.17l.16-.16a3.16,3.16,0,0,0-2.41.45c-.53-.23,3.45-2.2-.13-1.64-1.37.11-.78,1-1.54,1.42a.14.14,0,0,0,0-.16c-.61,0-.64.35-1.12.54a1.34,1.34,0,0,0,1-.06c-.15.41-1.26.06-1.69.41.55-.67-1.18-.14-.74-.5a3.68,3.68,0,0,0-3.06.79c-.87-.71-1.41.22-2.75,0a3.56,3.56,0,0,1,.85-.08c.71-.55-1.38-.16-.26-.69-.25.09,0,.26.25.16.43-.08.83-.33.71-.55l-1.11-.36.37-.14L237,81.22c0,.11.13.22.21.27-1.9-.12-4,.38-5.69.42-.21,1.41-4,.9-5.3,1.85.33-.42.47-1.14.23-1.42.29-.08.86-.69,1.55-.62.12.22,1,.41.45.7,1.86-.29-.29-.59.22-1.15-2.06.29-3.21,1.19-4.49,1.61l0-.16-1,.38c.81,0,.83.83-.23.63l.12,0c-.61-.29-1.82.19-2.75.2l-.59.5c-.93,0-1-.83-1.37-1.32-1.45,0-2.24.8-3.25,1.29-.49-.34-2.67-.29-1.55-.81-1.29.41-.89,2.38-3.21,1.43l.56-.4c-2.14.22-5.16,1.14-6.18.83.71-1.34-2.77-1.13-3.23-2.37.12.28-.68.43-.78.59a.57.57,0,0,0-.79,0c.85.2-.51,1.34,1.06.73a4.42,4.42,0,0,1-3.53,1.73v-.53l1.42.07c-.17-.38.56-.39.84-.59-2.63-.13.26-1.25-2.4-1-.24.36-.08.21-.77.39.33,0,.36-.41-.16-.38l-.48.45c-1-.82,1.51-.67.67-1.24,1-.47,2.78-.81,2.4-1.46-1.69-.13-1.43,1.36-3.21,1.16l-.21-.27c-.6.23-.68.7-1,1,0-.16-.2-.27-.6-.29-1,.74-1.69.91-2.61,1.71,2.53-.71,2.22.38,4.85-.28-.41.24-2.26.52-2.33,1.25v-.52a5.81,5.81,0,0,1-2.79.54l.65-.34c-1.42.46-2.44-.65-3.52.3a2.49,2.49,0,0,0,1-.11,6.3,6.3,0,0,1-2.46.24l-1.61,1c0-.26-1.06-.21-.58-.66-1.22-.33-1.74.49-2.42.66-1.26-.49,1.05-.31,1.13-1a8.51,8.51,0,0,0-4.41.71c.35.09.52.17.51.3-.06-.16-.74-.08-1.11-.06l-.25.35c-.64-.19-.56-.4,0-.69-.61,0-1.29.67-1.94.21,1-.47,2.34-.18,2.86-.47-2.13.46-2.22-.92-4.93-.34,0-.16.4-.5-.12-.48-1.22.19-.28.72-.64,1.12a1.94,1.94,0,0,1,1.94.33l-.23.29c-.05-.14-.64-.12-.82-.25l-.12.58c0-.63-.94-1.06-1.67-.79.78.42.57.41.82,1.11-1,.73-1.21-.6-2.34.18.07-.21,1.08-.41.19-.52-.73,0-.6.49-1.08.68.52-.55.36-.93.92-1.59a6.72,6.72,0,0,0,1.78-.31l-1.1-.39c1.09-.14.77-.64.85-.84-1.91-.43-1.37.87-2.59.8-.56.39,1.14,0,.25.43-1.14,0-.24.36-1.5.65l.2-.25c-.4-.29-.76.12-1.21.19s.66,1.79-1.37,1.93a.65.65,0,0,0,.12-.3l1.74-4.5a51.86,51.86,0,0,1-6.81,0c-.6-.83,1.66-.8,1.5-1.18l1.09.12c0,.37-2.26.23-1.25.82,1.9-.35,2.79,0,4.56-.83-.61-.83-2.38.29-3.6-.32a3.27,3.27,0,0,0,1.32-.23l-3.58-.18-.27.22a13.92,13.92,0,0,1,1.52.13c-1.13,0-2,.5-2.09,1.13l.2,0-.4.21Zm-73.1,2.7a.6.6,0,0,0,.16-.22C86.35,86.53,86.4,86.59,86.23,86.66Zm95.05-6c-1.51,0-3-.09-4.48-.08,2.67,1.09,4.56,1.92.21,2.15l-.28.11a7.78,7.78,0,0,0,2.47-.07,22.49,22.49,0,0,0,3-2.38c-.28-.33-.64.07-1.13,0Zm1.18,2c.86.09.65-.17.77-.43l-.89.15A.19.19,0,0,1,182.46,82.67Zm.71-.67a.47.47,0,0,1-.23,0Zm-16.58.61.09,0-.62,0A1.56,1.56,0,0,0,166.59,82.61Zm1.76.51.18-.46-.58,0A.7.7,0,0,0,168.35,83.12ZM174,84.31c.32-.56,1.49-.65,1.53-1.28.06-.17-.19-.22-.47-.25h-1a.43.43,0,0,1-.18.27c.35.06.59.2.47.6-.94-.8-.76.64-1.74.47C172.33,84.58,173.71,84.51,174,84.31Zm73.64-6.6a3.29,3.29,0,0,0,.28.35l-.65.36c-1.22,0-2.25-.87-3.28,0a2.44,2.44,0,0,1-1.11-.86,4.61,4.61,0,0,1,.68,0C246.5,76.23,245.23,78.68,247.63,77.71Zm-13.94,0a.26.26,0,0,0,.16-.16,15.76,15.76,0,0,1-6.25,1.92c.32.43,1.64.69,2.28.83l-.51.56-.38-.38-.91.54c.29.33,1,.2,1.59.43,0-.1,1.63-.83,2.07-1.18L230.4,80a10,10,0,0,0,2.78-.32c0-.26-1.23-.57-1.34,0-.17-.37,1.21-.48.31-.83a6.42,6.42,0,0,1,3.43-.13l.18.64c.85.19.5-.83,1.52-.52-1.21.21.26.69-.7.81.32.23,0,.69,1,.57.74-.92,1.07.47,1.77-.35.53.22-.51.56.5.59,1.12-.54,1-.86,1-1.49-1.09-.09-1.14.91-2,.83l1.67-1.21a1.13,1.13,0,0,0-.77-.07,1.87,1.87,0,0,0,.87-.51c.14-.14.26-.25.38-.35-1,.07-1.87.13-2.05-.13l.12-.31a1.05,1.05,0,0,0-1.18.25c-.88.1-1.74.59-2,.21l.31-.3A25.86,25.86,0,0,1,233.69,77.67Zm-35.85,1.78c.74,1.07,1.53,2,4.61,1.62l-.24.09c1.6.6,3-1.12,4.92-.47a4.67,4.67,0,0,0-1.79,1.46l1-.38c-.23.63.73.25,1.46.23l-.59.76c-.45-.17-1.58-.17-1.54,0,.24-.1-1.55-.81-2.48-.54.13.48,2.11.15,1.27,1,.76-.39.89.09,1.7-.13-.76.38-.15.68-.71,1.07l1.33-.25c0,.16-1.93.49-.79,1,.52-.3,2-.07,2-.6l0,.16c1,.05.4-.77,1.65-.56,0-.26-.25-.43-.69-.34s-.4.5-1.16.63c-.38-.39.93,0,.35-.67-.29-.33-2,.43-1.5-.39l1,0c0-.53.72-.55.67-1,.6-.24,1.22.32,1.82-.18.23-.36-.26-1,.79-.76.86.73,3.24.42,4.13.24l.76-.39c-.09-.32-1.49.15-1-.3l1.21-.22-.08.21a3,3,0,0,0,1.17-.37c-.36.41-1.25.32-1,.85.58.07.68.27,1.2.13-.11,0-.21.1-.19.18,1.18.16,1.08-.69,1.36-.89,1.11-.8-1.22-.58-1.11-1.16l3.38-.54c-.28.2-.56.4-.44.62.86.19,0,.42,1.22.31-.13-.74,1.45-.57,2.24-1.06.41.28.5.33-.35.4.13.48,1.26.22,1.66.23.23-.14.62-.23.87-.36-.36-.22-.24-.53.48-.79l0-.11c-1.22,0-3.12-.45-3.84.1l.2-.25c-1.42-.33-3,1.08-3.67.21,0-.37-.29-.06-.3-.59l-1,.48L218,78l-1.73.24,0-.1c-.79.53-1.41,1-1.91,1.32,0,.23.07.3-.19.49a1.21,1.21,0,0,1-.67.14h0c-.43,0-.74-.35-1.27-.45l1.61-.16c.11-.4-.06-.79-.87-1,.32,0,.44-.35,0-.37,0,.1-1,.32-.63.6-1.53.25-4.09-.61-6.38.29,1.65-.56-1.38-.44.47-.72-1.34-.54-1.07.69-2.41.68-.12-.22.73,0,1-.48-2.22-.11-3.65,1.25-5.8,1.19l-.12-.48Zm-4.18.87-1.24.24h.13l-1.21.47c.77.14,1.3.65.25,1,.08-.21-.25-.43.12-.57-.73-.25-2.31-.44-1.86.27,1.33-.78.38.92,1.42.34-.55.51-1.13.33-1.66.58.54-.44-.19-.9-1.05-1-.37.14-1.38.08-2,.31.25.44-.28.73.73.78a2.42,2.42,0,0,1-1.57.08c.25-.1.68-.18.64-.34-.43-.39-.91-.34-1.19-.5l-.63.11a.43.43,0,0,1,.16.14l-.68.44c.93-.27.45.18.45.45,0-.53-.61,0-.93,0l.73.52c-.32.29-1.21-.34-1,.2a9.93,9.93,0,0,0,3.39-.23l-.57-.4c1.49-.4,1,.68,2.67.56.68-.43,2.55-.18,2.54-1-.2.25,1.1.63,1.66.24.59-.76,2.53-1,1.92-1.28-.52,0-1.2.47-1.66,0l1-.22-.69-.35C193.91,81.27,193.86,80.89,193.66,80.32Zm-23-3.11h0Z"/><path class="cls-1" d="M262.54,74.84c.28-.2,1-.23.83-.61C263.42,74.66,262.08,74.41,262.54,74.84Z"/><path class="cls-1" d="M263.44,75.19c0-.11,0-.27.31-.31l-.88.18Z"/><path class="cls-1" d="M264.59,78a2,2,0,0,1,1.44-.6c.36,1-1.16.4-1.41,1.39,1.33,0,1.66-1,2.75-1.14C266.79,77.28,264.56,77.22,264.59,78Z"/><polygon class="cls-1" points="264.11 79.37 264.83 79.07 264.75 79.02 264.03 79.31 264.11 79.37"/><path class="cls-1" d="M247.42,71.67c-.09-.31-.53,0-.77.14A1.08,1.08,0,0,0,247.42,71.67Z"/><path class="cls-1" d="M102.64,79.44,97,79.93C98.64,79.8,100.13,79.71,102.64,79.44Z"/><path class="cls-1" d="M229,75.22c1.48-.42,2.11-1,3.64-1.29-2.07-.5-2.59,1.22-4.34.68Z"/><path class="cls-1" d="M229.29,72.59c.29.59-1.11.8-.86,1.23,1-.22.43-.61,1.36-.63Z"/><polygon class="cls-1" points="236.88 82.17 236.45 82.52 236.81 82.38 236.88 82.17"/><polygon class="cls-1" points="222.46 73.63 222.62 73.48 221.84 73.34 222.46 73.63"/><path class="cls-1" d="M222.77,73.33l-.15.15Z"/><polygon class="cls-1" points="236.39 83.52 237.09 83.6 237.4 83.29 236.39 83.52"/><path class="cls-1" d="M230.14,80.69l.59-.24C230.61,80.5,229.76,80.31,230.14,80.69Z"/><polygon class="cls-1" points="217.82 73.7 217.1 73.98 217.18 74.04 217.9 73.75 217.82 73.7"/><path class="cls-1" d="M225.49,82.73c.45.44-1.21.21-.31.56C225.94,83.17,225.61,82.94,225.49,82.73Z"/><path class="cls-1" d="M216.32,80.18a.61.61,0,0,0-.31.09Z"/><path class="cls-1" d="M216.32,80.18c.32,0,.65.13.87,0A.86.86,0,0,0,216.32,80.18Z"/><path class="cls-1" d="M212.63,80.54h.29c-.28.26-.14.21.11,0,.31,0,.28-.19.31-.29l.18-.19-.24.18C212.8,80.29,212.51,80.33,212.63,80.54Z"/><path class="cls-1" d="M198.38,73.53c1.09.11,1.38.18,1.34.54,1,.06.83-.56,1.44-.74C200,73.47,199.76,73.31,198.38,73.53Z"/><path class="cls-1" d="M201.16,73.33l.4-.06A1.12,1.12,0,0,0,201.16,73.33Z"/><polygon class="cls-1" points="217.22 84.22 216.59 84.83 216.83 84.73 217.22 84.22"/><path class="cls-1" d="M196.77,73.45a1.45,1.45,0,0,1,.69.09C197.49,73.17,196.57,73.44,196.77,73.45Z"/><path class="cls-1" d="M201.39,80.33c.12.22.81,0,1.09.11C202.08,80.42,201.7,79.77,201.39,80.33Z"/><path class="cls-1" d="M193.77,75.15c.2,0,.52.23.41.54C194.46,75.5,194.81,74.83,193.77,75.15Z"/><polygon class="cls-1" points="199.41 80.39 199.57 80.5 200.3 80.22 199.41 80.39"/><path class="cls-1" d="M202.4,85.6c.8-.49-1.39-1,0-1.42-1.88-.34.18.61-1.19.62C202,84.9,202.47,85.42,202.4,85.6Z"/><path class="cls-1" d="M201.23,84.8a2.38,2.38,0,0,0-.38,0Z"/><path class="cls-1" d="M189.34,82.78a1.38,1.38,0,0,0,.27-.16A.92.92,0,0,0,189.34,82.78Z"/><path class="cls-1" d="M196.89,85.44l1.21-.74c-.81.49-2.91.6-2.74,1.24a2.57,2.57,0,0,0,1.82-.44Z"/><path class="cls-1" d="M181.87,74.51l.52-.29-.68,0C181.91,74.27,181.59,74.77,181.87,74.51Z"/><path class="cls-1" d="M181.58,74.18h.13A.18.18,0,0,0,181.58,74.18Z"/><path class="cls-1" d="M191.68,82.32a2.6,2.6,0,0,0,1.08-.15C192.6,82.05,191.59,82,191.68,82.32Z"/><polygon class="cls-1" points="178.13 75.68 179.01 75.52 178.05 75.62 178.13 75.68"/><polygon class="cls-1" points="173.93 74.81 173.77 74.69 173.04 74.97 173.21 75.08 173.93 74.81"/><path class="cls-1" d="M180.08,87.3c.61,0,1-.58.88-.7l-1.17.1c.33.49.32,0,1,0Z"/><path class="cls-1" d="M143.22,77.32c.24-.35,1.53-.22,1.61.11-.16.14-.85.31-.41.5l1-.89c1.37.46-1,1.15-1.62,1.48,1.37,0,1.75-.53,3.21-.59a2,2,0,0,1-1-.42c-.08-.59,1.29-.39,2.26-.48-.63-.23-.28-.46.15-.72a.31.31,0,0,0,.17-.1l.15-.09h-.11a.38.38,0,0,0-.12-.25c-.8.21-1.45-.26-2-.24.56.94-1.78.31-2.42.63l-.76.13-.28,0c-.06-.11,0-.24.44-.45-.36.2-1.57.19-1.44.5l-2.76.14a.75.75,0,0,1-.24-.15c-.09.07-.11.12-.09.16l-12,.58c.6,0,1.12.24,1.73.33-.89.67,1,.07.77.68a1.75,1.75,0,0,1-1.38.06c-.12.31.4.56.36.93,1.53.32,1.7-1.15,3.19-1,0,.37-.49.7.48.61l-.24.09c1.53-.47,1.24.78,2.18-.27v.53a8.17,8.17,0,0,1,2.82-.59l0,.1c2.14-.69,1.21-.18,3.63-.54l-1.09.67c.85.22,1-.46,1.62-.42,0,.1.11.48-.45.6l2.91-1.07C144.18,77.49,143.34,77.54,143.22,77.32Z"/><path class="cls-1" d="M147,77.93a2,2,0,0,0,.54,0Z"/><path class="cls-1" d="M126.17,77.23l.84,0A2.67,2.67,0,0,0,126.17,77.23Z"/><path class="cls-1" d="M151.16,76.58c-.52-.25.37-.4.45-.6l-1.83.09c0,.2-.16.44-.11.62Z"/><path class="cls-1" d="M149.23,75.71a1.11,1.11,0,0,1-.46.41l1-.05C149.76,75.92,149.64,75.79,149.23,75.71Z"/><polygon class="cls-1" points="149.94 86.53 149.61 86.57 149.13 86.75 149.94 86.53"/><path class="cls-1" d="M144.81,85.88c.4.29,1.13,0,1.37-.07A6.39,6.39,0,0,0,144.81,85.88Z"/><polygon class="cls-1" points="146.01 89.13 145.2 89.34 145.28 89.39 146.01 89.13"/><path class="cls-1" d="M120,79.55l-.4,0A2.68,2.68,0,0,0,120,79.55Z"/><path class="cls-1" d="M127,78.77c-2-.51,1.26-.54.61-1.27l-1,.29.09-.21-1.29.12c.28.34.48.35.43.72-1.73-.08-.56-.41-1.84-.82l-1.93.14.15-.12a.35.35,0,0,0-.28.13l-6.5.47c-1.17.34.68.64-.17,1.21,1.37-.06,3.42.25,3.51-.48,0,.1-.12.31.16.38l.77-.63-.77-.16a5.3,5.3,0,0,1,3.84-.24c-1.46.26-.69,1-2.75.64.1.18.49.49,0,.61C122.39,79.24,124.55,79.49,127,78.77Z"/><path class="cls-1" d="M103,80v-.06S103,80,103,80Z"/><path class="cls-1" d="M103.83,80.07l1.14-.76-1.81.12-.12.51c.16-.14.79-.41,1-.22Z"/><path class="cls-1" d="M106.31,78.83c-.93.25-.86.84-.34,1.09-.85.3-.47-.62-1,0,0,.43,1.09.14,1.33,0Z"/><polygon class="cls-1" points="113.25 78.9 112.99 79.16 113.64 79.2 113.25 78.9"/><path class="cls-1" d="M113,79.16l-.65,0a1.33,1.33,0,0,0,.22.48Z"/><path class="cls-1" d="M110.64,79a8.1,8.1,0,0,0-.94-.06Z"/><path class="cls-1" d="M111.39,79.13l0-.08-.72,0Z"/><path class="cls-1" d="M112.34,79.11c-.12-.41-.25-.84-1.18-.69l.2.63Z"/><polygon class="cls-1" points="140.02 88.78 139.29 89.05 139.37 89.11 140.1 88.84 140.02 88.78"/><path class="cls-1" d="M135.73,88.58c-.18.09-.31.17-.44.25A.76.76,0,0,0,135.73,88.58Z"/><path class="cls-1" d="M132.68,91.54c-.89-.38,1.17-.6-.45-.72-.16-.38.58-.91,1.35-.75-.05.37-.73.27-.25.62.49-.44.69-.16.49-.71.84-.37.91-.77,1.47-1.15-1,.29-3.19-.19-4.46.57-.69.69-.22,1.58-.18,2.53C130.77,92.15,132.63,92.17,132.68,91.54Z"/><path class="cls-1" d="M134.09,92.43a1.46,1.46,0,0,0,.77-.1C134.78,92,134.41,92.4,134.09,92.43Z"/><path class="cls-1" d="M124.53,85.64c-.07.14-.79.34-.63.57L125,86C124.74,86,124.64,85.82,124.53,85.64Z"/><path class="cls-1" d="M125.48,85.9,125,86A1.26,1.26,0,0,0,125.48,85.9Z"/><path class="cls-1" d="M124.48,85.56l0,.08S124.54,85.58,124.48,85.56Z"/><path class="cls-1" d="M108,78.86c0-.26-.48-.09-.72,0A1.58,1.58,0,0,0,108,78.86Z"/><path class="cls-1" d="M89.51,80.47l-.44-.2A.69.69,0,0,0,89.51,80.47Z"/><path class="cls-1" d="M83,87.79a.55.55,0,0,1-.09.14A.34.34,0,0,0,83,87.79Z"/><path class="cls-1" d="M82.92,87.93c-.29.22-1.22-.09-1.54.25l0-.11-.61.22C81.39,88.24,82.6,88.25,82.92,87.93Z"/><path class="cls-1" d="M577.33,78.72c.4,0,.74.29.58.42.84-.35.84.08,1-.64.54-.34,1.08.18.47.45l1.53-.38-.9-.15c.27-.6,1.44.24,1.76-.46H580.1l.09-.19a2.06,2.06,0,0,1-1.35,0c0-.09,0-.26.31-.26-2-.13-.57,1-2.23,1.17A.85.85,0,0,1,577.33,78.72Z"/><path class="cls-1" d="M575.7,77.17l-.72.73-1.15-.24c0,.26-.88.44-.32.69a1.37,1.37,0,0,1,.52-.07c-.15.56-1.56.22-1.24.81.93-.12,1.06,0,1.64-.42a4.82,4.82,0,0,1,1.84.46c.25-.08.3-.42.62-.48h-.22v-.85c-.27.17-.52.07-.81.08l1.4-.94c-.41-.82-1.76-.4-2.28-.76C575.61,76.94,574.44,76.53,575.7,77.17Z"/><path class="cls-1" d="M576.89,78.65h0Z"/><path class="cls-1" d="M475.17,79.53a.46.46,0,0,0-.43.3L478,80c-.1-.23-1-.54-.39-.65a1.08,1.08,0,0,0-1.27.21l.25-.33c-.76.41-1.24-.47-.74-.71h-.06l-2.15,1.6C474.4,80.2,474.25,79.52,475.17,79.53Z"/><path class="cls-1" d="M408.4,76c.43-.06.48-.14.44-.22A1.51,1.51,0,0,0,408.4,76Z"/><path class="cls-1" d="M473.14,80.45l-.67.5A2.18,2.18,0,0,0,473.14,80.45Z"/><path class="cls-1" d="M478,72.62s0-.06,0-.09l-.3.25h0Z"/><path class="cls-1" d="M458.3,81.83a1.33,1.33,0,0,1-.21,0A.66.66,0,0,0,458.3,81.83Z"/><path class="cls-1" d="M486.9,70l-1.47.45c.21-.23-.49-.19-.18-.46-.11,0-.63.11-.5.24h.3c-.79.66-.34,1-1.62,1.43.76.45,1.12.08,1.55-.22a3.25,3.25,0,0,1,.38-.08l1.25-.93Z"/><path class="cls-1" d="M428.71,72.83l0,0A.17.17,0,0,0,428.71,72.83Z"/><path class="cls-1" d="M428.8,72.56l-.07.22C428.81,72.67,429.11,72.58,428.8,72.56Z"/><path class="cls-1" d="M473.4,80a1.16,1.16,0,0,1-.26.44l.5-.38Z"/><path class="cls-1" d="M474.56,78.52l1.23,0,.46-.34C475.78,78.25,475.23,78.32,474.56,78.52Z"/><path class="cls-1" d="M460.21,82.32c-2.53,0,.65-.79-.5-1-.7.07-1,.45-1.41.55,2-.25-.32,1.28,1.71,1.15-.32.7-1.49.72-2.17.5-.75-.72.7-.47.9-1.13-.81.07-.67.2-1,.57-1.27-.21-2.67.73-3.39-.24-.93.11-.88.44-1.42.77-.14.73,1.35.44,1.67,1-.07-.07-.2-.19-.16-.29l.79.18c-.74-.28.14-.72.54-.76s.88,0,.79.18l-.45.14c.57.25,1.29-.48,1.88-.06,0,.16-.21.23-.25.33a8.62,8.62,0,0,1,2.37-.73l-.61.7c.83-.76,2.64-.46,3.88,0-.14-.13-.38-.23-.23-.36.75-.14,1.29.38.93.74.75-.57,2.73.62,3.75-.12L472.47,81a2.09,2.09,0,0,1-.55.18c-.38-.65-.61-.59.14-1.16-.72.31-.47.83-1.54.82.43-.31.57-1-.45-1.15-2.57.53-4.33,2.27-6.75,3.1-.06-.5-1.94-.43-2.84-.59a2.37,2.37,0,0,1,1.75-.71c-.44,0-1.19-.09-1.75-.14Z"/><path class="cls-1" d="M466.19,80.92a.58.58,0,0,0-.19-.1A.36.36,0,0,0,466.19,80.92Z"/><path class="cls-1" d="M462.44,81.47a.13.13,0,0,0,0-.06l-.22,0Z"/><path class="cls-1" d="M472.85,78.88c.15-.14.27-.17.42-.3l-.32.11C472.84,78.75,472.78,78.82,472.85,78.88Z"/><path class="cls-1" d="M473.32,79.76l-.09.2.17.05A.22.22,0,0,0,473.32,79.76Z"/><path class="cls-1" d="M450.74,77.52l-.24.09C450.64,77.61,450.71,77.57,450.74,77.52Z"/><path class="cls-1" d="M457.43,81.38c.88,0,.14-.73,1.38-.68l-.36-.06a14.17,14.17,0,0,1,3.52,0c-.13.28.63.38.48.82a2.74,2.74,0,0,0,1.84-.59c.45.17,1.14-.22,1.71,0-.23-.28.84-.89-.56-.61.12,0,.05-.1.16-.14-.88-.41-1.26.22-2,.2-.45-.29.77-.41.34-.53-1,.21-3-.45-3,.57a1,1,0,0,1-1-.38c-1.15,1-4.09-.63-4.13.75a4.74,4.74,0,0,0,1.66-.25Z"/><path class="cls-1" d="M471.37,78.89l-.17,0Z"/><path class="cls-1" d="M482.28,83.34l-.4.88a40.23,40.23,0,0,1-4.67-.19c-.14-.13.09-.2.2-.23-1.29,0-3.2-.21-4.15.16-.41,0-1.47-.35-1.06-.6a1.33,1.33,0,0,1-.66.1c0-.32.52-.07.54-.34-.18,0-.25-.09-.29,0,.31-.27-.27-1.11,1.15-1,.52.78-1,0-.7.89.47,0,.43-.3.47-.4.6,0,.58.25.54.44.24-.25,1,.14,1.32-.24,1.17,0-.09.63.67.65l.48-.83,1.26.21c1.85-.22-.2-1.47,1.92-1.87-.3.43.52,1.21,1.49,1.43-.59,0-1.69.51-2.44.23,1,.71-1.47,0-.94.8a2.68,2.68,0,0,1,2.09-.13l-.23.07c.73.12,1.32-.74,2.31-.36.5,0,.39.22.3.42C481.91,83.3,482.29,83.15,482.28,83.34Zm-1.09.13-.67-.11A.82.82,0,0,0,481.19,83.47Z"/><path class="cls-1" d="M566.36,76.9l.2.08A.46.46,0,0,0,566.36,76.9Z"/><path class="cls-1" d="M507.1,74.2l.39,0A1.91,1.91,0,0,0,507.1,74.2Z"/><path class="cls-1" d="M515.9,71.75l.57-.18A1.2,1.2,0,0,0,515.9,71.75Z"/><path class="cls-1" d="M561.75,76.66h0l-.09,0Z"/><path class="cls-1" d="M533.23,74.43a1,1,0,0,0,.31.2C533.52,74.55,533.41,74.48,533.23,74.43Z"/><path class="cls-1" d="M515.79,71.78l0,0a.18.18,0,0,1,.07,0Z"/><path class="cls-1" d="M503.38,71.57l-.25.08A.49.49,0,0,0,503.38,71.57Z"/><path class="cls-1" d="M503.83,74a1.49,1.49,0,0,0-.25.07Z"/><path class="cls-1" d="M490.52,71.81l-.53.1A1.09,1.09,0,0,0,490.52,71.81Z"/><path class="cls-1" d="M502.47,73.39a.76.76,0,0,0-.08.11C502.46,73.48,502.5,73.43,502.47,73.39Z"/><path class="cls-1" d="M569.57,79.56h0v.1Z"/><path class="cls-1" d="M570.88,78.38l.46,0A1.12,1.12,0,0,0,570.88,78.38Z"/><path class="cls-1" d="M540.74,76.1c.13.12.45.28.29.42C541.3,76.35,541.3,75.92,540.74,76.1Z"/><path class="cls-1" d="M566.81,84.76a2.06,2.06,0,0,1,.31-.28C566.92,84.6,566.75,84.69,566.81,84.76Z"/><path class="cls-1" d="M567.12,84.48a2.29,2.29,0,0,0,.29-.18A2,2,0,0,0,567.12,84.48Z"/><path class="cls-1" d="M537,83a.29.29,0,0,0-.16-.12C536.81,83,536.87,83,537,83Z"/><path class="cls-1" d="M571.71,78.48c.09-.2,2.09-.56.42-.73.09-.63,1.09-.25,1.54-.39-.32-.16.18-.39.09-.62a1.64,1.64,0,0,1-.86.18c-.16-.3.41-.47.84-.34-.52-.36.69-.48,0-.76a7.13,7.13,0,0,0-4,1.21,6.31,6.31,0,0,1,2.71,0l-.34.54c-.83-.52-1.37-.18-2.21-.27l1.87.37c.87.49.27.57-.43.64C571.51,78.34,571.67,78.38,571.71,78.48Z"/><path class="cls-1" d="M570.24,83.2h0l.08,0Z"/><path class="cls-1" d="M490.17,82.82,490,83C490.14,82.93,490.19,82.87,490.17,82.82Z"/><path class="cls-1" d="M569.23,80.52Z"/><path class="cls-1" d="M494.2,83s0,0,0,0Z"/><path class="cls-1" d="M495.75,71.34a.64.64,0,0,1,0-.07C495.64,71.3,495.68,71.32,495.75,71.34Z"/><path class="cls-1" d="M494.21,83a.09.09,0,0,1,0,0A.09.09,0,0,0,494.21,83Z"/><path class="cls-1" d="M513.88,81.76a1,1,0,0,0-.15-.19C513.69,81.62,513.73,81.68,513.88,81.76Z"/><path class="cls-1" d="M510.05,80.8l-.07-.06Z"/><path class="cls-1" d="M539.92,73.61a2.24,2.24,0,0,0-.46,0A1.2,1.2,0,0,0,539.92,73.61Z"/><path class="cls-1" d="M494.18,83.07a.93.93,0,0,1-.2.18A.74.74,0,0,0,494.18,83.07Z"/><path class="cls-1" d="M519.89,79.25l-.12.06.07,0Z"/><path class="cls-1" d="M521.89,79.73a1,1,0,0,0-.14.18c.73-.2,2,.1,2.22-.47-.24,0-1.5-.39-1.27-.72-.51.13-1.23-.31-1.51-.22.81.35.07.49-.49.66-.5-.19.11-.46-.32-.58h-1.17l1,.12-.33.54a.27.27,0,0,0,.11,0C521.73,79,520.11,80,521.89,79.73Z"/><path class="cls-1" d="M521.75,79.91a.73.73,0,0,0-.28.13A.34.34,0,0,0,521.75,79.91Z"/><path class="cls-1" d="M528.76,81.11a2.6,2.6,0,0,0,.31-.07Z"/><path class="cls-1" d="M477.11,78.25c0,.17,1,.55,1,.12l-.9-.17Z"/><path class="cls-1" d="M548.07,79.4a1.84,1.84,0,0,0-.33,0l-.07.07C547.74,79.5,548,79.43,548.07,79.4Z"/><path class="cls-1" d="M523,78.54a.56.56,0,0,0-.32.18A.55.55,0,0,0,523,78.54Z"/><path class="cls-1" d="M548.1,80.42c.13.12.34.32.36.48.29,0,.51-.2.81-.26A2.11,2.11,0,0,1,548.1,80.42Z"/><path class="cls-1" d="M549.29,80.63s0,0,0,0Z"/><path class="cls-1" d="M476.52,78.05l-.27.08.14-.11-.68-.16a1.24,1.24,0,0,1-.29.06.19.19,0,0,0,.1-.1l-.22-.06a19.57,19.57,0,0,1-2.35.93,4.23,4.23,0,0,1-1.58.2c.37,0,.87,0,.73-.3-.75-.28-1.08-1-2.41-.45l.76,0-1.76.88c-.58-.42.88-.44,1.13-.77-1.35.41-2.42-.88-3.07-.09-.07-.49-.18-1.31-1.06-1.29.61.58-.54.33-.05,1-.31.27-1-.22-1,.15l.09-.2c-1.47-.83-2,.36-2.67.73-1.8.13-2.61-.22-4.08-.2-.05-.33-.41-1.24-1-1.23-.29.43-1.62.58-1.78,1.14,1,.28.88-.44,1.51-.55.5.62,0,.59.73,1-.57-.26-2.62.2-3.23-.38l.23-.07c-1-.38-1.14-1.79-2.85-1l-.82.32c.05-.06.05-.13.08-.18-1.31-.11-.93-.74-2.4-.29.11,0,.05-.1.16-.13-.81-.35-1.67.25-2.3.36-.36-.48.11-.46.36-.79a6.47,6.47,0,0,0-4,1.05l-.93-.32c.57-.17,1.26-.64,1.11-.94-.52.08-.43.31-1.16.19a4.49,4.49,0,0,1,.81-.94c-1.48-.56-.38,1.06-1.39.09a.87.87,0,0,0-.83.77l-.84-.51c-.12.46-1.18.44-1.87.48-.09.2.54.52.81.35-.07.37-.81.51-1.29.48-.13-1-3.11,0-2.5-1.11-2.15.23-5.15.21-6.57.56-.46-.29-1.4-.34-.81-.77-1.72-.07-2.65.89-4.34.56-.13-.13.77,0,.72-.31-1.13.35-2-.49-3.74-.3a.46.46,0,0,0,.43-.31c0,.17-.73.31-1.18.45-.25-.09.34-.1.2-.23-3.31-.61-5.91.61-9.23.43a1.19,1.19,0,0,0,1.36-.84l-.93,0c-.37.31-1.07.28-1.66.5-.07-.13-.35-.27,0-.41-1.81-.73-2.91,1.06-5.15.64l2.78-1.19-.66-.48,1.22-.55c-.7-.38-1.35.42-1.42-.08.16-.13.52-.07.54-.33-.68-.22-.75.14-1.27.21,1.4-.94,4.07-.81,5.51-1,.23-.07-.2.23-.25.33.59,0,.93.32,1.67.17.48-.4-.33-.32-.7-.38.07-.36.25-.33.66-.37.07.49,2.21.26,2.71.88,2.16-.07-.3-1.28,1.8-1l.61.58a10.81,10.81,0,0,1,4.22-.53h-.29c-.2.23.11.39.25.52,1,.28,2-.36,2.62.22a23.29,23.29,0,0,1,4.6-1.15c.34.75-1.81.55-2.39,1l1.24,0a2,2,0,0,0-1.56.65c1.08.18,1.47-.45,2.51-.59-.09.19,0,.32.52.35l.15-.49s.06.08.21.12l1.85-.22c-.39-.23-.39-.66-.86-.68.16.29-.25.33-.72.31.43-.31-.46-.29-.43-.56a14.09,14.09,0,0,0,2.75-.07l.18.46c.91.15,1.88-.07,2.49.09l-.21.23c1.09.18,2.17-.06,3.12.41,1-.47,2.23-.85,3.05-1.36.44-.56,2.82.85,3.94.07.07.07-.77.41-1.15.61.73.12,1.33-.57,1.54.05-1.63-.28.07.49-.68.63a4.8,4.8,0,0,0,2-.26c-1.23,0,.48-.83-.79-.61a5.64,5.64,0,0,1,3.48-.38c0,.26.12.39.54.51l.37-.36c.53.09-1.07.41,0,.59,1.14-.61,3.36.5,3.9-.69.84.52-1.65.42-.38,1.06-.77.41-1.78-.14-2.06.46.75-.14.25.52.73.55l.83-.34-.18,0c1.4-.52,3.57-.16,5.33-.19,1.51-.54,2.57-1.38,4.35-1.24-.54.33,1.47.4.32,1,.81.35,1.64,0,1.67-.26-.72-.12-.25-.09-.86-.25a2,2,0,0,1,1.76,0c-.18,0-.11,0-.16.13.86.25.43-.3,1.06-.41.19.46,1.38.18,1.95.43l.85-.6c-.47.4.79.18.91.57.61-.27,1.13-.77,2-.62-.39.2.81.35.81.78,1.54.47,2.62-1.06,4.06-.39-.05.09-.35.36.07.49a8,8,0,0,1,1.3-.07h0c.18,0,.29-.06.3-.16a5.57,5.57,0,0,1,2.2-1.11c-.07-.49-1.1-.35-1.55-.21l-.41.47c-.34-.75-1.11.08-1.38-.18.77-.83,2.87-.53,4.16-1-.75-.71-2.42-.89-3.89-.86l.64.31L477,70l.72.55c-.72-.12-1.35,0-2-.07.77,0,1,.71.61.59-.83-.52-.9.27-1.55.22.36.06.83.08.51.35-1.26-.64-1.62-.27-2.77-.94.11.82-1.47,0-1.67.68l.54.09-1.17.44c-1-.7,1-.63-.64-1.17-1.49-.14-1.48.72-2.66.73a3.09,3.09,0,0,1,2.3-.79l-.56-.25c.31-.27,1.62-.16,2.27-.1-1.1.51.5.19,1,.64.11-.46-.59-.42.25-.76a6.94,6.94,0,0,1-1.86-.2c2.11.29,2-1.54,3.8-1.08-.86.18.27.69.36.92a11.8,11.8,0,0,0,1.55-.22L475.7,69c1.09-.25,1.4,1.19,2.67.55.18-.4-1.09-.18-.86-.25,1.71-.36,2.28.75,3.77,1.32a1.45,1.45,0,0,1,.63-1c-.18.4.2.62-.4.89a2.52,2.52,0,0,0,1.55-.22c-1-.28.45-.56.66-.8.54.09-.18.4-.52.5.43.13.92.75,1.19.15,0,.43-1.26,1.07-2.07,1.15l.54.09c-.38.2-.45.14-1,0a.71.71,0,0,1,.31,1c-.06-.07.05-.1,0-.16-.43-.13-.77,0-.68.2-.41.56.59.39.88.68l.67-.09,2.33-1.74c1-.17,1.4.28,2.11.59l.22-.48c.84.08,1.63.27,1.06.87,0-.17-.13-.13-.32-.16a.28.28,0,0,1-.12.14l-.05.09,1.53-.22c-1.56.65-.11.89-.4,1.75l1.55-.23c-.92-.31,0-.42.34-.53.07.5,1.24,0,1.78.14l0,.1a4.48,4.48,0,0,0,2,.07c0-.17.81-.93,1.21-1.4-1.06-.23-.42-.4-.49-.71.11,0,.31,0,.34,0s-.21-.19-.23-.36c-1.15.18-2.33.2-2.82.87.34.32.61-.28,1,0-.58.43-1.31.31-2.25.26l-.3-.42-1,.18c.41-.2.18-.63,1.19-.68-.11-.39-1,.05-1.61-.1l-.33.53c.13-.3-1.18-.41-.23-.79l1.54-.38-.41-.39L492,70l-.32.27c2.08-.3.56,1.1,2.66.54.68-.63,1.38-.67,2.64-.46-.92.11-.11.46-.47.83.93.31,1.26-.22,1.76-.46.23.36.38.65-.45.57-.14.72,1.11-.08,1.15.67,2.78.09,2.32-2.34,5.53-1.27l-.13.3c2.07-.29,3.24.12,5.16,0l1.47.83c-.34.11-1.26.65-.86,1-.7-.81-1.48-.57-2.25-1-.09.2.22.36.36.49-.48,0-.7-.39-1.33-.28,0,.17.7.39.18.46l-.84-.51c-1.15.18-.61,1.12-1.94.85a2.4,2.4,0,0,1,1.33-1.1c-.61-.12.82-.23.27-.5-.9.59-1.31.08-2.5.42.14-.08.18-.2.47-.23L502.16,71c.41.38-1.42.35-1.29.9,1.81.3,1.29,0,3.35.35a3.26,3.26,0,0,0-1.75,1.13s0,0-.11-.06c-.34.54,0,.7-.06,1.65,1-.64,1.58-.06,2.71-.4.23-.52-.62-.69-1.18-.58l1-.31-.2.23,2.48.28c-.47,0-.64.3-.9.52a3,3,0,0,1,1,.35c-.05-.5,0-.85.32-.83a4.67,4.67,0,0,1,3,1.26l.19,0c-.25-.52,1.17-.87,1.69-1.37,0,.53.81.35,1.26.64a1.87,1.87,0,0,0-.56-2c-1.11.51-.63.53-1.18,1.29l-1.76.46.41-.47c-.86-.25-1.72.36-1.63-.27.48-.4,1.22-.11,1.7-.52l-.57-.25c1-.58.5.62,1.74.24-.43-.56.11,0,.65-.38-.4-.38-2.16.07-1.76-.82.66-.37,2.1,1.15,3,.28l0,.1a2.59,2.59,0,0,0,2.18-.64c.51.31,1.26-.07,1.84-.08l0,.26.81-.07c-.4.46-.94-.06-1.64,0l.07.49c-.78-.61-1.35.25-2,.65.92-.39,2.55.22,2.8-.73l.54.52.27-.17c.41.39,0,1-.86,1-.13-.13-.2-.19-.15-.29a2.1,2.1,0,0,1-1.65.42l.49-.24a3.45,3.45,0,0,0-2.57.53,34.58,34.58,0,0,0,4.76.42,17.3,17.3,0,0,0,1.33-2.71,6.48,6.48,0,0,1,3.32.18l-.09.2a2.13,2.13,0,0,0,1.18,0c.45.29-.34.53,0,.69l1.49-.29c-.11.46-1.35.42-1.94.43.12,0,.34-.11.27-.17-.67-.22-2,.52-2.25-.17-.34.11.69-.47-.43-.55a.8.8,0,0,0-1.11.51c0,.27,1.17.41.75.71.59,0,.83-.34,1.58,0-.59,0-1.4.51-1.7.09-1.17.44-1,1.69-.51,1.78-.12-.39,2.12-.39.63-1,.7-.47,1.94-.43,2.84-.7l0,.1,1.1-.08c-.16.13-.49.23-.52.49l1.56-.64c-.88.44.52.35.9.58.18-.4.79-.67.23-.93s-.38.2-1,.21l.85-.6.07.06.52-.5c1.13.09-.54,1.19.93.74l-.16-.72c1.67.18,3.79,1.06,5,.78a1,1,0,0,0-.08,1.44,9,9,0,0,0-2.27-.12c-.14-.13.95-.8,1.74-.62-.34-1.18-2,.62-2.08-.56-2-.49-1.55,1.08-3.25.31,0,.53-.5.24-.61.7.48.88,2.31.07,3.41.41-.11,0-.33.1-.38.2a2.55,2.55,0,0,0,1.69-.09l-.07-.06c1-.48.59.41,1.15.67.23-.07,1,.11.91-.28l1,.54,0-.59c.59,0,.7.39,1.24,0l0-.52-1.45-.25c.75-.14.23-.49,1-.57-.93.54.63.32.7.81l.61-.27-.16.13c.46.29.56-.17,1.11-.08-.63-.32-1-.71-1.88-.37a8.61,8.61,0,0,1,2.1-.55c.64-.2,1.06.22,1.64.3-1.13.17.33,1.61-1.91,1.15.05-.1.23-.07.3,0-.27-.68-1.36,0-1.85.23.11.39-.41.46.45.71-.28-.26.76-.83,1.58-.48l-.18.82,1.19.15-.11,0c.43.55,1.29,0,2.1.3.61-.27,2.89,0,1.94-.85.72.55,1.4-.09,2.21-.17l-1-.38c1.22-.54.86-.17,1.85-1.08.09.23.29.43.09.66,1.6.11,3.88.43,4.85-.21,1.13.08,1.27,1.07,2.87.75.34-.11-.23-.79.81-.51.07.07-1,.58.14.56.86-.61,1.94.43,3.05-.08.56.25,1.55.21,1.33.7a4.38,4.38,0,0,0-2.4.14c.14-.3-.63-.32.05-.53-1.36-.44-.9.28-2.12,0-.09.2.61.58.88.41,0,.69-2.44.24-1.38,1.11,1.31.11,1.76-1.31,2.87-.54-.47.4-1.17,0-1.78.72l.92.31.7-.47,0,.1c1.62.7,1.55-.65,3-.93-.83-.52.25-1.19-.38-1.51,1,0,1.71.07,1.69.76-1.87.49-.13.73-1.87,1.35.27.25-.45,1,.57,1.1,1.16-.44-.32-.58.83-.76.07.06.13.12.09.22.54-.33.61.16,1.26-.21l-.16.13c.77.45.88-.44,1.54,0-.25-.52.47-.4.9-.7-.67-.22-1-1-2.37-1-.18.39-.09.62-.65.8l.88,0c-.19.06-.34.16-.52.23l-.84-.24c1.09-.25.61-.7,1.08-1.1,1,.22.82-.08,1.43.08-.09.59,1.85,1.09,3,1.51-.18,0-.4,0-.52,0-.84.34.54.52.56.68l.61-.27c-.11,0-.27.17,0,.26.81-.08.79-.67,1.6-.75,0,.33-.65.8-.16,1a1.53,1.53,0,0,0,1.77.83c.08-.12.36-.18.68-.22a.33.33,0,0,0-.12.05l.7.38c-.63.54-1.22-.31-1.85.23l-.08.52a2.51,2.51,0,0,0-1.43.45,4.92,4.92,0,0,0,1.69-.09c.1.34-.48.57-.56.6l.13-.3c-1-.48-1.46.45-2.66.3-.18,0-.07-.06,0-.16-1,.48-1.92-.27-2.9.37l.32-.26c-.65.2-1.93.67-3.21,1.12v.21c.13.13-.34.1-.59,0h0c-.64.23-1.26.44-1.76.59a1.26,1.26,0,0,0,.59.29c.2-.24,1.35,0,1.21-.55.52.36,1.4-.08,1.79.14-.7-.38.51-.5.65-.8.23.36,1.06,0,1,.48.14.13-.34-.32-.65-.06-.77.41,1.35.44.4.82,1.2-.28,2.76-.08,4-.46l-.68-.22c.54.09,1.83,0,1.92.27-.41,0-.88,0-1.4.09,0,.52,1.24,0,1.29.37l1.53-.81-.65-.06c.42-.3,1.78.14,2.8.26-.62.7-1.54-.05-2.62.2-.79.24.45.72-.3.86a.87.87,0,0,0,.92,0l.28.15c-.68.62-2.15.42-3.15.94a.54.54,0,0,0,.19-.21,4.13,4.13,0,0,0-2.25-.16.71.71,0,0,0,.76,0c0,.16-.67.21-.94.38.67.21.11.39.54.51a2.69,2.69,0,0,1-1.35,0c-.28-.26.24-.33.2-.66-.57.17-.79-.61-1.63-.27,1.09.18-.31.69-.7.9l.18,0c-.36.36-.65.37-.88,0,.46-.14.88,0,.77-.4a2.84,2.84,0,0,0-.93.11l.32-.27-1.47,0a7.33,7.33,0,0,0-.87,1.3c-.34-.33-.84-.09-1.18,0l.16-.14c-.63-.32-2.08-.13-2.21.17-.45-.29,3.34-1.8.06-1.65-1.24,0-.81.94-1.53,1.24a.16.16,0,0,0,0-.16c-.54-.09-.61.27-1.06.41a1.08,1.08,0,0,0,.94.05c-.18.4-1.12-.08-1.55.22.56-.6-1-.28-.61-.58a3,3,0,0,0-2.82.44c-.7-.81-1.29,0-2.46-.36a3.4,3.4,0,0,1,.77,0c.69-.47-1.23-.31-.16-.72-.23.07,0,.26.2.19.4,0,.79-.24.7-.47l-1-.47.34-.11L546.52,83c0,.09.09.22.16.29a46.3,46.3,0,0,0-5.15-.22c-.33,1.39-3.7.45-4.94,1.26.34-.39.55-1.09.36-1.39.27,0,.84-.59,1.45-.44.09.22.83.51.33.75,1.7-.1-.2-.63.32-1.13-1.87.07-3,.84-4.2,1.12l0-.17-.9.28c.72.12.65.91-.27.6l.11,0c-.52-.35-1.65,0-2.48-.09l-.59.44c-.83-.09-.83-.94-1.09-1.46-1.31-.12-2.09.55-3,.93-.41-.39-2.37-.56-1.31-1-1.2.28-1,2.28-3,1.1l.54-.34c-1.95,0-4.74.6-5.62.19.77-1.26-2.37-1.41-2.67-2.69.09.3-.65.36-.76.51a.48.48,0,0,0-.71-.06c.75.29-.58,1.29.89.84a3.84,3.84,0,0,1-3.34,1.37l0-.53,1.27.21c-.12-.39.53-.34.81-.5-2.35-.39.36-1.22-2.06-1.25-.25.33-.09.19-.72.3.29,0,.36-.36-.11-.39l-.48.4c-.8-.91,1.42-.51.73-1.16.95-.37,2.57-.53,2.3-1.21-1.52-.31-1.42,1.2-3,.83l-.16-.29c-.57.17-.68.63-1,.9,0-.17-.15-.29-.51-.36-1,.64-1.61.75-2.51,1.45,2.34-.46,2,.6,4.38.2-.38.2-2.08.3-2.21,1l0-.53a4.59,4.59,0,0,1-2.55.27l.61-.27c-1.31.32-2.12-.89-3.18,0a2,2,0,0,0,.88,0,5.08,5.08,0,0,1-2.23,0l-1.54.81c0-.26-.93-.31-.45-.71-1.06-.45-1.6.32-2.23.42-1.09-.6,1-.21,1.1-.93a6.9,6.9,0,0,0-4,.29c.31.12.46.21.44.34,0-.17-.66-.15-1-.17l-.25.34c-.56-.26-.47-.46,0-.7-.54-.08-1.22.55-1.76,0,.95-.37,2.12,0,2.62-.2-2,.26-1.92-1.12-4.4-.79,0-.16.4-.47-.07-.49-1.11.08-.32.69-.67,1.06a1.61,1.61,0,0,1,1.71.5l-.24.27c0-.15-.56-.18-.71-.32l-.16.56c.09-.63-.74-1.14-1.42-.93.66.48.48.45.63,1.17-1,.64-1-.71-2.12,0,.09-.2,1-.31.23-.5s-.59.44-1,.58c.52-.51.41-.9,1-1.5a5.6,5.6,0,0,0,1.63-.15l-.95-.48c1,0,.74-.57.83-.77-1.67-.6-1.31.74-2.39.56-.54.34,1,.12.18.46-1-.12-.25.33-1.4.51l.2-.23c-.33-.32-.7,0-1.1.08s.43,1.84-1.4,1.8a.65.65,0,0,0,.13-.29l2-4.32a43.6,43.6,0,0,1-6.11-.65c-.47-.88,1.56-.65,1.44-1l1,.22c-.07.36-2.05,0-1.2.7,1.74-.19,2.51.26,4.18-.42-.47-.88-2.17.06-3.2-.64a2.59,2.59,0,0,0,1.19-.12l-3.19-.49-.27.2a12.7,12.7,0,0,1,1.36.26c-1-.12-1.89.32-2,.95l.18,0-.38.18Zm-66-2.8a.8.8,0,0,0,.15-.21C410.64,75.13,410.68,75.19,410.53,75.25Zm86,1.49c-1.35-.14-2.71-.37-4-.5,2.31,1.34,3.93,2.34,0,2.16l-.26.08a6.53,6.53,0,0,0,2.23.17,20.63,20.63,0,0,0,2.91-2.09c-.22-.35-.59,0-1-.11Zm.88,2.12c.77.17.6-.11.73-.35l-.81.06A.2.2,0,0,1,497.42,78.86Zm.7-.6a.43.43,0,0,1-.2-.06Zm-15-.92h.08l-.55-.08A1.09,1.09,0,0,0,483.16,77.34Zm1.54.67.2-.45-.52-.07A.73.73,0,0,0,484.7,78Zm5,1.69c.34-.53,1.4-.51,1.49-1.14.07-.15-.15-.23-.39-.29l-.9-.09a.4.4,0,0,1-.18.26c.3.09.51.25.37.63-.77-.87-.75.57-1.61.32C488.15,79.83,489.39,79.87,489.66,79.7Zm66.75,1a3.67,3.67,0,0,0,.21.38l-.62.28c-1.08-.18-1.92-1.12-2.93-.38a2.39,2.39,0,0,1-.91-1,4,4,0,0,1,.61.14C555.57,79.15,554.16,81.44,556.41,80.75Zm-12.49-1.62a.24.24,0,0,0,.16-.13,13,13,0,0,1-5.81,1.21c.23.47,1.4.87,2,1.08l-.52.5-.29-.42-.88.44c.23.36.93.32,1.38.6,0-.09,1.56-.64,2-1l-1.17-.41a7.88,7.88,0,0,0,2.53,0c0-.26-1-.71-1.2-.15-.11-.39,1.13-.34.36-.79a5.27,5.27,0,0,1,3.09.25l.09.65c.75.29.55-.76,1.43-.35-1.11.08.15.72-.72.74.27.25,0,.69.85.67.77-.83.91.58,1.63-.15.45.29-.52.5.38.65,1.06-.41,1-.74,1.11-1.37-1-.21-1.13.78-1.92.59l1.63-1a1,1,0,0,0-.69-.15,1.66,1.66,0,0,0,.84-.41,4.1,4.1,0,0,1,.38-.3c-.9,0-1.7-.09-1.83-.37l.14-.3c-.31-.29-.83-.09-1.08.12-.81,0-1.63.4-1.79,0l.32-.26A17.72,17.72,0,0,1,543.92,79.13Zm-32.37-2c.55,1.14,1.17,2.15,4,2.07l-.23.07c1.38.75,2.79-.82,4.47,0A4.29,4.29,0,0,0,518,80.58l.91-.28c-.28.6.63.32,1.28.38l-.61.7c-.38-.23-1.4-.34-1.37-.18.22-.07-1.31-1-2.17-.79.07.5,1.87.37,1,1.14.72-.31.79.18,1.53,0-.72.31-.2.66-.74,1l1.22-.12c0,.16-1.78.29-.81.93.49-.23,1.78.14,1.82-.39l0,.17c.9.15.43-.73,1.53-.39,0-.26-.18-.45-.58-.42s-.41.47-1.11.51c-.3-.42.84.09.38-.63-.23-.35-1.85.23-1.31-.53l.9.15c0-.53.7-.47.7-.9.57-.17,1.07.44,1.65,0,.25-.34-.14-1,.79-.67.7.81,2.87.74,3.68.66l.72-.3c0-.33-1.35,0-.88-.42l1.11-.08-.1.2a2.45,2.45,0,0,0,1.09-.25c-.36.37-1.15.19-1,.74.51.13.58.34,1.06.25-.1,0-.19.09-.18.16,1,.28,1-.57,1.3-.74,1.09-.67-1-.7-.88-1.27l3.1-.17c-.27.16-.55.33-.46.56.75.28,0,.43,1.07.44-.05-.75,1.35-.41,2.12-.81.33.32.4.38-.36.36.07.49,1.1.35,1.46.4.22-.11.58-.16.82-.26-.3-.26-.16-.56.51-.74l0-.1c-1.08-.18-2.75-.78-3.46-.31l.21-.23c-1.24-.47-2.78.76-3.32-.18.07-.36-.25-.09-.21-.62l-.94.37.2-.23-1.58.06,0-.1-1.86,1.11c0,.23,0,.31-.22.47a1,1,0,0,1-.61.07h0c-.39-.08-.63-.42-1.1-.57h1.47c.13-.39,0-.8-.69-1.1.3,0,.43-.3.07-.36,0,.1-1,.21-.63.53-1.4.09-3.61-1-5.76-.37,1.54-.38-1.19-.57.5-.66-1.15-.67-1,.57-2.23.43-.1-.23.65,0,.94-.38-2-.33-3.4.87-5.33.61l-.06-.49Zm-3.84.45-1.14.13h.11l-1.13.35c.68.22,1.11.77.14,1,.09-.19-.18-.45.15-.56-.63-.31-2-.65-1.69.1,1.27-.65.25.94,1.24.47-.54.46-1,.22-1.54.41.52-.38-.09-.91-.85-1.13a17.18,17.18,0,0,0-1.81.13c.18.45-.31.69.59.84a1.93,1.93,0,0,1-1.42-.08c.23-.06.63-.1.61-.27-.35-.43-.79-.43-1-.61l-.58,0a.42.42,0,0,1,.13.16l-.65.37c.86-.18.38.22.36.49,0-.53-.54-.09-.83-.09l.6.58c-.31.27-1.06-.44-.92.12a8.19,8.19,0,0,0,3.07.08l-.48-.45c1.38-.25.82.77,2.35.81.65-.37,2.31.07,2.37-.72-.2.23.93.74,1.47.4.61-.7,2.37-.72,1.85-1.07-.47,0-1.13.34-1.49-.15l.92-.11-.58-.42C507.84,78.57,507.83,78.18,507.71,77.59Zm-20.43-5.26h0Z"/><path class="cls-1" d="M570.1,79.65c.28-.17.93-.11.82-.5C570.92,79.57,569.74,79.17,570.1,79.65Z"/><path class="cls-1" d="M570.87,80.1c0-.1,0-.26.32-.27l-.81.08Z"/><path class="cls-1" d="M571.57,83a1.72,1.72,0,0,1,1.36-.41c.2,1.05-1.08.25-1.42,1.2,1.2.15,1.6-.74,2.59-.79C573.63,82.59,571.64,82.26,571.57,83Z"/><polygon class="cls-1" points="570.99 84.33 571.66 84.13 571.6 84.06 570.92 84.27 570.99 84.33"/><path class="cls-1" d="M556.9,74.73c0-.33-.48,0-.7,0A.92.92,0,0,0,556.9,74.73Z"/><path class="cls-1" d="M425.8,69.13l-5.1.11C422.17,69.21,423.52,69.22,425.8,69.13Z"/><path class="cls-1" d="M539.92,76.17c1.38-.25,2-.78,3.41-.87-1.81-.73-2.46.92-4,.19Z"/><path class="cls-1" d="M540.51,73.6c.2.62-1.08.68-.9,1.13.92-.11.45-.56,1.28-.48Z"/><polygon class="cls-1" points="546.3 83.96 545.87 84.26 546.21 84.16 546.3 83.96"/><polygon class="cls-1" points="534.26 73.9 534.41 73.76 533.74 73.54 534.26 73.9"/><path class="cls-1" d="M534.57,73.63l-.16.13Z"/><polygon class="cls-1" points="545.71 85.25 546.32 85.4 546.64 85.14 545.71 85.25"/><path class="cls-1" d="M540.41,81.75l.56-.17C540.85,81.61,540.11,81.33,540.41,81.75Z"/><polygon class="cls-1" points="530.08 73.47 529.4 73.68 529.47 73.74 530.15 73.53 530.08 73.47"/><path class="cls-1" d="M536,83.26c.36.49-1.11.08-.34.53C536.39,83.75,536.11,83.49,536,83.26Z"/><path class="cls-1" d="M528.06,79.75a.59.59,0,0,0-.28.06Z"/><path class="cls-1" d="M528.06,79.75c.3,0,.58.2.79.08A.75.75,0,0,0,528.06,79.75Z"/><path class="cls-1" d="M524.72,79.73l.26,0c-.28.22-.15.19.1,0,.28,0,.27-.15.31-.25l.18-.18-.24.17C524.9,79.49,524.63,79.51,524.72,79.73Z"/><path class="cls-1" d="M512.61,71.31c1,.21,1.22.31,1.15.67.92.15.81-.48,1.37-.61C514.08,71.4,513.87,71.23,512.61,71.31Z"/><path class="cls-1" d="M515.13,71.37h.37A1.1,1.1,0,0,0,515.13,71.37Z"/><polygon class="cls-1" points="528.47 83.87 527.84 84.4 528.06 84.34 528.47 83.87"/><path class="cls-1" d="M511.16,71.06c.18,0,.48,0,.61.16C511.84,70.86,511,71,511.16,71.06Z"/><path class="cls-1" d="M514.65,78.37c.09.23.72.12,1,.21C515.26,78.52,515,77.84,514.65,78.37Z"/><path class="cls-1" d="M508.3,72.46a.44.44,0,0,1,.32.58C508.89,72.87,509.27,72.24,508.3,72.46Z"/><polygon class="cls-1" points="512.86 78.23 513 78.36 513.68 78.15 512.86 78.23"/><path class="cls-1" d="M515,83.71c.77-.4-1.15-1.09.16-1.41-1.65-.52.11.62-1.12.5C514.78,83,515.11,83.54,515,83.71Z"/><path class="cls-1" d="M514.07,82.8a1.86,1.86,0,0,0-.34,0A2.54,2.54,0,0,0,514.07,82.8Z"/><path class="cls-1" d="M503.59,79.62a1.26,1.26,0,0,0,.26-.14A1.3,1.3,0,0,0,503.59,79.62Z"/><path class="cls-1" d="M510.11,83l1.16-.61c-.77.41-2.67.31-2.58,1a2.09,2.09,0,0,0,1.67-.25Z"/><path class="cls-1" d="M497.64,70.68l.5-.24-.61-.1C497.7,70.45,497.37,70.91,497.64,70.68Z"/><path class="cls-1" d="M497.42,70.32l.11,0Z"/><path class="cls-1" d="M505.73,79.39a1.94,1.94,0,0,0,1,0C506.59,79.21,505.69,79.06,505.73,79.39Z"/><polygon class="cls-1" points="494.17 71.49 494.98 71.41 494.1 71.42 494.17 71.49"/><polygon class="cls-1" points="490.46 70.23 490.33 70.11 489.65 70.31 489.79 70.44 490.46 70.23"/><path class="cls-1" d="M494.86,83.24c.54.09,1-.48.85-.61l-1.06,0c.25.53.3,0,.91.16Z"/><path class="cls-1" d="M462.57,70.07c.25-.33,1.4-.09,1.44.24-.16.13-.79.24-.4.47l.94-.81c1.2.58-1,1.07-1.58,1.34,1.24.16,1.63-.38,2.95-.32a1.73,1.73,0,0,1-.83-.5c0-.59,1.2-.28,2.08-.29-.55-.28-.21-.48.2-.7a.27.27,0,0,0,.16-.08l.14-.08h-.1a.37.37,0,0,0-.08-.25c-.75.14-1.29-.38-1.76-.41.43,1-1.63.16-2.24.43l-.69.07h-.26c-.05-.11,0-.23.43-.41-.33.18-1.42.07-1.33.38l-2.5-.09a.65.65,0,0,1-.21-.16c-.09.05-.1.1-.09.15L448,68.66c.53.1,1,.33,1.54.46-.86.61.9.15.63.75a1.48,1.48,0,0,1-1.24-.05c-.14.3.32.59.25,1,1.35.44,1.62-1,2.95-.74-.06.37-.49.67.39.65l-.23.07c1.42-.35,1.06.87,2-.09l0,.52a6.89,6.89,0,0,1,2.59-.36l-.05.1c2-.53,1.11-.09,3.32-.25l-1,.57c.75.29,1-.38,1.49-.28,0,.1.07.49-.45.56l2.71-.83C463.43,70.32,462.66,70.3,462.57,70.07Z"/><path class="cls-1" d="M465.92,71a1.83,1.83,0,0,0,.49,0Z"/><path class="cls-1" d="M447.2,68.63l.76,0A2.71,2.71,0,0,0,447.2,68.63Z"/><path class="cls-1" d="M469.79,70c-.45-.29.36-.36.45-.56l-1.66-.06c0,.2-.17.42-.14.61Z"/><path class="cls-1" d="M468.12,69a1,1,0,0,1-.45.37l.91,0C468.58,69.22,468.49,69.07,468.12,69Z"/><polygon class="cls-1" points="467.86 79.81 467.56 79.81 467.11 79.95 467.86 79.81"/><path class="cls-1" d="M463.3,78.73c.34.32,1,.11,1.24,0A4.62,4.62,0,0,0,463.3,78.73Z"/><polygon class="cls-1" points="464.12 82.07 463.37 82.21 463.44 82.27 464.12 82.07"/><path class="cls-1" d="M441.47,70.48l-.37,0A1.31,1.31,0,0,0,441.47,70.48Z"/><path class="cls-1" d="M447.83,70.23c-1.74-.66,1.18-.44.65-1.22l-1,.21.09-.2-1.17,0c.22.36.4.38.34.75-1.56-.21-.48-.46-1.61-1h-1.74l.14-.1a.36.36,0,0,0-.27.1H437.4c-1.08.25.57.68-.25,1.19,1.25,0,3.07.51,3.21-.21-.05.1-.14.29.11.39l.74-.57-.67-.22a4.32,4.32,0,0,1,3.47,0c-1.33.15-.69.89-2.52.43.07.19.4.52,0,.61C443.64,70.35,445.56,70.76,447.83,70.23Z"/><path class="cls-1" d="M426.11,69.71l0-.07S426.08,69.7,426.11,69.71Z"/><path class="cls-1" d="M426.84,69.83l1.08-.67h-1.65l-.14.49c.15-.12.74-.35,1-.14Z"/><path class="cls-1" d="M429.16,68.78c-.86.17-.83.77-.38,1-.79.24-.39-.65-.95,0,0,.43,1,.22,1.2.15Z"/><polygon class="cls-1" points="435.41 69.34 435.17 69.57 435.75 69.66 435.41 69.34"/><path class="cls-1" d="M435.17,69.57l-.59-.09a1.35,1.35,0,0,0,.16.49Z"/><path class="cls-1" d="M433.06,69.25a7.71,7.71,0,0,0-.85-.13Z"/><path class="cls-1" d="M433.72,69.43l0-.08-.64-.1Z"/><path class="cls-1" d="M434.58,69.48c-.07-.41-.17-.85-1-.77l.14.64Z"/><polygon class="cls-1" points="458.76 81.23 458.09 81.43 458.15 81.5 458.83 81.29 458.76 81.23"/><path class="cls-1" d="M454.93,80.7a1.83,1.83,0,0,0-.42.21A.83.83,0,0,0,454.93,80.7Z"/><path class="cls-1" d="M452,83.4c-.77-.45,1.1-.51-.34-.75-.11-.39.59-.86,1.26-.64-.06.36-.67.21-.27.59.48-.4.64-.11.5-.66.78-.31.88-.7,1.41-1-.93.2-2.85-.44-4.05.22-.68.63-.32,1.55-.36,2.5C450.19,83.86,451.86,84,452,83.4Z"/><path class="cls-1" d="M453.15,84.4a1.2,1.2,0,0,0,.7,0C453.8,84,453.44,84.4,453.15,84.4Z"/><path class="cls-1" d="M445.08,76.89c-.07.14-.74.28-.61.52l1-.13C445.24,77.25,445.17,77.08,445.08,76.89Z"/><path class="cls-1" d="M445.92,77.22l-.44.06A1.13,1.13,0,0,0,445.92,77.22Z"/><path class="cls-1" d="M445,76.81a.2.2,0,0,0,0,.08S445.1,76.84,445,76.81Z"/><path class="cls-1" d="M430.65,68.92c0-.26-.43-.13-.65-.06A1.39,1.39,0,0,0,430.65,68.92Z"/><path class="cls-1" d="M413.88,69.27l-.38-.22A.6.6,0,0,0,413.88,69.27Z"/><path class="cls-1" d="M407.55,76.17a.38.38,0,0,1-.09.13A.25.25,0,0,0,407.55,76.17Z"/><path class="cls-1" d="M407.46,76.3c-.28.21-1.09-.17-1.4.15l0-.1-.56.18C406.06,76.52,407.15,76.6,407.46,76.3Z"/><circle class="cls-2" cx="341" cy="78" r="23"/></svg>
